<svg width="396" height="424" viewBox="0 0 396 424" fill="none" xmlns="http://www.w3.org/2000/svg">
<path fill-rule="evenodd" clip-rule="evenodd" d="M120.5 92C87 118.5 37.0004 201.3 81.0004 296.5C77 265 75 177 174.501 152C198.167 173.167 243.3 215.8 234.5 217C223.5 218.5 108.5 264.5 116 323C121.23 349.732 142.839 361.942 166.5 365.813C165.333 354.875 173.5 332.7 215.5 331.5C182 346 183 357.5 188.5 367.198C196.259 366.976 203.763 366.056 210.5 364.659C210.5 362.5 212.9 351.2 214.5 350C216.1 348.8 217.667 349.5 218.5 350C219.333 350.5 220.5 361.5 220.5 363.785C232.934 364.415 238.612 364.062 243.5 363.5C255.303 362.143 266.672 357.355 277 350.949C272.667 352.133 266 352 275 338.5C288 324 293.923 334.5 282.961 347C300.297 334.786 314.068 318.701 321 308.5L289 191.5L120.5 92Z" fill="url(#paint0_linear_1_10)"/>
<path fill-rule="evenodd" clip-rule="evenodd" d="M216.043 364.094C216.043 364.094 218.943 364.015 220.5 364.094C220.5 364.094 221 405.5 238.5 413C241.5 414.286 241.5 414.5 247 415C244 419.5 240.966 422.653 232.5 423.5C213.7 424.3 210 384.947 210.5 365C213 364.341 216.043 364.094 216.043 364.094Z" fill="url(#paint1_linear_1_10)"/>
<path d="M223.534 388.65C223.665 388.644 223.697 388.701 223.706 388.904C223.715 389.106 223.675 389.194 223.561 389.257C222.969 389.632 222.48 390.7 222.362 391.954L220.667 410.462C220.639 410.812 220.354 410.942 220.137 410.951C219.963 410.959 219.668 410.856 219.592 410.453L216.38 394.108L214.833 410.723C214.805 411.073 214.519 411.202 214.302 411.212C214.143 411.219 213.864 411.144 213.772 410.713L209.652 390.925C209.505 390.236 209.109 390.136 208.578 389.928C208.489 389.903 208.457 389.817 208.449 389.644C208.439 389.413 208.464 389.324 208.565 389.32L212.778 389.13C212.894 389.125 212.926 389.212 212.934 389.385C212.945 389.616 212.933 389.676 212.791 389.74C212.237 389.997 211.952 390.126 211.969 390.502C211.971 390.56 211.973 390.59 211.99 390.647L214.669 404.46L215.784 392.451C215.814 392.16 215.816 391.869 215.804 391.609C215.758 390.566 215.38 389.915 214.6 389.659C214.512 389.634 214.479 389.549 214.471 389.375C214.461 389.143 214.487 389.054 214.588 389.049L218.612 388.87C218.713 388.866 218.761 388.951 218.769 389.124C218.779 389.355 218.767 389.415 218.626 389.479C218.114 389.705 217.844 389.863 217.861 390.239C217.864 390.297 217.866 390.326 217.882 390.382L220.503 404.2L221.634 391.899C221.653 391.666 221.671 391.433 221.662 391.23C221.617 390.216 221.146 389.744 220.507 389.395C220.373 389.314 220.327 389.257 220.318 389.054C220.307 388.823 220.349 388.792 220.494 388.786L223.534 388.65ZM195.404 388.595C197.255 388.785 198.032 388.962 199.684 389.028C201.337 389.094 202.125 388.981 203.97 388.938L204 388.939C204.101 388.943 204.14 389.061 204.155 389.41C204.147 391.064 204.22 393.591 204.342 395.25C204.34 395.308 204.353 395.338 204.351 395.395C204.345 395.54 204.314 395.597 204.239 395.652C204.209 395.68 204.165 395.677 204.151 395.677C204.064 395.673 204.025 395.555 203.988 395.38C203.556 393.129 202.986 391.046 202.268 390.495C202.014 390.311 201.32 390.225 200.827 390.205L200.083 408.834C200.05 409.644 200.301 409.886 201.193 410.096C201.264 410.128 201.334 410.19 201.325 410.421C201.316 410.652 201.27 410.71 201.154 410.705L196.472 410.518C196.356 410.513 196.315 410.452 196.324 410.221C196.334 409.99 196.394 409.934 196.482 409.909C197.388 409.771 197.643 409.549 197.676 408.738L198.422 390.109C197.959 390.091 197.245 390.12 196.977 390.284C196.262 390.748 195.499 392.777 194.872 395.015C194.822 395.187 194.773 395.301 194.686 395.298C194.672 395.297 194.628 395.296 194.6 395.266C194.53 395.205 194.503 395.146 194.509 395.001C194.511 394.944 194.527 394.915 194.529 394.857C194.769 393.213 195.044 390.698 195.183 389.05C195.211 388.704 195.275 388.589 195.376 388.593L195.404 388.595ZM183.541 387.757L187.911 388.181C188.041 388.193 188.065 388.255 188.043 388.486C188.02 388.717 187.956 388.769 187.866 388.789C187.088 388.86 186.829 389.126 186.756 389.876L185.979 397.843L189.875 398.221L190.651 390.253C190.724 389.504 190.521 389.191 189.771 388.973C189.687 388.936 189.635 388.872 189.657 388.641C189.68 388.411 189.714 388.357 189.844 388.369L194.215 388.793C194.331 388.804 194.368 388.866 194.346 389.096C194.323 389.327 194.246 389.379 194.172 389.401C193.347 389.495 193.093 389.704 193.017 390.483L191.269 408.411C191.193 409.191 191.402 409.444 192.193 409.695C192.262 409.731 192.328 409.796 192.306 410.027C192.283 410.258 192.235 410.311 192.119 410.299L187.749 409.876C187.619 409.863 187.595 409.804 187.618 409.573C187.64 409.342 187.704 409.289 187.794 409.269C188.571 409.199 188.83 408.931 188.903 408.181L189.739 399.608L185.844 399.23L185.008 407.803C184.935 408.554 185.138 408.866 185.888 409.084C185.972 409.122 186.025 409.185 186.003 409.416C185.98 409.647 185.945 409.702 185.815 409.689L181.444 409.265C181.328 409.253 181.291 409.191 181.313 408.961C181.336 408.731 181.414 408.68 181.489 408.658C182.313 408.563 182.567 408.354 182.643 407.575L184.39 389.647C184.466 388.868 184.257 388.614 183.467 388.363C183.397 388.327 183.331 388.262 183.353 388.031C183.376 387.8 183.426 387.746 183.541 387.757ZM228.615 388.021C228.73 388.01 228.779 388.063 228.802 388.293C228.828 388.553 228.759 388.59 228.689 388.626C227.844 388.912 227.616 389.111 227.693 389.889L229.478 407.865C229.555 408.643 229.818 408.793 230.703 408.909C230.778 408.93 230.857 408.981 230.88 409.211C230.902 409.441 230.864 409.503 230.75 409.515L226.147 409.972C226.032 409.983 225.984 409.931 225.961 409.7C225.938 409.469 225.989 409.406 226.073 409.368C226.918 409.08 227.146 408.883 227.069 408.104L225.284 390.128C225.207 389.35 224.944 389.201 224.059 389.085C223.969 389.065 223.909 389.042 223.883 388.782C223.86 388.551 223.883 388.491 224.013 388.478L228.615 388.021ZM238.537 386.407C238.637 386.393 238.697 386.502 238.775 386.841C239.065 388.47 239.594 390.943 240.014 392.554C240.022 392.611 240.04 392.639 240.048 392.696C240.069 392.84 240.048 392.9 239.985 392.968C239.96 393.001 239.917 393.007 239.903 393.009C239.816 393.021 239.757 392.912 239.689 392.747C238.857 390.61 237.921 388.663 237.115 388.251C236.832 388.115 236.134 388.156 235.646 388.226L238.278 406.69C238.392 407.494 238.684 407.687 239.598 407.732C239.674 407.751 239.754 407.798 239.787 408.027C239.82 408.257 239.785 408.32 239.671 408.336L235.032 408.998C234.917 409.013 234.867 408.962 234.834 408.733C234.802 408.504 234.85 408.438 234.932 408.397C235.798 408.098 236.009 407.833 235.894 407.029L233.263 388.565C232.803 388.631 232.109 388.788 231.875 388.997C231.256 389.584 230.87 391.719 230.658 394.034C230.64 394.213 230.613 394.333 230.527 394.345C230.513 394.347 230.47 394.354 230.437 394.33C230.357 394.282 230.32 394.228 230.299 394.085C230.291 394.028 230.301 393.997 230.294 393.94C230.233 392.279 230.049 389.756 229.887 388.109C229.852 387.762 229.893 387.639 229.994 387.625L230.023 387.621C231.877 387.474 232.673 387.507 234.309 387.273C235.946 387.04 236.701 386.786 238.508 386.411L238.537 386.407ZM170.567 396.672C171.591 390.227 174.281 385.778 177.675 386.315C178.392 386.428 179.473 386.923 180.049 387.455C180.203 387.596 180.49 387.729 180.719 387.765L180.82 387.782C180.905 387.796 180.983 387.778 181.04 387.787C181.182 387.81 181.23 387.876 181.195 388.194C181.061 389.494 180.805 392.126 180.682 393.545L180.665 393.66C180.642 393.803 180.622 393.829 180.547 393.846C180.514 393.87 180.484 393.867 180.47 393.865C180.369 393.849 180.363 393.701 180.353 393.582C180.074 389.426 179.204 387.967 177.544 387.704C175.796 387.427 174.162 390.223 173.297 395.666C172.05 403.514 173.221 407.136 174.983 407.416C176.129 407.597 176.612 407.232 176.853 405.714L177.719 400.272C177.837 399.527 177.634 399.231 176.989 398.952C176.864 398.903 176.854 398.783 176.886 398.583C176.922 398.354 176.984 398.335 177.141 398.36L181.023 398.973C181.181 398.998 181.219 399.035 181.183 399.263C181.151 399.463 181.118 399.577 180.971 399.583C180.385 399.666 180.1 399.885 179.982 400.629L178.976 406.96C178.939 407.189 178.916 407.245 178.755 407.425C177.799 408.448 176.125 409.005 174.32 408.719C170.668 408.141 169.538 403.146 170.567 396.672ZM250.484 384.319C250.597 384.296 250.651 384.344 250.698 384.571C250.744 384.799 250.684 384.87 250.619 384.913C249.858 385.246 249.678 385.519 249.835 386.286L253.423 403.927C253.579 404.694 253.853 404.875 254.683 404.883C254.76 404.897 254.842 404.94 254.889 405.168C254.935 405.394 254.904 405.46 254.791 405.484L250.486 406.362C250.358 406.388 250.318 406.337 250.272 406.11C250.226 405.883 250.271 405.814 250.351 405.768C251.075 405.473 251.244 405.142 251.094 404.404L249.378 395.965L245.543 396.749L247.259 405.186C247.409 405.925 247.694 406.163 248.476 406.151C248.567 406.162 248.635 406.207 248.681 406.433C248.728 406.661 248.711 406.723 248.584 406.751L244.279 407.628C244.165 407.651 244.111 407.603 244.065 407.376C244.019 407.149 244.078 407.078 244.143 407.035C244.904 406.702 245.085 406.429 244.929 405.662L241.339 388.02C241.184 387.253 240.91 387.072 240.081 387.064C240.004 387.05 239.921 387.008 239.875 386.78C239.829 386.553 239.859 386.486 239.972 386.463L244.276 385.585C244.404 385.559 244.444 385.611 244.49 385.837C244.537 386.064 244.491 386.133 244.412 386.179C243.688 386.474 243.52 386.806 243.67 387.543L245.264 395.384L249.099 394.603L247.505 386.761C247.355 386.022 247.069 385.784 246.287 385.796C246.196 385.785 246.128 385.74 246.082 385.512C246.036 385.285 246.052 385.224 246.18 385.198L250.484 384.319ZM166.552 384.761L171.084 385.703C171.197 385.726 171.228 385.792 171.18 386.019C171.127 386.275 171.05 386.287 170.973 386.301C170.08 386.323 169.803 386.444 169.644 387.21L165.968 404.898C165.81 405.665 166.015 405.884 166.826 406.26C166.891 406.303 166.95 406.376 166.903 406.603C166.856 406.83 166.801 406.878 166.688 406.854L162.156 405.913C162.043 405.89 162.012 405.823 162.059 405.596C162.106 405.37 162.175 405.325 162.266 405.314C163.16 405.292 163.437 405.172 163.596 404.406L167.272 386.717C167.431 385.951 167.225 385.731 166.415 385.355C166.336 385.309 166.285 385.268 166.338 385.012C166.384 384.786 166.424 384.734 166.552 384.761ZM156.247 382.219C158.186 382.711 159.507 382.927 161.418 383.412C163.567 383.957 164.417 386.268 163.59 389.529C162.856 392.426 161.76 394.153 160.142 394.401C160.057 396.444 160.08 400.011 160.233 402.534C160.354 404.419 160.64 404.882 161.273 405.042C161.371 405.067 161.406 405.106 161.349 405.331C161.292 405.556 161.25 405.605 161.158 405.612C160.701 405.645 160.265 405.594 159.759 405.465C158.551 405.159 157.81 404.074 157.747 402.143C157.684 399.972 157.742 397.023 157.827 394.8C157.85 394.062 156.892 393.638 156.882 393.633L154.694 402.265C154.508 402.996 154.663 403.336 155.372 403.665C155.448 403.715 155.49 403.785 155.433 404.009C155.376 404.234 155.319 404.279 155.208 404.251L150.95 403.171C150.823 403.139 150.809 403.076 150.866 402.852C150.923 402.627 150.995 402.585 151.086 402.578C151.915 402.609 152.197 402.44 152.389 401.681L156.808 384.248C157.008 383.461 156.84 383.178 156.083 382.806C156.006 382.756 155.956 382.714 156.02 382.461C156.077 382.237 156.162 382.198 156.247 382.219ZM263.332 380.538C263.429 380.51 263.504 380.611 263.627 380.936C264.137 382.51 264.997 384.888 265.631 386.424C265.647 386.48 265.669 386.505 265.685 386.561C265.725 386.7 265.713 386.763 265.659 386.838C265.639 386.874 265.598 386.886 265.584 386.89C265.501 386.914 265.426 386.815 265.337 386.66C264.222 384.656 263.028 382.854 262.173 382.555C261.874 382.459 261.189 382.595 260.715 382.731L265.836 400.657C266.059 401.437 266.373 401.589 267.285 401.509C267.363 401.518 267.449 401.554 267.512 401.777C267.576 402 267.55 402.067 267.439 402.099L262.933 403.382C262.822 403.414 262.764 403.371 262.7 403.148C262.636 402.925 262.677 402.852 262.753 402.801C263.569 402.387 263.743 402.098 263.52 401.317L258.399 383.389C257.953 383.516 257.286 383.768 257.083 384.005C256.549 384.67 256.458 386.837 256.563 389.159C256.569 389.338 256.559 389.462 256.475 389.485C256.461 389.489 256.419 389.501 256.383 389.481C256.298 389.446 256.254 389.397 256.214 389.257C256.199 389.203 256.204 389.171 256.188 389.115C255.902 387.478 255.376 385.005 254.992 383.396C254.91 383.057 254.934 382.93 255.032 382.902L255.06 382.894C256.877 382.497 257.67 382.421 259.26 381.968C260.85 381.515 261.564 381.161 263.303 380.545L263.332 380.538ZM274.623 376.927C274.732 376.89 274.792 376.93 274.869 377.149C274.945 377.368 274.896 377.447 274.838 377.498C274.129 377.93 273.985 378.225 274.243 378.964L280.184 395.97C280.442 396.71 280.738 396.853 281.562 396.75C281.64 396.754 281.728 396.785 281.804 397.003C281.881 397.222 281.859 397.292 281.75 397.33L277.6 398.777C277.477 398.82 277.431 398.773 277.354 398.554C277.278 398.336 277.313 398.262 277.386 398.206C278.064 397.816 278.187 397.465 277.938 396.753L275.097 388.621L271.4 389.91L274.241 398.043C274.49 398.754 274.805 398.952 275.578 398.836C275.67 398.834 275.744 398.871 275.82 399.089C275.897 399.308 275.889 399.374 275.765 399.416L271.617 400.863C271.507 400.901 271.447 400.86 271.37 400.641C271.294 400.423 271.343 400.343 271.402 400.293C272.111 399.861 272.254 399.566 271.996 398.826L266.055 381.82C265.797 381.08 265.501 380.938 264.677 381.041C264.599 381.037 264.511 381.006 264.435 380.787C264.358 380.568 264.38 380.499 264.49 380.46L268.639 379.013C268.762 378.97 268.808 379.017 268.885 379.236C268.962 379.455 268.926 379.528 268.853 379.585C268.175 379.974 268.052 380.325 268.301 381.037L270.941 388.594L274.638 387.305L271.999 379.748C271.75 379.036 271.434 378.838 270.661 378.954C270.569 378.956 270.495 378.919 270.42 378.701C270.343 378.482 270.35 378.417 270.474 378.374L274.623 376.927ZM141.88 383.335C143.006 379.982 145.048 378.099 147.422 378.897C148.096 379.123 148.873 379.873 149.253 380.185C149.297 380.23 149.375 380.256 149.441 380.279C149.612 380.336 149.829 380.347 149.979 380.336C150.055 380.331 150.117 380.322 150.156 380.335C150.248 380.365 150.238 380.484 150.159 380.764C149.769 382.101 149.069 384.71 148.736 386.097L148.69 386.236C148.662 386.318 148.631 386.368 148.569 386.377C148.52 386.391 148.485 386.411 148.459 386.402C148.38 386.376 148.39 386.257 148.419 386.083C148.901 382.941 148.169 380.524 147.034 380.143C145.542 379.642 144.513 380.52 143.969 382.141C143.388 383.872 143.696 385.231 145.238 387.156C146.985 389.303 147.438 392.024 146.22 395.652C144.947 399.446 142.857 401.251 140.126 400.334C139.136 400.002 138.066 399.03 137.558 398.094C137.436 397.931 137.425 397.745 137.486 397.521C137.806 396.435 138.548 393.655 138.865 392.141C138.884 392.086 138.889 392.026 138.898 392C138.944 391.863 139.003 391.821 139.088 391.788C139.123 391.769 139.149 391.778 139.175 391.787L139.188 391.792C139.268 391.818 139.266 391.91 139.237 392.083C138.726 396.407 139.618 398.695 140.66 399.045C142.02 399.501 143.164 398.633 143.782 396.791C144.409 394.922 144.191 393.165 142.891 391.26C141.197 388.825 140.764 386.661 141.88 383.335ZM282.568 373.312C282.662 373.273 282.827 373.33 282.985 373.672C283.483 374.721 284.733 377.28 285.388 378.515L285.432 378.623C285.488 378.756 285.485 378.789 285.43 378.843C285.401 378.887 285.385 378.926 285.358 378.937C285.278 378.97 285.207 378.873 285.113 378.724C283.448 376.149 281.784 375.051 280.606 375.54L279 376.207L282.402 384.405L282.642 384.303C282.991 384.159 283.539 383.932 283.635 383.861C283.841 383.713 283.971 383.344 284.001 382.923C284.026 382.19 283.813 380.394 283.62 379.626C283.567 379.461 283.585 379.391 283.638 379.368C283.665 379.357 283.692 379.346 283.73 379.362C283.846 379.377 283.908 379.413 283.975 379.574L284.008 379.655C284.355 380.83 285.084 382.851 285.439 383.708C285.851 384.699 286.781 386.637 287.31 387.611L287.344 387.691C287.41 387.852 287.392 387.921 287.321 388.014C287.294 388.025 287.292 388.058 287.278 388.064C287.198 388.097 287.138 388.027 287.046 387.877C286.614 387.178 285.479 385.733 284.976 385.314C284.693 385.086 284.331 384.891 284.081 384.931C283.923 384.966 283.04 385.301 282.813 385.396L286.026 393.137C286.304 393.806 286.623 393.895 286.817 393.908C287.024 393.917 287.394 393.825 287.756 393.675C288.305 393.447 288.86 393.122 289.023 392.835C289.586 391.847 289.72 390.316 289.301 387.569C289.288 387.386 289.272 387.268 289.339 387.24C289.364 387.229 289.402 387.243 289.454 387.254C289.556 387.274 289.608 387.284 289.664 387.418C289.686 387.471 289.684 387.504 289.706 387.557C290.064 388.948 290.976 391.866 291.353 392.966C291.493 393.379 291.473 393.482 291.353 393.532L291.339 393.538C289.454 394.289 288.566 394.532 287.777 394.86L283.748 396.534C283.628 396.584 283.578 396.541 283.489 396.327C283.4 396.112 283.432 396.037 283.502 395.977C284.184 395.504 284.309 395.201 284.009 394.478L277.115 377.869C276.804 377.119 276.501 376.993 275.685 377.144C275.593 377.151 275.529 377.146 275.429 376.905C275.34 376.691 275.344 376.626 275.465 376.576L280.297 374.569C281.073 374.247 281.776 373.861 282.528 373.328L282.568 373.312ZM130.152 373.053C130.242 372.84 130.305 372.804 130.412 372.848L134.584 374.604C134.69 374.649 134.707 374.72 134.617 374.933C134.516 375.173 134.451 375.177 134.36 375.17C133.439 375.004 133.2 375.124 132.885 375.872L126.076 392.075C125.795 392.743 125.907 393.073 126.19 393.224C126.284 393.263 126.393 393.342 126.527 393.398C127.008 393.601 127.727 393.84 128.213 393.73C129.34 393.481 131.15 391.567 132.533 389.664C132.629 389.547 132.703 389.483 132.77 389.511C132.81 389.528 132.839 389.573 132.881 389.622C132.923 389.671 132.941 389.741 132.885 389.875C132.862 389.929 132.84 389.982 132.804 390.03C131.974 391.443 130.36 394.571 129.846 395.645C129.676 395.986 129.608 396.081 129.505 396.062L129.443 396.042C128.385 395.565 126.746 394.749 126.01 394.439L122.041 392.768C121.934 392.723 121.916 392.653 122.005 392.439C122.095 392.225 122.184 392.2 122.262 392.201C123.159 392.389 123.422 392.249 123.726 391.527L130.693 374.949C131.008 374.201 130.939 373.952 130.162 373.404C130.093 373.344 130.051 373.294 130.152 373.053ZM157.402 391.581C157.174 392.481 157.834 392.888 158.55 393.069C159.562 393.326 160.692 391.756 161.405 388.945C162.039 386.443 161.659 384.581 160.493 384.285C160.085 384.181 159.425 384.074 159.305 384.073L157.402 391.581ZM121.503 368.9C121.603 368.691 121.667 368.658 121.771 368.708L125.847 370.67C125.951 370.72 125.965 370.792 125.864 371.001C125.751 371.236 125.686 371.238 125.595 371.226C124.684 371.012 124.44 371.12 124.087 371.851L116.45 387.681C116.135 388.334 116.23 388.67 116.505 388.835C116.596 388.879 116.702 388.962 116.833 389.025C117.303 389.252 118.008 389.527 118.499 389.442C119.638 389.25 121.544 387.432 123.023 385.601C123.125 385.489 123.202 385.43 123.268 385.46C123.307 385.479 123.334 385.525 123.374 385.577C123.414 385.628 123.427 385.699 123.364 385.83C123.338 385.882 123.313 385.934 123.275 385.98C122.373 387.349 120.6 390.39 120.032 391.436C119.816 391.814 119.752 391.88 119.623 391.818L119.609 391.812C118.576 391.282 116.981 390.385 116.263 390.039L112.383 388.169C112.279 388.119 112.265 388.048 112.366 387.839C112.466 387.63 112.557 387.61 112.635 387.615C113.52 387.849 113.791 387.72 114.131 387.015L121.944 370.819C122.297 370.088 122.241 369.836 121.494 369.25C121.428 369.186 121.389 369.134 121.503 368.9ZM301.378 364.295C301.493 364.236 301.545 364.274 301.64 364.454C301.734 364.634 301.736 364.73 301.66 364.835C301.282 365.427 301.291 366.6 301.716 367.786L308.025 385.273C308.148 385.601 307.945 385.838 307.753 385.939C307.599 386.02 307.287 386.05 307.048 385.718L297.211 372.271L302.85 387.98C302.973 388.309 302.77 388.546 302.578 388.647C302.436 388.721 302.152 388.77 301.886 388.418L289.766 372.238C289.34 371.675 288.94 371.753 288.37 371.79C288.28 371.803 288.214 371.74 288.133 371.585C288.025 371.381 288.011 371.29 288.1 371.243L291.838 369.288C291.94 369.235 292.007 369.298 292.087 369.452C292.194 369.658 292.208 369.716 292.107 369.835C291.713 370.301 291.51 370.539 291.685 370.873C291.712 370.925 291.726 370.95 291.766 370.995L300.047 382.376L295.967 371.023C295.871 370.746 295.751 370.482 295.63 370.251C295.145 369.325 294.527 368.896 293.713 368.995C293.622 369.009 293.555 368.946 293.474 368.792C293.367 368.586 293.352 368.495 293.442 368.448L297.012 366.581C297.101 366.534 297.18 366.591 297.261 366.745C297.369 366.95 297.383 367.008 297.281 367.126C296.913 367.548 296.736 367.804 296.911 368.138C296.938 368.189 296.952 368.216 296.992 368.26L305.221 379.668L301.033 368.044C300.951 367.826 300.869 367.606 300.775 367.426C300.304 366.527 299.677 366.298 298.95 366.253C298.795 366.236 298.729 366.206 298.635 366.026C298.527 365.82 298.552 365.774 298.681 365.707L301.378 364.295ZM116.501 365.966C116.784 365.627 116.958 365.522 117.173 365.641C117.389 365.759 117.383 365.954 117.25 366.41L111.534 385.522C111.313 386.26 111.473 386.876 111.924 387.288C112.012 387.369 112.01 387.434 111.912 387.612C111.801 387.815 111.734 387.878 111.632 387.822L107.574 385.603C107.473 385.547 107.476 385.449 107.559 385.297C107.671 385.094 107.738 385.032 107.931 385.071C108.522 385.229 108.782 385.205 108.977 384.849C109.018 384.773 109.048 384.69 109.09 384.582L110.481 380.22L107.263 378.46L105.296 380.854C105.106 381.08 104.954 381.296 104.843 381.499C104.454 382.211 104.536 382.818 105.195 383.608C105.269 383.714 105.28 383.786 105.169 383.99C105.058 384.193 104.992 384.191 104.852 384.114L101.915 382.506C101.762 382.423 101.737 382.376 101.848 382.173C101.959 381.97 102.012 381.933 102.154 381.945C103.049 381.971 103.782 381.446 104.624 380.419L116.501 365.966ZM139.583 377.673C139.89 376.86 140.499 376.439 140.96 376.612C141.433 376.792 141.598 377.504 141.291 378.318L141.239 378.454C140.764 379.546 139.213 382.586 138.364 384.219C138.244 384.452 138.166 384.455 138.017 384.399C137.868 384.342 137.812 384.29 137.877 384.035C138.319 382.249 139.154 378.97 139.531 377.81L139.583 377.673ZM305.019 361.364C307.953 359.578 311.978 362.423 315.525 368.241C319.071 374.06 319.739 378.915 316.805 380.701C313.883 382.48 309.86 379.666 306.314 373.848C302.768 368.029 302.097 363.143 305.019 361.364ZM314.146 370.879C310.539 364.962 307.092 361.731 305.508 362.696C304.208 363.487 304.723 366.365 307.653 371.2C307.668 371.225 307.698 371.273 307.714 371.298C311.124 376.894 314.732 380.333 316.292 379.384C317.566 378.607 317.073 375.682 314.146 370.879ZM96.3317 376.289C97.0997 375.059 98.3043 374.308 98.9313 374.7C99.5462 375.085 99.3985 376.497 98.6305 377.727C97.8776 378.932 96.6577 379.707 96.0426 379.323C95.4156 378.931 95.5787 377.494 96.3317 376.289ZM108.051 377.47L110.876 379.015L113.453 370.909L108.051 377.47ZM96.7174 353.733C96.8484 353.542 96.9173 353.518 97.0133 353.584L99.6862 355.405C99.866 355.527 99.8234 355.744 99.7565 356.048L96.2936 369.831L102.37 360.918C103.089 359.864 103.135 358.843 102.628 358.146C102.585 358.081 102.54 358.016 102.687 357.8C102.818 357.608 102.887 357.586 102.982 357.651L105.728 359.522C105.823 359.587 105.827 359.659 105.696 359.851C105.549 360.066 105.473 360.05 105.384 360.025C104.529 359.863 103.696 360.312 102.993 361.342L92.6696 376.484C92.3426 376.964 92.2319 377.099 92.1119 377.018C91.8369 376.83 91.7706 376.643 91.9596 375.929L96.6715 357.561L88.1764 370.019C87.4576 371.074 87.411 372.094 87.9069 372.783C87.9618 372.856 87.9889 372.944 87.859 373.136C87.728 373.327 87.6591 373.352 87.5641 373.286L84.8424 371.431C84.7465 371.366 84.7438 371.295 84.8746 371.103C85.0056 370.911 85.0975 370.903 85.1735 370.92C86.0364 371.122 86.8504 370.624 87.5533 369.594L96.7662 356.082C97.2202 354.953 96.9648 354.709 96.6578 354.078C96.6179 353.982 96.5706 353.949 96.7174 353.733ZM315.019 355.319C316.843 354.054 319.145 354.928 321.064 357.691C322.767 360.144 323.351 362.104 322.475 363.489C323.962 364.892 326.67 367.214 328.674 368.752C330.176 369.898 330.714 369.986 331.251 369.614C331.333 369.556 331.385 369.555 331.518 369.745C331.65 369.936 331.659 370 331.604 370.074C331.329 370.441 331.005 370.737 330.576 371.034C329.551 371.745 328.244 371.592 326.744 370.375C325.065 368.999 322.879 367.02 321.257 365.499C320.716 364.997 319.769 365.44 319.755 365.447L324.834 372.759C325.264 373.378 325.62 373.485 326.334 373.166C326.422 373.14 326.503 373.155 326.635 373.344C326.767 373.535 326.764 373.607 326.67 373.673L323.057 376.179C322.95 376.254 322.893 376.224 322.761 376.033C322.63 375.843 322.643 375.762 322.698 375.688C323.266 375.082 323.325 374.759 322.879 374.116L312.624 359.346C312.161 358.679 311.837 358.622 311.058 358.95C310.97 358.976 310.906 358.985 310.757 358.771C310.626 358.58 310.651 358.491 310.723 358.441C312.368 357.3 313.398 356.444 315.019 355.319ZM80.4449 340.555C80.5959 340.379 80.6743 340.333 80.7623 340.408L84.2653 343.407C84.3531 343.482 84.3303 343.577 84.2174 343.709C84.0665 343.884 83.9771 343.923 83.8073 343.854C83.2422 343.6 82.9379 343.531 82.6559 343.861C82.599 343.928 82.5543 344.003 82.5084 344.079L75.236 356.828L85.3737 348.515C85.5275 348.38 85.6627 348.267 85.7946 348.113C86.2845 347.54 86.4448 346.837 86.1168 345.793C86.0848 345.652 86.0714 345.6 86.2223 345.424C86.3722 345.249 86.4353 345.264 86.5573 345.368L89.0719 347.521C89.1019 347.521 89.1326 347.529 89.1676 347.556L93.316 350.746C93.982 351.258 94.6685 351.675 95.5045 352.062L95.5387 352.087C95.6195 352.15 95.6519 352.322 95.4332 352.629C94.7732 353.584 93.1792 355.944 92.4352 357.128L92.3639 357.22C92.276 357.335 92.2473 357.35 92.1725 357.329C92.1197 357.326 92.0793 357.331 92.0563 357.313C91.9873 357.26 92.0339 357.151 92.1168 356.995C93.5177 354.267 93.6403 352.276 92.6295 351.498L91.2496 350.438L85.8444 357.477L86.0514 357.635C86.3494 357.865 86.8213 358.228 86.9303 358.276C87.1613 358.38 87.5446 358.309 87.9235 358.125C88.5715 357.78 90.0225 356.701 90.5914 356.151C90.7082 356.022 90.7778 356.002 90.8239 356.037C90.8469 356.055 90.8706 356.073 90.8756 356.113C90.9205 356.221 90.9198 356.293 90.8141 356.431L90.7614 356.501C89.9155 357.386 88.5277 359.027 87.9625 359.763C87.3095 360.614 86.0933 362.388 85.5143 363.333L85.4615 363.402C85.3557 363.54 85.2854 363.558 85.1696 363.543C85.1466 363.526 85.1171 363.54 85.1061 363.531C85.0371 363.478 85.0671 363.391 85.15 363.236C85.541 362.512 86.2285 360.809 86.3405 360.163C86.3964 359.804 86.3841 359.392 86.2242 359.196C86.1152 359.076 85.3851 358.479 85.1901 358.328L80.0856 364.976C79.6438 365.551 79.7262 365.87 79.8112 366.045C79.9072 366.229 80.1711 366.506 80.4811 366.744C80.9521 367.107 81.5114 367.425 81.8424 367.423C82.9784 367.419 84.3727 366.771 86.5436 365.038C86.6954 364.936 86.7893 364.861 86.8463 364.906C86.8691 364.923 86.8753 364.964 86.8922 365.012C86.9252 365.111 86.9421 365.162 86.8541 365.277C86.8183 365.323 86.7894 365.337 86.7545 365.382C85.7276 366.386 83.6544 368.633 82.8903 369.509C82.6023 369.836 82.503 369.871 82.399 369.792L82.3883 369.783C80.7976 368.523 80.1433 367.875 79.4655 367.354L76.0065 364.695C75.9025 364.615 75.9153 364.552 76.0563 364.368C76.1971 364.184 76.279 364.173 76.3649 364.203C77.1148 364.56 77.4406 364.517 77.9176 363.896L88.8698 349.633C89.3508 349.006 89.315 348.677 88.817 348.077C88.8051 348.076 88.7958 348.076 88.7828 348.075C87.786 347.947 86.7971 348.323 85.9762 348.994L71.8209 360.624C71.416 360.963 70.9569 361.144 70.7369 360.956C70.5272 360.775 70.6712 360.25 70.8961 359.832L80.5221 342.34C80.819 341.792 80.6248 341.283 80.3668 340.871C80.3079 340.783 80.313 340.71 80.4449 340.555ZM323.23 349.403C323.321 349.332 323.391 349.351 323.534 349.534C323.694 349.74 323.666 349.798 323.616 349.875C323.019 350.595 323.008 350.862 323.506 351.503L334.304 365.371C334.75 365.942 335.093 366.006 335.363 365.834C335.443 365.771 335.564 365.714 335.678 365.625C336.09 365.305 336.65 364.796 336.793 364.318C337.127 363.213 336.343 360.698 335.359 358.561C335.304 358.42 335.285 358.325 335.342 358.28C335.376 358.254 335.428 358.25 335.492 358.237C335.556 358.224 335.626 358.243 335.715 358.358C335.75 358.404 335.786 358.449 335.81 358.503C336.636 359.918 338.575 362.857 339.26 363.831C339.504 364.191 339.535 364.278 339.422 364.367L339.409 364.376C338.476 365.064 336.964 366.095 336.335 366.585L332.935 369.229C332.844 369.3 332.774 369.28 332.631 369.097C332.49 368.914 332.51 368.823 332.55 368.756C333.152 368.068 333.159 367.769 332.677 367.151L321.63 352.962C321.131 352.322 320.88 352.259 320.023 352.669C319.936 352.699 319.873 352.712 319.713 352.506C319.571 352.323 319.568 352.25 319.66 352.179L323.23 349.403ZM319.188 358.957C317.716 356.837 316.06 355.902 315.071 356.588C314.725 356.828 314.211 357.255 314.131 357.346L318.548 363.708C319.077 364.469 319.817 364.239 320.425 363.817C321.283 363.221 320.842 361.339 319.188 358.957ZM330.889 342.941C333.283 340.857 337.38 342.405 342.046 347.765C346.77 353.191 347.549 357.243 345.068 359.403L341.406 362.59C341.319 362.666 341.248 362.652 341.095 362.477C340.943 362.302 340.949 362.219 340.995 362.14C341.504 361.466 341.526 361.139 341.012 360.548L329.203 346.985C328.67 346.372 328.342 346.349 327.605 346.76C327.52 346.795 327.458 346.812 327.286 346.615C327.115 346.418 327.15 346.349 327.216 346.292C328.724 344.979 329.49 344.159 330.889 342.941ZM340.609 349.978C336.19 344.902 332.547 343.035 331.367 344.063C331.042 344.347 330.565 344.911 330.557 344.92L342.463 358.594C342.976 359.185 343.636 359.148 344.194 358.664C345.101 357.874 345.675 355.797 340.609 349.978ZM78.3483 338.201C78.7083 337.942 78.9017 337.883 79.0817 338.051C79.2616 338.219 79.2064 338.407 78.9645 338.816L68.6969 355.919C68.2999 356.58 68.3023 357.217 68.6383 357.728C68.703 357.829 68.6852 357.891 68.5465 358.04C68.3885 358.209 68.3083 358.252 68.2233 358.173L64.8395 355.019C64.7545 354.94 64.782 354.846 64.901 354.718C65.0589 354.549 65.1391 354.505 65.317 353.692C65.85 354.891 66.1084 354.933 66.3854 354.636C66.4442 354.572 66.4933 354.499 66.5612 354.405L68.9879 350.523L66.3053 348.021L63.8053 349.853C63.5654 350.025 63.3666 350.197 63.2086 350.366C62.6556 350.96 62.584 351.568 63.027 352.497C63.072 352.618 63.0649 352.69 62.9069 352.86C62.7481 353.03 62.6859 353.011 62.5699 352.902L60.1198 350.618C59.992 350.499 59.9805 350.448 60.1383 350.279C60.2961 350.109 60.3571 350.086 60.4918 350.132C61.3518 350.379 62.1923 350.052 63.2623 349.265L78.3483 338.201ZM227.987 2.05521C239.987 -0.444862 252.435 -0.915011 263.987 2.05521L266.987 4.05521C267.419 12.0924 266.38 20.0489 263.737 27.6372C262.876 30.4115 262.461 33.1185 262.049 35.9927C261.265 41.0952 259.856 45.6044 257.992 50.4068C257.381 51.9786 257.053 53.6401 256.73 55.274C256.51 56.3931 256.291 57.4994 255.987 58.5552C255.531 59.8317 255.109 61.1921 254.668 62.6109C252.691 68.9708 250.345 76.5144 242.987 83.0552C242.487 84.0551 242.987 85.5551 243.987 86.0552C245.572 85.9498 246.423 85.8927 247.236 85.6861C248.177 85.4467 249.067 85.0063 250.987 84.0552C252.353 82.5123 253.058 81.7151 253.683 80.8589C254.349 79.9446 254.924 78.961 256.111 76.9312L258.717 72.8326C259.971 70.7458 261.205 68.6451 262.35 66.4966C263.983 63.4494 266.147 61.5324 268.987 59.5552C269.469 59.2537 269.908 58.9738 270.318 58.7124C273.308 56.8066 274.771 55.8742 280.487 54.5552C285.348 54.0838 287.848 52.1553 290.897 49.8023C291.689 49.1913 292.519 48.5501 293.436 47.8999C294.108 47.5117 294.784 47.1225 295.464 46.7349C297.018 45.9937 297.887 45.5796 298.801 45.3482C299.96 45.0552 301.193 45.0552 303.987 45.0552L306.799 48.3677C309.736 52.2205 309.736 52.2206 313.799 54.0552L314.322 54.2242C320.051 56.0808 321.244 56.4673 329.874 53.5083C333.048 53.0368 335.785 52.7646 338.987 53.0552C340.57 53.8477 341.618 54.8584 342.711 55.9126C344.214 57.3635 345.801 58.8969 348.987 60.0552L350.987 61.0552L351.487 64.0552C351.487 64.3331 351.485 64.5869 351.484 64.8199C351.475 66.262 351.471 66.9049 351.862 67.5552C352.072 67.905 352.693 68.3776 353.369 68.8931C353.887 69.2879 354.438 69.7093 354.862 70.1177L356.987 72.0552C358.338 74.0429 359.673 76.0418 360.987 78.0552L362.987 80.0552L366.487 80.3677L369.987 81.0552C370.5 81.4999 371.25 82.3718 371.501 82.9995L375.987 88.0552L377.737 90.9927L379.987 94.0552C382.646 95.0746 385.313 96.0724 387.987 97.0552C391.149 99.1688 393.326 101.25 395.987 104.055C395.695 108.441 393.695 112.099 391.627 115.881L391.621 115.893C391.411 116.277 391.196 116.668 390.987 117.055L388.987 119.055L388.424 123.68C387.831 126.749 387.217 128.734 385.385 131.282C379.888 136.614 373.69 139.003 366.585 141.614C361.826 143.521 358.15 146.081 353.987 149.055L350.924 150.555C349.48 151.215 348.687 151.577 347.978 152.06C347.115 152.648 346.375 153.416 344.737 155.118C341.702 157.493 339.762 158.093 335.893 158.747C332.757 159.039 329.621 159.314 326.483 159.575C318.774 160.398 312.47 162.55 305.862 166.555C302.708 168.976 302.708 168.976 300.987 173.055C300.38 175.31 300.098 176.359 299.987 177.425C299.89 178.353 299.987 179.555 300.487 181.055C301.232 180.896 301.543 180.781 301.854 180.667C302.008 180.61 302.164 180.553 302.371 180.491C303.223 180.235 304.046 179.883 305.987 179.055C308.997 179.277 311.999 179.623 314.987 180.055L317.471 180.176C322.97 180.458 327.214 181.526 331.948 184.395C335.338 187.156 337.388 190.639 339.562 194.334L339.803 194.743L339.987 195.055L342.987 199.055C343.747 201.197 344.43 203.368 345.049 205.555C346.134 209.354 347.209 212.5 348.987 216.055C349.518 219.872 349.874 223.687 350.229 227.524C350.473 229.414 350.588 230.301 350.98 231.043C351.071 231.217 351.146 231.403 351.225 231.602C351.445 232.154 351.704 232.803 352.487 233.555C352.817 233.846 353.261 234.188 353.709 234.533L353.719 234.541L354.987 235.555C355.108 235.864 355.227 236.165 355.344 236.46C356.379 239.076 357.234 241.236 357.987 244.055L358.721 246.761C358.959 247.75 359.108 248.373 359.234 249.001C359.286 249.259 359.358 249.511 359.437 249.786C359.683 250.645 359.997 251.742 359.986 254.053L359.234 255.223L358.721 256C358.233 256.927 357.566 256.995 357.06 257.047L356.987 257.055L353.424 257.43L349.987 258.055L348.237 260.305L347.871 261.894L347.867 261.907C347.699 262.494 347.529 263.084 347.487 263.555C349.698 266.32 352.535 268.456 355.361 270.583L355.733 270.864L355.987 271.055C357.848 272.758 358.861 274.628 359.851 276.456C360.724 278.069 361.58 279.649 362.987 281.055L364.987 284.055C366.259 289.271 366.709 294.728 365.987 300.055C364.906 302.724 363.616 305.172 362.233 307.696C358.95 313.911 358.727 320.157 358.858 327.02C359.127 333.37 359.496 339.142 361.987 345.058C362.227 346.379 362.123 347.39 362.038 348.214C361.985 348.722 361.939 349.16 361.987 349.555C362.033 349.938 362.182 350.276 362.352 350.661C362.609 351.243 362.914 351.934 362.986 353.054C362.86 353.244 362.749 353.57 362.634 353.935L361.987 355.555C361.737 355.805 361.737 356.055 361.737 356.305L361.487 357.055L288.001 277.654V323H281.501L206.001 241C205.991 240.99 204.981 240 201.001 240V236H247.001V240C239.046 240 239.001 243.955 239.001 244L281.001 289V270.09L189.001 170.686V208H184.001C184 207.899 183.945 188 162.001 188V219C162.001 219 162.001 224.836 172.001 225C202.5 224.499 208.001 203 208.001 203H214.001L208.001 230H129.001V226C129.059 225.993 138.001 224.98 138.001 219V156C138 147.027 129.054 147 129.001 147V143H163.376L112.987 88.5552C107.869 83.0827 102.786 77.5805 97.7291 72.0513C94.6548 68.6924 91.5726 65.341 88.4869 61.9927L85.5182 58.7701C83.7103 56.8311 81.8615 54.9298 79.9869 53.0552C78.3276 51.396 78.9661 50.8359 80.3942 49.5826C80.5796 49.4199 80.7783 49.2452 80.9869 49.0552C82.3212 47.8407 83.0357 47.1907 83.776 46.5718C84.6285 45.8591 85.5151 45.1871 87.4235 43.7427L90.983 41.0044C91.4712 40.6876 91.5959 40.5998 91.7184 40.5132L92.4869 39.9995C93.4868 39.4997 94.4869 39.4998 94.9869 39.9995C94.9869 42.9972 95.2985 44.2085 95.6422 45.5454C95.757 45.9922 95.8752 46.4531 95.9869 46.9995C99.5271 61.3539 112.583 75.3206 122.608 85.7935C126.335 89.2314 130.09 92.5563 134.987 94.0552C139.863 94.1835 143.175 93.8119 147.643 91.9458C151.924 89.4444 154.447 86.9852 156.948 82.6763C159.966 75.7679 161.787 69.4018 161.401 61.8404C160.978 58.999 160.296 56.4141 159.424 53.6792C158.537 50.8244 158.198 49.7318 158.117 48.6206C158.066 47.9323 158.114 47.2364 158.194 46.1099C158.494 44.954 159.231 43.7579 160.038 42.4468C160.934 40.9923 161.915 39.3958 162.487 37.5552C163.386 36.4763 164.497 34.9395 165.753 33.2007C167.989 30.1045 170.69 26.3669 173.487 23.4302C179.415 17.7985 180.987 16.5551 192.987 12.5552C193.536 12.3343 194.114 12.0789 194.697 11.8218L196.487 11.0552C198.265 10.3669 199.703 9.72703 200.984 9.15775C205.193 7.28661 207.703 6.1719 214.987 6.55521C218.626 6.12521 224.771 3.76705 227.987 2.05521ZM347.966 349.939C348.494 349.442 349.823 349.943 350.817 350.999C351.791 352.033 352.232 353.411 351.704 353.908C351.166 354.414 349.817 353.892 348.843 352.858C347.849 351.802 347.429 350.446 347.966 349.939ZM67.3141 347.256L69.6686 349.453L74.1725 342.236L67.3141 347.256ZM68.2438 328.334C68.4107 328.173 68.4731 328.154 68.5631 328.248L72.1949 332.014C72.7789 332.62 73.3957 333.133 74.1656 333.639L74.1949 333.671C74.2649 333.744 74.2724 333.919 74.0114 334.191C73.2163 335.038 71.2895 337.135 70.3776 338.195L70.2946 338.275C70.1898 338.376 70.1582 338.385 70.0875 338.353C70.0366 338.342 69.9953 338.341 69.9752 338.321C69.9142 338.258 69.9786 338.156 70.0836 338.014C71.8733 335.525 72.2889 333.575 71.4039 332.657L70.1969 331.405L63.8053 337.562L63.986 337.75C64.2469 338.02 64.6602 338.448 64.7614 338.511C64.9743 338.648 65.3642 338.635 65.7662 338.509C66.4582 338.265 68.0527 337.414 68.6979 336.954C68.8327 336.844 68.9049 336.835 68.9449 336.876C68.9659 336.897 68.986 336.918 68.985 336.959C69.014 337.072 69.0022 337.143 68.8776 337.264L68.8141 337.325C67.8461 338.077 66.2302 339.491 65.5612 340.135C64.7892 340.88 63.323 342.452 62.61 343.3L62.5475 343.362C62.4225 343.483 62.3499 343.491 62.2379 343.459C62.2181 343.438 62.1876 343.447 62.1774 343.437C62.1164 343.374 62.1594 343.293 62.2643 343.152C62.7583 342.494 63.6911 340.912 63.8971 340.29C64.006 339.944 64.0552 339.535 63.9264 339.317C63.8364 339.182 63.2029 338.483 63.0319 338.305L56.9948 344.121C56.4734 344.623 56.5081 344.952 56.566 345.138C56.634 345.334 56.8536 345.645 57.1256 345.927C57.5384 346.355 58.0427 346.754 58.3698 346.801C59.4948 346.965 60.9706 346.53 63.3766 345.139C63.541 345.06 63.6449 345.002 63.6949 345.053C63.7149 345.074 63.7143 345.116 63.7242 345.167C63.7422 345.27 63.7521 345.32 63.6471 345.421C63.6051 345.461 63.5748 345.471 63.5328 345.511C62.3678 346.351 59.9842 348.266 59.0983 349.019C58.7654 349.3 58.6619 349.318 58.5709 349.224L58.5612 349.213C57.1733 347.733 56.6229 346.994 56.0299 346.379L53.0016 343.238C52.9116 343.144 52.9322 343.082 53.1002 342.921C53.2671 342.761 53.3493 342.762 53.4303 342.804C54.1193 343.268 54.4474 343.275 55.0114 342.732L67.9625 330.256C68.5473 329.693 68.5528 329.365 68.1149 328.66C68.0749 328.577 68.056 328.514 68.2438 328.334ZM60.9108 319.911C61.0856 319.759 61.1591 319.754 61.235 319.841L64.1071 323.164C64.1931 323.263 64.1678 323.322 63.9918 323.473C63.8168 323.625 63.7349 323.62 63.6559 323.573C63.044 323.087 62.673 323.1 62.1031 323.593L56.0514 328.828L58.611 331.788L64.6637 326.554C65.2332 326.061 65.3006 325.697 64.9078 325.021C64.8728 324.936 64.8793 324.854 65.0543 324.702C65.2303 324.551 65.2925 324.534 65.3785 324.632L68.2516 327.956C68.3264 328.042 68.311 328.113 68.1364 328.265C67.9605 328.417 67.8694 328.401 67.7994 328.365C67.1374 327.865 66.8104 327.841 66.2184 328.353L52.6002 340.127C52.0082 340.639 51.9844 340.967 52.3834 341.695C52.4093 341.769 52.4117 341.861 52.2369 342.012C52.0621 342.164 51.9896 342.169 51.9137 342.082L49.0416 338.759C48.9557 338.66 48.9801 338.602 49.1559 338.45C49.3305 338.298 49.413 338.303 49.4918 338.35C50.1038 338.836 50.4755 338.823 51.0455 338.33L57.5582 332.698L54.9987 329.738L48.485 335.37C47.9151 335.863 47.8469 336.228 48.2399 336.904C48.2748 336.988 48.2691 337.069 48.0944 337.221C47.9184 337.373 47.8561 337.389 47.7701 337.291L44.8981 333.968C44.8223 333.88 44.8375 333.81 45.0133 333.658C45.1882 333.507 45.2793 333.523 45.3492 333.558C46.0112 334.059 46.3383 334.083 46.9303 333.571L60.5485 321.795C61.1402 321.284 61.164 320.957 60.7653 320.229C60.7393 320.155 60.7361 320.063 60.9108 319.911ZM49.1891 312.949C52.0309 310.839 54.7839 310.461 56.2789 312.473C56.7029 313.044 56.9115 314.105 57.0465 314.578C57.0565 314.64 57.1052 314.706 57.1471 314.762C57.2551 314.907 57.4263 315.041 57.5563 315.118C57.62 315.157 57.6766 315.185 57.7018 315.217C57.7598 315.295 57.6835 315.388 57.4596 315.572C56.3746 316.447 54.3068 318.188 53.2408 319.136L53.1246 319.222C53.0546 319.274 53 319.299 52.943 319.271C52.8953 319.255 52.8557 319.25 52.8385 319.228C52.7885 319.16 52.8651 319.069 52.9879 318.943C55.1796 316.639 55.9621 314.237 55.2487 313.275C54.3097 312.011 52.9624 312.143 51.5885 313.163C50.1215 314.253 49.5973 315.543 49.7633 318.004C49.9703 320.765 48.7864 323.259 45.7115 325.542C42.4976 327.928 39.7479 328.216 38.0289 325.9C37.4059 325.061 37.0828 323.652 37.2008 322.593C37.1939 322.39 37.2924 322.23 37.4703 322.082C38.3544 321.374 40.5524 319.516 41.6793 318.455C41.725 318.42 41.7627 318.374 41.7867 318.357C41.9027 318.27 41.9752 318.269 42.0631 318.291C42.1031 318.296 42.1194 318.317 42.1364 318.34L42.1442 318.352C42.1938 318.419 42.141 318.493 42.0182 318.619C39.1252 321.877 38.5497 324.265 39.2057 325.149C40.0617 326.301 41.4974 326.24 43.0582 325.082C44.6422 323.906 45.4659 322.34 45.4879 320.034C45.4889 317.066 46.3702 315.041 49.1891 312.949ZM180.001 236C180.097 236 209 236.038 209.001 259C209.001 273.936 197.001 279.999 192.001 280C191.005 280 191.991 280.99 192.001 281C192.001 281 224.999 316.998 226.001 318C227.001 319 231.001 319 231.001 319V323H198.001L162.001 284C162.001 284 162.001 300.999 162.001 310C162.001 319 172.001 319 172.001 319V323H129.001V319C129.055 318.999 138.001 318.972 138.001 310V249C138 240.027 129.054 240 129.001 240V236H180.001ZM49.8629 304.773C50.0549 304.642 50.119 304.633 50.192 304.741L52.7985 308.565C52.8632 308.661 52.8398 308.73 52.6481 308.86C52.4323 309.007 52.3683 308.963 52.3033 308.919C51.6454 308.314 51.3624 308.209 50.7155 308.65L35.778 318.816C35.1314 319.257 35.1261 319.559 35.4479 320.391C35.4649 320.467 35.4582 320.561 35.2662 320.692C35.0743 320.822 35.0021 320.818 34.9371 320.722L32.3317 316.899C32.2667 316.803 32.2894 316.734 32.4811 316.604C32.6728 316.473 32.7529 316.489 32.8258 316.543C33.4838 317.148 33.7677 317.255 34.4147 316.814L49.3512 306.648C49.9981 306.207 50.0032 305.905 49.6813 305.072C49.6563 304.984 49.6473 304.92 49.8629 304.773ZM43.566 294.698C43.7628 294.577 43.8352 294.583 43.8961 294.681L46.1949 298.422C46.2639 298.533 46.2289 298.588 46.0319 298.71C45.834 298.831 45.7542 298.812 45.6842 298.753C45.1583 298.176 44.7901 298.13 44.1471 298.525L37.3278 302.718L39.3776 306.051L46.1959 301.859C46.8389 301.464 46.9642 301.113 46.6862 300.383C46.6653 300.294 46.6847 300.214 46.8824 300.092C47.0792 299.971 47.1446 299.966 47.2125 300.077L49.5114 303.818C49.5721 303.917 49.5451 303.984 49.3483 304.106C49.1508 304.227 49.0636 304.196 49.0006 304.149C48.4276 303.549 48.108 303.472 47.441 303.883L32.0973 313.319C31.4304 313.729 31.3535 314.048 31.6305 314.83C31.6435 314.907 31.6322 314.999 31.4342 315.121C31.2362 315.243 31.1641 315.235 31.1041 315.136L28.8043 311.396C28.7363 311.285 28.7704 311.23 28.9684 311.109C29.1664 310.987 29.245 311.006 29.316 311.065C29.841 311.643 30.2102 311.688 30.8522 311.293L38.191 306.781L36.1422 303.448L28.8033 307.96C28.1613 308.355 28.0351 308.705 28.3141 309.435C28.3349 309.525 28.3155 309.603 28.1178 309.725C27.9201 309.846 27.8566 309.852 27.7887 309.742L25.4879 306.001C25.4281 305.903 25.4542 305.834 25.652 305.713C25.85 305.591 25.9376 305.622 26.0006 305.669C26.5735 306.269 26.8924 306.346 27.5592 305.936L42.903 296.501C43.57 296.091 43.6457 295.771 43.3698 294.989C43.3558 294.912 43.3682 294.82 43.566 294.698ZM36.4596 281.087C36.6662 280.983 36.7387 280.995 36.7906 281.098L38.2506 283.981C38.3481 284.175 38.2074 284.345 38.0006 284.579L28.3141 294.98L37.9371 290.102C39.0751 289.525 39.6096 288.652 39.5016 287.797C39.4946 287.72 39.4876 287.643 39.7203 287.525C39.9273 287.42 39.9984 287.433 40.0514 287.536L41.5504 290.496C41.6028 290.599 40.6716 290.664 41.3639 290.769C41.1316 290.887 41.0723 290.836 41.0074 290.771C40.3374 290.218 39.39 290.21 38.278 290.774L21.9293 299.062C21.4124 299.324 21.2502 299.389 21.1842 299.259C21.0344 298.963 21.0653 298.767 21.5748 298.234L34.5699 284.418L21.1178 291.236C19.9801 291.813 19.4465 292.685 19.5485 293.527C19.5614 293.618 19.5422 293.709 19.3356 293.813C19.1296 293.918 19.0575 293.905 19.0055 293.801L17.5182 290.868C17.4662 290.765 17.4987 290.699 17.7057 290.594C17.9123 290.49 17.9963 290.528 18.0553 290.58C18.7132 291.173 19.6661 291.128 20.778 290.564L35.3668 283.168C36.3097 282.398 36.2049 282.062 36.2399 281.362C36.2529 281.258 36.2266 281.205 36.4596 281.087ZM34.2194 275.998C34.4313 275.903 34.4964 275.905 34.5494 276.024L36.4528 280.24C36.5007 280.345 36.4662 280.409 36.2545 280.503C36.0175 280.611 35.9599 280.557 35.9039 280.503C35.3611 279.794 35.1011 279.641 34.3873 279.963L17.9215 287.4C17.2075 287.722 17.1499 288.018 17.3229 288.895C17.3268 288.973 17.3039 289.063 17.0924 289.158C16.8814 289.254 16.8103 289.237 16.7623 289.131L14.858 284.917C14.8111 284.811 14.8464 284.747 15.0573 284.652C15.2692 284.556 15.3449 284.585 15.4069 284.653C15.9509 285.362 16.2114 285.515 16.9244 285.193L33.3912 277.756C34.1041 277.433 34.1609 277.137 33.9879 276.26C33.979 276.169 33.9817 276.104 34.2194 275.998ZM24.8131 266.357C28.116 265.09 30.8691 265.465 31.7653 267.803C32.0193 268.466 31.9342 269.542 31.9362 270.033C31.9292 270.096 31.959 270.174 31.984 270.239C32.049 270.408 32.1769 270.582 32.2809 270.691C32.3329 270.746 32.3801 270.787 32.3951 270.826C32.4301 270.917 32.332 270.984 32.066 271.1C30.7861 271.651 28.3285 272.774 27.0465 273.399L26.9098 273.451C26.8291 273.482 26.7702 273.49 26.7233 273.449C26.6813 273.42 26.6444 273.403 26.6344 273.377C26.6045 273.3 26.7023 273.233 26.8551 273.145C29.5851 271.516 30.9853 269.414 30.5573 268.296C29.9942 266.829 28.662 266.595 27.0641 267.207C25.3582 267.862 24.5075 268.963 24.0035 271.376C23.4595 274.089 21.6469 276.17 18.0729 277.541C14.3362 278.973 11.6137 278.512 10.5826 275.823C10.2096 274.849 10.2774 273.406 10.6754 272.419C10.7244 272.222 10.8611 272.095 11.0729 271.999C12.1139 271.555 14.7302 270.357 16.1012 269.637C16.155 269.617 16.2041 269.584 16.2311 269.574C16.3661 269.522 16.4363 269.54 16.5153 269.584C16.5523 269.6 16.5619 269.626 16.5719 269.652L16.5768 269.665C16.6058 269.743 16.5352 269.799 16.3834 269.887C12.7214 272.245 11.5236 274.389 11.9176 275.416C12.4296 276.753 13.8282 277.081 15.6432 276.385C17.4841 275.679 18.7004 274.393 19.3424 272.18C20.1424 269.325 21.5364 267.613 24.8131 266.357ZM184.001 260C184 239.551 169.075 240.992 169.001 241C169.001 241 162.001 241 162.001 245V278C162.077 278.008 184.001 280.464 184.001 260ZM27.9684 261.744C28.7903 261.46 29.5037 261.658 29.6647 262.125C29.8306 262.604 29.387 263.186 28.5651 263.471L28.4283 263.519C27.2863 263.853 23.9558 264.606 22.1588 264.998C21.9032 265.054 21.8524 264.995 21.7994 264.845C21.7475 264.694 21.7512 264.616 21.9879 264.503C23.6429 263.7 26.6997 262.245 27.8317 261.792L27.9684 261.744ZM25.0338 249.956C25.2838 249.881 25.333 249.942 25.358 250.026C25.934 251.941 26.367 252.977 26.902 254.752C27.817 257.792 24.7203 260.886 17.9147 262.929C11.0257 264.997 7.01111 264.038 6.06311 260.887L4.6637 256.238C4.6307 256.127 4.67318 256.068 4.89514 256.001C5.11678 255.935 5.18982 255.974 5.2428 256.048C5.6468 256.789 5.93616 256.944 6.68616 256.719L23.9088 251.549C24.6857 251.316 24.8421 251.028 24.7701 250.187C24.7731 250.095 24.7842 250.031 25.0338 249.956ZM7.87268 258.846C7.12268 259.071 6.88331 259.688 7.09631 260.396C7.44358 261.548 9.101 262.926 16.4889 260.709C22.9329 258.775 26.1333 256.224 25.6823 254.725C25.5572 254.309 25.233 253.634 25.233 253.634L7.87268 258.846ZM12.278 241.877C18.906 240.294 23.7623 241.162 24.5553 244.49C25.3511 247.832 21.4049 250.787 14.777 252.37C8.14911 253.953 3.32394 253.092 2.52795 249.751C1.73511 246.423 5.65019 243.46 12.278 241.877ZM23.1383 244.545C22.7852 243.065 19.8881 242.668 14.3854 243.967C14.3574 243.974 14.3011 243.988 14.2721 243.995C7.89829 245.517 3.51529 247.89 3.93909 249.667C4.28508 251.12 7.21916 251.552 12.691 250.245C19.432 248.635 23.5683 246.35 23.1383 244.545ZM10.2281 230.437C16.6549 229.297 21.7373 230.382 22.3356 233.765C22.4616 234.479 22.3458 235.662 22.0319 236.38C21.9479 236.572 21.9157 236.888 21.9557 237.116L21.9733 237.215C21.9883 237.3 22.0296 237.367 22.0397 237.424C22.0657 237.567 22.0183 237.635 21.7067 237.705C20.4337 238.004 17.8621 238.621 16.4801 238.969L16.3658 238.99C16.2233 239.016 16.1919 239.006 16.151 238.94C16.117 238.917 16.112 238.888 16.109 238.874C16.0921 238.774 16.2305 238.719 16.3395 238.67C20.1763 237.048 21.2721 235.749 20.9791 234.094C20.6708 232.353 17.4956 231.724 12.0699 232.686C4.24421 234.074 1.20231 236.365 1.51331 238.121C1.71431 239.262 2.21621 239.6 3.7301 239.332L9.15686 238.37C9.89886 238.238 10.1136 237.95 10.1666 237.248C10.1726 237.115 10.2812 237.066 10.4811 237.031C10.7101 236.99 10.748 237.042 10.776 237.199L11.4606 241.067C11.4885 241.224 11.4667 241.272 11.2379 241.313C11.0381 241.348 10.9218 241.353 10.8678 241.215C10.5979 240.69 10.2981 240.493 9.5553 240.625L3.2428 241.744C3.01515 241.784 2.95491 241.78 2.73206 241.687C1.45406 241.119 0.38111 239.718 0.0631104 237.92C-0.579705 234.282 3.77334 231.581 10.2281 230.437ZM111.001 194V156C111 147.024 99.0642 147 99.0006 147V143H127.001V147C127.001 147 118.001 147 118.001 156V230H113.001L52.0006 164.054V219C52.0006 226 64.0006 226 64.0006 226V230H33.0006V226C33.0634 225.999 45.0008 225.981 45.0133 219C45.0258 211.998 45.0133 156.5 45.0133 156.5L39.0006 150C38.9844 149.983 35.9924 147 33.0006 147V143H64.0006L111.001 194ZM168.008 148.005C165.222 148.257 162.001 149.162 162.001 152V183C179.589 182.999 183.113 170.216 183.82 165.089L168.008 148.005Z" fill="#CD0019"/>
<defs>
<linearGradient id="paint0_linear_1_10" x1="89.5" y1="107" x2="316.5" y2="334" gradientUnits="userSpaceOnUse">
<stop stop-color="#FEFECB"/>
<stop offset="0.182692" stop-color="#F5F604"/>
<stop offset="0.2857" stop-color="#89D0DF"/>
<stop offset="0.4375" stop-color="#B925A7"/>
<stop offset="0.471154" stop-color="#FEFECB"/>
<stop offset="0.644231" stop-color="#F5F604"/>
<stop offset="0.8125" stop-color="#89D0DF"/>
<stop offset="1" stop-color="#B925A7"/>
</linearGradient>
<linearGradient id="paint1_linear_1_10" x1="214" y1="364" x2="244" y2="424" gradientUnits="userSpaceOnUse">
<stop stop-color="#FEFECB"/>
<stop offset="0.331731" stop-color="#F5F604"/>
<stop offset="0.668269" stop-color="#89D0DF"/>
<stop offset="1" stop-color="#B925A7"/>
</linearGradient>
</defs>
</svg>
