<svg width="604" height="436" viewBox="0 0 604 436" fill="none" xmlns="http://www.w3.org/2000/svg">
<path d="M421.138 0C567.427 5.04088e-05 604 144.979 604 203.48C604 225.314 601.783 248.5 595.829 269.612C603.792 195.5 574.5 172 570 170C572.5 183.5 566.639 227.921 552 250.5C552.127 250.672 553.615 253.423 553.741 253.595C559.238 261.036 564.614 268.313 564.614 293.775C564.614 344.612 518.853 368.778 518.793 368.81C514.999 370.733 516 370.5 512 372C519.033 366.382 524.44 355 516 355C506.154 355 489.5 375 503 375.644C489.696 379.871 465.681 386.234 449.271 387.837L440.831 378.983C437.179 379.35 428.201 378.465 428.171 378.462C428.171 378.462 427.896 382.895 427.988 389.083C428.162 400.682 433.016 423.185 440 429.5C437.507 434.925 434.517 435.497 434.5 435.5C434.5 435.5 428.171 436.212 423.951 434.94C417.969 433.859 418.092 424.498 418.263 411.552C418.293 409.276 418.324 406.889 418.324 404.418C418.324 398.608 418.512 393.426 418.755 389.148C419.203 381.254 419.842 376.439 419.842 376.439C412.002 373.798 405.665 369.198 405.665 362.45C405.665 342.791 425.482 334.027 435.436 329.626C436.733 329.052 437.862 328.553 438.759 328.113C386.462 328.113 360.652 352.276 360.652 366.266C360.652 379.63 396.596 383.708 407.167 384.908C407.662 384.964 408.101 385.014 408.479 385.059C394.412 386.614 385.972 386.614 373.312 385.059C338.247 378.592 311.643 364.865 291.728 346.684C290.093 345.191 288.503 343.67 286.958 342.119C283.707 338.422 279.853 332.668 279.067 325.569C279.067 297.591 322.673 257.623 421.138 257.623H438.759C468.643 300.16 491.47 330.656 491.47 330.656C491.463 330.605 490.079 319.191 497.096 310.309C498.629 305.458 498.074 300.229 497.479 294.623C496.981 289.941 496.456 284.995 497.096 279.786C497.259 278.52 497.442 277.222 497.626 275.914C498.878 267.009 500.19 257.663 495.987 255H407.046V137H455.154C454.99 136.408 454.901 136.091 454.897 136.078C454.897 136.078 453.491 128.448 454.897 122.089C461.931 120.817 470 121.5 470 121.5C470.033 121.524 486.569 133.541 495 131C497.131 130.358 503.189 128.014 508.5 126.5C516.054 124.346 517 123 525.5 117.5C531.911 114.782 539.361 114.476 541 112.5C541 109.834 538 105.5 532 102C530.212 99.2689 532.5 97.5 531 93.5C526.5 90 523.576 85.5101 522.415 83.9355C522.415 80.1205 522.415 77.5769 521.009 73.7617C516.789 68.6747 501.315 54.6854 494.282 50.8701C487.249 49.5984 475.996 48.3272 466.15 48.3271C462.813 51.3441 460.109 54.9332 457.588 58.2803C454.795 61.9877 452.227 65.3983 449.271 67.4033C445.613 66.7419 441.947 65.368 441.5 64.5C441.088 63.6991 442.949 63.4557 444.5 61C444.697 60.2876 445.445 59.5946 445.646 58.8428C446.879 54.2263 448.258 49.0641 450.677 45.7832C451.585 45.2357 452.82 44.5114 454.226 43.6865C459.35 40.6792 466.755 36.3341 468.963 34.3379C465.131 19.3258 440.424 16.896 427.486 15.624C426.176 15.4952 424.986 15.3777 423.951 15.2607C412.698 16.5325 407.071 19.076 398.632 23.6416C392.629 29.4398 390.183 33.6879 388.26 37.0303C387.479 38.3868 386.784 39.5949 385.972 40.6963C384.784 39.6227 382.594 38.7755 380.248 37.8682C377.036 36.626 373.531 35.2701 371.905 33.0654C360.678 69.8614 349.451 75.0097 349.399 75.0332C341.793 80.993 327.456 81.3921 324.08 78.8486C315.645 73.7644 302.995 45.0328 302.98 45C330.575 18.5235 368.847 1.80213e-05 421.138 0ZM425.357 355.138C425.006 355.138 424.654 355.456 423.951 356.092C422.545 357.364 421.138 370.08 421.138 371.353C422.544 372.624 426.764 373.896 428.171 373.896C428.171 372.625 428.171 357.366 426.765 356.092C426.061 355.456 425.709 355.138 425.357 355.138ZM253.193 202C243.411 226.337 247.661 253.269 249 269C243 251.5 240 222.33 240 204C240 203.344 240.005 202.678 240.013 202H253.193ZM93.0938 232.5V149C93.0938 140 88.6602 140 88.6602 140V137H110.826V140C110.826 140 106.393 140 106.393 149V255H79.7949L18.8408 166V243C18.8408 252 23.2734 252 23.2734 252V255H0V252C0 252 4.43262 252 4.43262 243V149C4.43262 140 0 140 0 140V137H27.7061L93.0938 232.5ZM203.919 153H200.595C200.595 153 200.594 149 188.403 149H140.749V191H183.971C189.512 191 189.512 187 189.512 187H192.837V206H189.512C189.512 206 189.512 201 183.971 201H140.749V243H188.403C200.594 243 200.595 239 200.595 239H203.919V255H115.259V252C115.279 252 119.691 251.98 119.691 243V149C119.691 140.02 115.279 140 115.259 140V137H203.919V153ZM250.083 137C248.919 141.047 247.873 145.055 246.936 149H234.95V190H240.533C240.224 194.283 240.057 198.301 240.013 202H234.95C234.95 202 234.95 237 234.95 243C234.95 252 239.384 252 239.384 252V255H208.353V252C208.389 252 212.785 251.963 212.785 243V149C212.785 140.037 208.389 140 208.353 140V137H250.083ZM312.085 150.067C314.33 154.705 315.854 160.987 315.854 169.5C315.854 201.921 293.796 202 293.688 202L321.395 247C321.401 247.01 324.721 252 326.936 252V255H301.446V252L270.415 202H253.193C254.84 197.905 256.883 193.883 259.404 190H277.618C277.618 190 293.688 190 293.688 169.5C293.688 166.288 293.293 163.579 292.628 161.295C300.666 156.204 306.795 152.657 312.085 150.067ZM407 255H356L318.005 149C317.866 148.501 317.728 148.03 317.595 147.585C323.743 145.071 329.157 143.763 336.054 142.44L372.5 239L407 137V255ZM277.618 149C277.618 149 289.047 149 292.628 161.295C288.872 163.674 284.698 166.387 280 169.5C270.954 175.494 264.284 182.487 259.404 190H240.533C241.398 178.014 243.383 163.952 246.936 149H277.618ZM291.728 56.8857C294.541 53.4141 296.828 53.9721 300.167 58.501C301.165 59.855 325.523 94.4876 356.543 138.621C348.015 140.319 341.561 141.385 336.054 142.44L334 137H313.835V140C313.848 140 315.327 140.035 317.595 147.585C315.836 148.304 314.016 149.122 312.085 150.067C305.781 137.044 293.768 137 293.688 137H250.083C257.874 109.915 270.926 81.0308 291.728 56.8857Z" fill="#CD0019"/>
<path d="M33.9165 270.033C36.0775 270.033 37.9461 270.477 39.5225 271.364C41.8087 272.639 43.2076 274.874 43.7191 278.068H40.6343C40.2585 276.283 39.4807 274.985 38.3011 274.175C37.1214 273.355 35.6338 272.944 33.8383 272.944C31.7086 272.944 29.913 273.793 28.4515 275.49C27.0005 277.186 26.2749 279.715 26.2749 283.075C26.2749 285.981 26.8752 288.349 28.0757 290.178C29.2762 291.997 31.2336 292.907 33.9479 292.907C36.0253 292.907 37.7426 292.269 39.0997 290.994C40.4673 289.707 41.1667 287.633 41.198 284.772H33.9948V282.027H44.0949V295.102H42.0906L41.3389 291.958C40.2846 293.189 39.3502 294.043 38.536 294.52C37.1684 295.341 35.4303 295.751 33.3215 295.751C30.5968 295.751 28.2532 294.814 26.2906 292.94C24.1505 290.589 23.0805 287.362 23.0805 283.258C23.0805 279.166 24.1244 275.911 26.2123 273.493C28.1958 271.187 30.7639 270.033 33.9165 270.033Z" fill="#CD0019"/>
<path d="M57.258 270C61.3189 270 64.3254 271.386 66.2776 274.159C67.8017 276.321 68.5638 279.088 68.5638 282.46C68.5638 286.108 67.6921 289.142 65.9487 291.559C63.9026 294.398 60.9848 295.818 57.1953 295.818C53.6564 295.818 50.8743 294.576 48.849 292.092C47.043 289.696 46.14 286.668 46.14 283.009C46.14 279.704 46.9125 276.876 48.4576 274.525C50.441 271.508 53.3745 270 57.258 270ZM57.5711 292.857C60.3167 292.857 62.3002 291.814 63.5216 289.729C64.7534 287.633 65.3694 285.227 65.3694 282.51C65.3694 279.637 64.6595 277.325 63.2397 275.573C61.8304 273.821 59.8991 272.944 57.4459 272.944C55.0657 272.944 53.124 273.815 51.6207 275.556C50.1174 277.286 49.3658 279.842 49.3658 283.225C49.3658 285.931 50.0078 288.216 51.2918 290.079C52.5863 291.931 54.6794 292.857 57.5711 292.857Z" fill="#CD0019"/>
<path d="M79.5189 292.274C80.5733 292.274 81.4397 292.158 82.1183 291.925C83.3293 291.493 84.321 290.661 85.0935 289.43C85.7094 288.443 86.1531 287.179 86.4245 285.637C86.5811 284.717 86.6594 283.863 86.6594 283.075C86.6594 280.048 86.0905 277.697 84.9526 276.022C83.8251 274.347 82.0035 273.51 79.4876 273.51H73.9599V292.274H79.5189ZM70.8281 270.665H80.1452C83.3084 270.665 85.7616 271.858 87.505 274.242C89.0605 276.393 89.8382 279.149 89.8382 282.51C89.8382 285.105 89.3789 287.45 88.4602 289.546C86.8421 293.25 84.06 295.102 80.1139 295.102H70.8281V270.665Z" fill="#CD0019"/>
<path d="M95.1091 270.665L94.5923 280.447H92.7758L92.2591 270.665H95.1091Z" fill="#CD0019"/>
<path d="M98.8296 287.217C98.9027 288.604 99.2107 289.729 99.7535 290.594C100.787 292.214 102.609 293.023 105.219 293.023C106.388 293.023 107.453 292.846 108.413 292.491C110.271 291.803 111.2 290.572 111.2 288.798C111.2 287.467 110.809 286.519 110.026 285.953C109.232 285.399 107.99 284.916 106.299 284.506L103.183 283.757C101.147 283.269 99.7066 282.731 98.861 282.144C97.3994 281.123 96.6687 279.598 96.6687 277.569C96.6687 275.373 97.3838 273.571 98.814 272.163C100.244 270.754 102.269 270.05 104.89 270.05C107.301 270.05 109.347 270.671 111.028 271.913C112.719 273.144 113.565 275.118 113.565 277.835H110.637C110.48 276.527 110.146 275.523 109.634 274.824C108.684 273.549 107.072 272.911 104.796 272.911C102.958 272.911 101.638 273.321 100.834 274.142C100.03 274.963 99.6283 275.917 99.6283 277.003C99.6283 278.201 100.098 279.077 101.038 279.632C101.653 279.987 103.047 280.43 105.219 280.963L108.444 281.744C110 282.121 111.2 282.637 112.046 283.292C113.507 284.434 114.238 286.092 114.238 288.265C114.238 290.971 113.309 292.907 111.451 294.071C109.603 295.236 107.453 295.818 104.999 295.818C102.139 295.818 99.8997 295.041 98.2816 293.489C96.6635 291.947 95.8701 289.857 95.9014 287.217H98.8296Z" fill="#CD0019"/>
<path d="M124.608 270.665H127.755V295.102H124.608V270.665Z" fill="#CD0019"/>
<path d="M131.225 270.665H134.905L146.524 290.461V270.665H149.484V295.102H145.992L134.2 275.323V295.102H131.225V270.665Z" fill="#CD0019"/>
<path d="M24.0513 300.726H27.1988V310.824H39.1623V300.726H42.3098V325.163H39.1623V313.735H27.1988V325.163H24.0513V300.726Z" fill="#CD0019"/>
<path d="M46.2496 300.726H49.3971V325.163H46.2496V300.726Z" fill="#CD0019"/>
<path d="M54.9028 317.278C54.9759 318.664 55.2839 319.79 55.8267 320.655C56.8602 322.274 58.6819 323.084 61.2917 323.084C62.4609 323.084 63.5258 322.906 64.4862 322.551C66.3444 321.864 67.2735 320.633 67.2735 318.858C67.2735 317.528 66.882 316.579 66.0991 316.014C65.3057 315.459 64.0634 314.977 62.3722 314.567L59.2561 313.818C57.2204 313.33 55.7797 312.792 54.9341 312.204C53.4726 311.184 52.7419 309.659 52.7419 307.63C52.7419 305.434 53.457 303.632 54.8872 302.223C56.3174 300.815 58.3426 300.111 60.9629 300.111C63.3744 300.111 65.4205 300.732 67.1012 301.974C68.7924 303.205 69.638 305.179 69.638 307.896H66.7098C66.5532 306.587 66.2191 305.584 65.7076 304.885C64.7576 303.61 63.1447 302.972 60.8689 302.972C59.0316 302.972 57.711 303.382 56.9072 304.203C56.1034 305.024 55.7014 305.977 55.7014 307.064C55.7014 308.262 56.1712 309.138 57.1108 309.693C57.7267 310.047 59.1203 310.491 61.2917 311.023L64.5175 311.805C66.073 312.182 67.2735 312.698 68.1191 313.352C69.5806 314.495 70.3114 316.152 70.3114 318.326C70.3114 321.032 69.3822 322.967 67.524 324.132C65.6763 325.296 63.5258 325.879 61.0725 325.879C58.2121 325.879 55.9729 325.102 54.3548 323.55C52.7367 322.008 51.9433 319.918 51.9746 317.278H54.9028Z" fill="#CD0019"/>
<path d="M80.0544 300.726H83.2019V310.824H95.1654V300.726H98.3129V325.163H95.1654V313.735H83.2019V325.163H80.0544V300.726Z" fill="#CD0019"/>
<path d="M101.846 300.726H118.616V303.72H104.883V311.14H117.583V313.968H104.883V322.252H118.851V325.163H101.846V300.726Z" fill="#CD0019"/>
<path d="M133.142 315.149L129.65 304.353L125.939 315.149H133.142ZM128.021 300.726H131.545L139.891 325.163H136.477L134.144 317.844H125.046L122.556 325.163H119.362L128.021 300.726Z" fill="#CD0019"/>
<path d="M140.558 300.726L147.166 321.537L153.696 300.726H157.188L148.795 325.163H145.491L137.113 300.726H140.558Z" fill="#CD0019"/>
<path d="M158.826 300.726H175.597V303.72H161.864V311.14H174.563V313.968H161.864V322.252H175.832V325.163H158.826V300.726Z" fill="#CD0019"/>
<path d="M178.315 300.726H181.995L193.614 320.522V300.726H196.574V325.163H193.082L181.29 305.384V325.163H178.315V300.726Z" fill="#CD0019"/>
<path d="M35.78 345.21L32.288 334.413L28.5768 345.21H35.78ZM30.6595 330.787H34.1828L42.529 355.224H39.1154L36.7822 347.904H27.6842L25.1944 355.224H22L30.6595 330.787Z" fill="#CD0019"/>
<path d="M43.7598 330.787H46.876V352.313H58.5263V355.224H43.7598V330.787Z" fill="#CD0019"/>
<path d="M60.0077 330.787H63.1238V352.313H74.7742V355.224H60.0077V330.787Z" fill="#CD0019"/>
<path d="M79.1055 330.787L78.5887 340.568H76.7723L76.2555 330.787H79.1055Z" fill="#CD0019"/>
<path d="M82.8261 347.339C82.8992 348.725 83.2071 349.851 83.75 350.716C84.7835 352.335 86.6051 353.145 89.215 353.145C90.3842 353.145 91.449 352.967 92.4094 352.612C94.2676 351.925 95.1967 350.694 95.1967 348.919C95.1967 347.588 94.8053 346.64 94.0223 346.075C93.2289 345.52 91.9866 345.038 90.2954 344.627L87.1793 343.879C85.1436 343.391 83.703 342.853 82.8574 342.265C81.3959 341.245 80.6651 339.72 80.6651 337.69C80.6651 335.495 81.3802 333.692 82.8104 332.284C84.2406 330.876 86.2659 330.171 88.8861 330.171C91.2976 330.171 93.3438 330.792 95.0245 332.035C96.7157 333.266 97.5613 335.24 97.5613 337.957H94.633C94.4764 336.648 94.1424 335.644 93.6308 334.946C92.6808 333.67 91.068 333.033 88.7922 333.033C86.9548 333.033 85.6343 333.443 84.8304 334.264C84.0266 335.084 83.6247 336.038 83.6247 337.125C83.6247 338.323 84.0945 339.199 85.034 339.753C85.6499 340.108 87.0436 340.552 89.215 341.084L92.4407 341.866C93.9962 342.243 95.1967 342.759 96.0423 343.413C97.5038 344.555 98.2346 346.213 98.2346 348.387C98.2346 351.093 97.3055 353.028 95.4473 354.193C93.5995 355.357 91.449 355.939 88.9958 355.939C86.1354 355.939 83.8961 355.163 82.278 353.61C80.6599 352.069 79.8665 349.978 79.8978 347.339H82.8261Z" fill="#CD0019"/>
<path d="M118.595 341.982C120.056 341.982 121.21 341.672 122.055 341.051C122.911 340.43 123.339 339.31 123.339 337.69C123.339 335.949 122.744 334.763 121.554 334.131C120.917 333.798 120.066 333.631 119.002 333.631H111.391V341.982H118.595ZM108.275 330.787H118.923C120.677 330.787 122.123 331.059 123.261 331.602C125.422 332.644 126.502 334.569 126.502 337.374C126.502 338.838 126.215 340.036 125.641 340.968C125.077 341.899 124.284 342.648 123.261 343.213C124.159 343.602 124.832 344.112 125.281 344.744C125.74 345.376 125.996 346.402 126.048 347.821L126.158 351.098C126.189 352.03 126.262 352.723 126.377 353.178C126.565 353.954 126.899 354.453 127.379 354.675V355.224H123.558C123.454 355.013 123.371 354.742 123.308 354.409C123.245 354.076 123.193 353.433 123.151 352.479L122.963 348.404C122.89 346.807 122.332 345.736 121.288 345.193C120.693 344.894 119.759 344.744 118.485 344.744H111.391V355.224H108.275V330.787Z" fill="#CD0019"/>
<path d="M130.176 330.787H133.323V355.224H130.176V330.787Z" fill="#CD0019"/>
<path d="M146.737 330.155C148.898 330.155 150.767 330.598 152.343 331.486C154.629 332.761 156.028 334.996 156.54 338.19H153.455C153.079 336.404 152.301 335.106 151.122 334.297C149.942 333.476 148.454 333.066 146.659 333.066C144.529 333.066 142.733 333.914 141.272 335.611C139.821 337.308 139.095 339.836 139.095 343.197C139.095 346.102 139.696 348.47 140.896 350.3C142.097 352.119 144.054 353.028 146.768 353.028C148.846 353.028 150.563 352.39 151.92 351.115C153.288 349.829 153.987 347.755 154.018 344.894H146.815V342.149H156.915V355.224H154.911L154.159 352.08C153.105 353.311 152.171 354.165 151.356 354.642C149.989 355.462 148.251 355.873 146.142 355.873C143.417 355.873 141.074 354.936 139.111 353.061C136.971 350.71 135.901 347.483 135.901 343.38C135.901 339.287 136.945 336.033 139.033 333.615C141.016 331.308 143.584 330.155 146.737 330.155Z" fill="#CD0019"/>
<path d="M160.229 330.787H163.376V340.884H175.34V330.787H178.487V355.224H175.34V343.796H163.376V355.224H160.229V330.787Z" fill="#CD0019"/>
<path d="M198.462 330.787V333.698H190.711V355.224H187.548V333.698H179.796V330.787H198.462Z" fill="#CD0019"/>
<path d="M25.492 360.848L29.8295 380.727L35.0283 360.848H38.4107L43.6095 380.727L47.9471 360.848H51.3608L45.3164 385.285H42.0436L36.7352 365.023L31.3954 385.285H28.1227L22.1096 360.848H25.492Z" fill="#CD0019"/>
<path d="M53.3588 360.848H56.5063V385.285H53.3588V360.848Z" fill="#CD0019"/>
<path d="M76.7159 360.848V363.759H68.9647V385.285H65.8015V363.759H58.0503V360.848H76.7159Z" fill="#CD0019"/>
<path d="M78.0563 360.848H81.2038V370.945H93.1673V360.848H96.3148V385.285H93.1673V373.856H81.2038V385.285H78.0563V360.848Z" fill="#CD0019"/>
<path d="M123.048 360.848V363.759H115.297V385.285H112.134V363.759H104.382V360.848H123.048Z" fill="#CD0019"/>
<path d="M124.388 360.848H127.536V370.945H139.499V360.848H142.647V385.285H139.499V373.856H127.536V385.285H124.388V360.848Z" fill="#CD0019"/>
<path d="M146.18 360.848H162.95V363.842H149.217V371.261H161.917V374.089H149.217V382.374H163.185V385.285H146.18V360.848Z" fill="#CD0019"/>
<path d="M174.51 360.848L178.847 380.727L184.046 360.848H187.429L192.627 380.727L196.965 360.848H200.379L194.334 385.285H191.062L185.753 365.023L180.413 385.285H177.141L171.128 360.848H174.51Z" fill="#CD0019"/>
<path d="M211.6 360.182C215.661 360.182 218.667 361.568 220.62 364.341C222.144 366.504 222.906 369.271 222.906 372.642C222.906 376.291 222.034 379.324 220.291 381.741C218.245 384.58 215.327 386 211.537 386C207.998 386 205.216 384.758 203.191 382.274C201.385 379.878 200.482 376.851 200.482 373.191C200.482 369.886 201.255 367.058 202.8 364.707C204.783 361.69 207.717 360.182 211.6 360.182ZM211.913 383.039C214.659 383.039 216.642 381.996 217.864 379.912C219.095 377.815 219.711 375.409 219.711 372.692C219.711 369.82 219.001 367.507 217.582 365.755C216.172 364.003 214.241 363.127 211.788 363.127C209.408 363.127 207.466 363.997 205.963 365.738C204.459 367.468 203.708 370.025 203.708 373.407C203.708 376.113 204.35 378.398 205.634 380.261C206.928 382.113 209.021 383.039 211.913 383.039Z" fill="#CD0019"/>
<path d="M235.724 372.043C237.186 372.043 238.339 371.733 239.185 371.112C240.041 370.49 240.469 369.37 240.469 367.751C240.469 366.01 239.874 364.823 238.684 364.191C238.047 363.859 237.196 363.692 236.131 363.692H228.521V372.043H235.724ZM225.405 360.848H236.053C237.807 360.848 239.253 361.119 240.391 361.663C242.552 362.705 243.632 364.629 243.632 367.435C243.632 368.899 243.345 370.097 242.771 371.028C242.207 371.96 241.414 372.708 240.391 373.274C241.289 373.662 241.962 374.172 242.411 374.805C242.87 375.437 243.126 376.462 243.178 377.882L243.288 381.159C243.319 382.091 243.392 382.784 243.507 383.239C243.695 384.015 244.029 384.514 244.509 384.736V385.285H240.688C240.584 385.074 240.5 384.802 240.438 384.47C240.375 384.137 240.323 383.494 240.281 382.54L240.093 378.464C240.02 376.867 239.462 375.797 238.418 375.254C237.823 374.954 236.888 374.805 235.615 374.805H228.521V385.285H225.405V360.848Z" fill="#CD0019"/>
<path d="M246.601 360.848H249.717V382.374H261.368V385.285H246.601V360.848Z" fill="#CD0019"/>
<path d="M271.681 382.457C272.735 382.457 273.602 382.34 274.28 382.107C275.491 381.675 276.483 380.843 277.255 379.612C277.871 378.625 278.315 377.361 278.586 375.819C278.743 374.899 278.821 374.045 278.821 373.257C278.821 370.23 278.252 367.879 277.114 366.204C275.987 364.53 274.165 363.692 271.649 363.692H266.122V382.457H271.681ZM262.99 360.848H272.307C275.47 360.848 277.923 362.04 279.667 364.424C281.222 366.576 282 369.332 282 372.692C282 375.287 281.541 377.633 280.622 379.729C279.004 383.433 276.222 385.285 272.276 385.285H262.99V360.848Z" fill="#CD0019"/>
<rect x="5" y="269" width="14" height="118" fill="#CD0019"/>
</svg>
