<svg width="829" height="436" viewBox="0 0 829 436" fill="none" xmlns="http://www.w3.org/2000/svg">
<path d="M421.138 0C567.427 5.04088e-05 604 144.979 604 203.48C604 211.803 603.677 220.322 602.948 228.848H597.42V231.759H602.683C601.442 244.628 599.255 257.464 595.829 269.612C603.792 195.5 574.5 172 570 170C572.5 183.5 566.639 227.921 552 250.5C552.127 250.672 553.615 253.423 553.741 253.595C559.238 261.036 564.614 268.313 564.614 293.775C564.614 344.612 518.853 368.778 518.793 368.81C514.999 370.733 516 370.5 512 372C519.033 366.382 524.44 355 516 355C506.154 355 489.5 375 503 375.644C489.696 379.871 465.681 386.234 449.271 387.837L440.831 378.983C437.179 379.35 428.201 378.465 428.171 378.462C428.171 378.462 427.896 382.895 427.988 389.083C428.162 400.682 433.016 423.185 440 429.5C437.507 434.925 434.517 435.497 434.5 435.5C434.5 435.5 428.171 436.212 423.951 434.94C417.969 433.859 418.092 424.498 418.263 411.552C418.293 409.276 418.324 406.889 418.324 404.418C418.324 398.608 418.512 393.426 418.755 389.148C419.203 381.254 419.842 376.439 419.842 376.439C412.002 373.798 405.665 369.198 405.665 362.45C405.665 342.791 425.482 334.027 435.436 329.626C436.733 329.052 437.862 328.553 438.759 328.113C386.462 328.113 360.652 352.276 360.652 366.266C360.652 379.63 396.596 383.708 407.167 384.908C407.662 384.964 408.101 385.014 408.479 385.059C394.412 386.614 385.972 386.614 373.312 385.059C338.247 378.592 311.643 364.865 291.728 346.684C290.093 345.191 288.503 343.67 286.958 342.119C283.707 338.422 279.853 332.668 279.067 325.569C279.067 297.591 322.673 257.623 421.138 257.623H438.759C468.643 300.16 491.47 330.656 491.47 330.656C491.463 330.605 490.079 319.191 497.096 310.309C498.629 305.458 498.074 300.229 497.479 294.623C496.981 289.941 496.456 284.995 497.096 279.786C497.259 278.52 497.442 277.222 497.626 275.914C498.878 267.009 500.19 257.663 495.987 255H407.046V137H455.154C454.99 136.408 454.901 136.091 454.897 136.078C454.897 136.078 453.491 128.448 454.897 122.089C461.931 120.817 470 121.5 470 121.5C470.033 121.524 486.569 133.541 495 131C497.131 130.358 503.189 128.014 508.5 126.5C516.054 124.346 517 123 525.5 117.5C531.911 114.782 539.361 114.476 541 112.5C541 109.834 538 105.5 532 102C530.212 99.2689 532.5 97.5 531 93.5C526.5 90 523.576 85.5101 522.415 83.9355C522.415 80.1205 522.415 77.5769 521.009 73.7617C516.789 68.6747 501.315 54.6854 494.282 50.8701C487.249 49.5984 475.996 48.3272 466.15 48.3271C462.813 51.3441 460.109 54.9332 457.588 58.2803C454.795 61.9877 452.227 65.3983 449.271 67.4033C445.613 66.7419 441.947 65.368 441.5 64.5C441.088 63.6991 442.949 63.4557 444.5 61C444.697 60.2876 445.445 59.5946 445.646 58.8428C446.879 54.2263 448.258 49.0641 450.677 45.7832C451.585 45.2357 452.82 44.5114 454.226 43.6865C459.35 40.6792 466.755 36.3341 468.963 34.3379C465.131 19.3258 440.424 16.896 427.486 15.624C426.176 15.4952 424.986 15.3777 423.951 15.2607C412.698 16.5325 407.071 19.076 398.632 23.6416C392.629 29.4398 390.183 33.6879 388.26 37.0303C387.479 38.3868 386.784 39.5949 385.972 40.6963C384.784 39.6227 382.594 38.7755 380.248 37.8682C377.036 36.626 373.531 35.2701 371.905 33.0654C360.678 69.8614 349.451 75.0097 349.399 75.0332C341.793 80.993 327.456 81.3921 324.08 78.8486C315.645 73.7644 302.995 45.0328 302.98 45C330.575 18.5235 368.847 1.80213e-05 421.138 0ZM425.357 355.138C425.006 355.138 424.654 355.456 423.951 356.092C422.545 357.364 421.138 370.08 421.138 371.353C422.544 372.624 426.764 373.896 428.171 373.896C428.171 372.625 428.171 357.366 426.765 356.092C426.061 355.456 425.709 355.138 425.357 355.138ZM253.193 202C243.411 226.337 247.661 253.269 249 269C243 251.5 240 222.33 240 204C240 203.344 240.005 202.678 240.013 202H253.193ZM93.0938 232.5V149C93.0938 140 88.6602 140 88.6602 140V137H110.826V140C110.826 140 106.393 140 106.393 149V255H79.7949L18.8408 166V243C18.8408 252 23.2734 252 23.2734 252V255H0V252C0 252 4.43262 252 4.43262 243V149C4.43262 140 0 140 0 140V137H27.7061L93.0938 232.5ZM203.919 153H200.595C200.595 153 200.594 149 188.403 149H140.749V191H183.971C189.512 191 189.512 187 189.512 187H192.837V206H189.512C189.512 206 189.512 201 183.971 201H140.749V243H188.403C200.594 243 200.595 239 200.595 239H203.919V255H115.259V252C115.279 252 119.691 251.98 119.691 243V149C119.691 140.02 115.279 140 115.259 140V137H203.919V153ZM250.083 137C248.919 141.047 247.873 145.055 246.936 149H234.95V190H240.533C240.224 194.283 240.057 198.301 240.013 202H234.95C234.95 202 234.95 237 234.95 243C234.95 252 239.384 252 239.384 252V255H208.353V252C208.389 252 212.785 251.963 212.785 243V149C212.785 140.037 208.389 140 208.353 140V137H250.083ZM312.085 150.067C314.33 154.705 315.854 160.987 315.854 169.5C315.854 201.921 293.796 202 293.688 202L321.395 247C321.401 247.01 324.721 252 326.936 252V255H301.446V252L270.415 202H253.193C254.84 197.905 256.883 193.883 259.404 190H277.618C277.618 190 293.688 190 293.688 169.5C293.688 166.288 293.293 163.579 292.628 161.295C300.666 156.204 306.795 152.657 312.085 150.067ZM407 255H356L318.005 149C317.866 148.501 317.728 148.03 317.595 147.585C323.743 145.071 329.157 143.763 336.054 142.44L372.5 239L407 137V255ZM744.47 228.183C748.359 228.183 751.238 229.569 753.107 232.341C754.567 234.503 755.297 237.27 755.297 240.642C755.297 244.29 754.462 247.324 752.793 249.741C750.833 252.58 748.039 254 744.41 254C741.021 254 738.357 252.758 736.417 250.273C734.688 247.878 733.822 244.851 733.822 241.191C733.822 237.887 734.562 235.058 736.042 232.707C737.941 229.691 740.751 228.183 744.47 228.183ZM570.394 248.727L575.372 228.848H578.611L583.59 248.727L587.744 228.848H591.013L585.225 253.285H582.09L577.007 233.023L571.893 253.285H568.759L563 228.848H566.239L570.394 248.727ZM595.94 253.285H592.927V228.848H595.94V253.285ZM615.295 231.759H607.872V253.285H604.843V231.759H602.683C602.776 230.788 602.865 229.818 602.948 228.848H615.295V231.759ZM619.593 238.945H631.05V228.848H634.064V253.285H631.05V241.856H619.593V253.285H616.579V228.848H619.593V238.945ZM659.666 231.759H652.243V253.285H649.214V231.759H641.79V228.848H659.666V231.759ZM663.964 238.945H675.421V228.848H678.436V253.285H675.421V241.856H663.964V253.285H660.95V228.848H663.964V238.945ZM697.88 231.842H684.728V239.262H696.89V242.089H684.728V250.374H698.104V253.285H681.818V228.848H697.88V231.842ZM713.104 248.727L718.083 228.848H721.321L726.301 248.727L730.454 228.848H733.724L727.936 253.285H724.801L719.717 233.023L714.604 253.285H711.469L705.711 228.848H708.95L713.104 248.727ZM767.889 228.848C769.568 228.848 770.952 229.12 772.042 229.663C774.111 230.706 775.146 232.63 775.146 235.436C775.146 236.899 774.871 238.097 774.321 239.028C773.781 239.96 773.022 240.709 772.042 241.274C772.902 241.663 773.547 242.173 773.977 242.805C774.416 243.437 774.662 244.462 774.712 245.882L774.816 249.159C774.846 250.091 774.916 250.784 775.026 251.238C775.206 252.015 775.526 252.514 775.986 252.735V253.285H772.327C772.227 253.074 772.147 252.802 772.087 252.47C772.027 252.137 771.977 251.494 771.938 250.54L771.757 246.464C771.687 244.867 771.152 243.797 770.152 243.254C769.583 242.955 768.688 242.805 767.469 242.805H760.675V253.285H757.69V228.848H767.889ZM780.974 250.374H792.131V253.285H777.989V228.848H780.974V250.374ZM802.607 228.848C805.637 228.848 807.987 230.039 809.656 232.424C811.146 234.575 811.891 237.331 811.891 240.691C811.891 243.286 811.45 245.632 810.57 247.729C809.021 251.433 806.356 253.285 802.577 253.285H793.685V228.848H802.607ZM744.65 231.127C742.371 231.127 740.511 231.997 739.071 233.738C737.632 235.468 736.912 238.025 736.912 241.407C736.912 244.113 737.527 246.398 738.757 248.261C739.996 250.113 742 251.039 744.77 251.039C747.399 251.039 749.299 249.996 750.469 247.911C751.648 245.815 752.238 243.408 752.238 240.691C752.238 237.819 751.558 235.507 750.198 233.755C748.849 232.003 747 231.127 744.65 231.127ZM796.684 250.457H802.008C803.018 250.457 803.847 250.34 804.497 250.107C805.657 249.675 806.607 248.843 807.347 247.612C807.937 246.625 808.361 245.361 808.621 243.819C808.771 242.899 808.846 242.045 808.846 241.258C808.846 238.23 808.302 235.879 807.212 234.204C806.132 232.529 804.387 231.692 801.978 231.692H796.684V250.457ZM760.675 240.043H767.573C768.973 240.043 770.078 239.732 770.888 239.111C771.707 238.49 772.117 237.37 772.117 235.751C772.117 234.01 771.547 232.824 770.407 232.191C769.797 231.859 768.982 231.692 767.963 231.692H760.675V240.043ZM708.062 198.171C710.372 198.171 712.331 198.792 713.94 200.034C715.56 201.265 716.37 203.24 716.37 205.957H713.565C713.415 204.648 713.095 203.644 712.605 202.945C711.696 201.67 710.151 201.032 707.972 201.032C706.212 201.032 704.948 201.443 704.178 202.264C703.408 203.084 703.023 204.038 703.023 205.125C703.023 206.323 703.473 207.198 704.373 207.753C704.963 208.108 706.297 208.552 708.377 209.084L711.466 209.866C712.955 210.243 714.105 210.759 714.915 211.413C716.315 212.555 717.015 214.213 717.015 216.387C717.015 219.093 716.125 221.028 714.346 222.192C712.576 223.357 710.516 223.939 708.167 223.939C705.428 223.939 703.283 223.163 701.733 221.61C700.184 220.069 699.424 217.978 699.454 215.339H702.259C702.329 216.725 702.624 217.851 703.144 218.716C704.133 220.335 705.878 221.145 708.377 221.145C709.497 221.145 710.517 220.967 711.437 220.612C713.216 219.925 714.105 218.693 714.105 216.919C714.105 215.588 713.73 214.64 712.98 214.074C712.221 213.52 711.031 213.037 709.412 212.627L706.428 211.879C704.478 211.391 703.098 210.853 702.288 210.266C700.888 209.245 700.189 207.72 700.189 205.69C700.189 203.495 700.874 201.693 702.243 200.284C703.613 198.876 705.553 198.171 708.062 198.171ZM763.464 198.154C765.533 198.154 767.323 198.598 768.833 199.485C771.022 200.761 772.362 202.996 772.852 206.189H769.897C769.538 204.404 768.793 203.106 767.663 202.297C766.533 201.476 765.109 201.065 763.39 201.065C761.35 201.065 759.63 201.915 758.23 203.611C756.841 205.308 756.147 207.836 756.146 211.196C756.146 214.102 756.721 216.47 757.871 218.3C759.021 220.118 760.895 221.028 763.494 221.028C765.484 221.028 767.128 220.39 768.428 219.115C769.737 217.829 770.408 215.755 770.438 212.894H763.539V210.148H773.212V223.224H771.292L770.572 220.08C769.563 221.311 768.668 222.165 767.889 222.642C766.579 223.462 764.914 223.873 762.895 223.873C760.285 223.873 758.041 222.936 756.161 221.062C754.112 218.71 753.087 215.483 753.087 211.38C753.087 207.288 754.087 204.033 756.086 201.615C757.985 199.309 760.445 198.154 763.464 198.154ZM663.667 223.224H660.397L658.163 215.904H649.45L647.066 223.224H644.007L652.3 198.787H655.674L663.667 223.224ZM667.83 220.312H678.987V223.224H664.846V198.787H667.83V220.312ZM683.391 220.312H694.548V223.224H680.406V198.787H683.391V220.312ZM736.828 198.787C738.507 198.787 739.892 199.058 740.981 199.602C743.051 200.644 744.086 202.568 744.086 205.374C744.086 206.838 743.812 208.036 743.262 208.968C742.722 209.899 741.961 210.647 740.981 211.213C741.841 211.601 742.486 212.112 742.916 212.744C743.356 213.376 743.601 214.402 743.651 215.821L743.756 219.099C743.786 220.03 743.856 220.723 743.966 221.178C744.146 221.954 744.466 222.453 744.926 222.675V223.224H741.267C741.167 223.013 741.087 222.742 741.027 222.409C740.967 222.077 740.917 221.433 740.877 220.479L740.697 216.403C740.627 214.807 740.092 213.737 739.093 213.193C738.523 212.894 737.628 212.744 736.408 212.744H729.614V223.224H726.631V198.787H736.828ZM750.618 223.224H747.604V198.787H750.618V223.224ZM779.399 208.885H790.856V198.787H793.871V223.224H790.856V211.796H779.399V223.224H776.385V198.787H779.399V208.885ZM813 201.698H805.577V223.224H802.548V201.698H795.124V198.787H813V201.698ZM650.306 213.21H657.204L653.859 202.413L650.306 213.21ZM729.614 209.982H736.513C737.912 209.982 739.017 209.672 739.827 209.051C740.647 208.43 741.057 207.31 741.057 205.69C741.057 203.95 740.487 202.763 739.348 202.131C738.738 201.798 737.923 201.632 736.903 201.632H729.614V209.982ZM698.2 208.568H696.461L695.966 198.787H698.695L698.2 208.568ZM681.165 168.11C683.474 168.11 685.433 168.732 687.043 169.974C688.662 171.205 689.473 173.179 689.473 175.896H686.668C686.518 174.587 686.199 173.583 685.709 172.885C684.799 171.609 683.254 170.972 681.075 170.972C679.316 170.972 678.05 171.382 677.28 172.203C676.511 173.024 676.126 173.978 676.126 175.064C676.126 176.262 676.576 177.138 677.476 177.692C678.065 178.047 679.4 178.491 681.479 179.023L684.568 179.805C686.058 180.182 687.208 180.698 688.018 181.353C689.417 182.495 690.117 184.153 690.117 186.326C690.117 189.032 689.228 190.967 687.448 192.132C685.679 193.296 683.619 193.879 681.27 193.879C678.53 193.879 676.386 193.102 674.836 191.55C673.286 190.008 672.527 187.918 672.557 185.278H675.361C675.431 186.665 675.726 187.79 676.246 188.655C677.236 190.274 678.98 191.084 681.479 191.084C682.599 191.084 683.619 190.907 684.539 190.552C686.319 189.864 687.208 188.633 687.208 186.858C687.208 185.528 686.833 184.579 686.083 184.014C685.323 183.459 684.134 182.977 682.515 182.566L679.53 181.818C677.581 181.33 676.201 180.792 675.392 180.204C673.992 179.184 673.292 177.659 673.292 175.63C673.292 173.434 673.976 171.632 675.346 170.224C676.715 168.815 678.656 168.11 681.165 168.11ZM648.83 178.823H660.287V168.727H663.301V193.163H660.287V181.734H648.83V193.163H645.815V168.727H648.83V178.823ZM670.089 193.163H667.074V168.727H670.089V193.163ZM702.463 178.823H713.92V168.727H716.934V193.163H713.92V181.734H702.463V193.163H699.448V168.727H702.463V178.823ZM736.378 171.721H723.227V179.14H735.389V181.968H723.227V190.252H736.603V193.163H720.317V168.727H736.378V171.721ZM756.752 193.163H753.482L751.248 185.844H742.535L740.151 193.163H737.092L745.385 168.727H748.759L756.752 193.163ZM763.719 189.537L769.973 168.727H773.316L765.279 193.163H762.114L754.092 168.727H757.391L763.719 189.537ZM790.946 171.721H777.795V179.14H789.957V181.968H777.795V190.252H791.172V193.163H774.886V168.727H790.946V171.721ZM808.201 188.522V168.727H811.035V193.163H807.691L796.399 173.384V193.163H793.55V168.727H797.074L808.201 188.522ZM277.618 149C277.618 149 289.047 149 292.628 161.295C288.872 163.674 284.698 166.387 280 169.5C270.954 175.494 264.284 182.487 259.404 190H240.533C241.398 178.014 243.383 163.952 246.936 149H277.618ZM743.391 183.148H750.288L746.944 172.353L743.391 183.148ZM722.714 138C726.603 138 729.482 139.387 731.352 142.159C732.811 144.322 733.541 147.089 733.541 150.46C733.541 154.109 732.706 157.142 731.036 159.56C729.077 162.398 726.282 163.817 722.653 163.817C719.264 163.817 716.6 162.576 714.66 160.092C712.931 157.696 712.066 154.668 712.066 151.009C712.066 147.704 712.806 144.876 714.285 142.524C716.185 139.508 718.995 138 722.714 138ZM768.329 138.05C770.638 138.05 772.598 138.671 774.208 139.913C775.827 141.144 776.637 143.118 776.637 145.835H773.833C773.683 144.526 773.363 143.523 772.873 142.824C771.963 141.549 770.419 140.911 768.239 140.911C766.48 140.911 765.215 141.322 764.445 142.143C763.676 142.963 763.29 143.916 763.29 145.003C763.29 146.201 763.74 147.077 764.64 147.632C765.229 147.987 766.564 148.431 768.644 148.963L771.733 149.744C773.223 150.121 774.373 150.638 775.183 151.292C776.582 152.434 777.282 154.092 777.282 156.266C777.282 158.972 776.392 160.907 774.612 162.071C772.843 163.236 770.783 163.817 768.434 163.817C765.695 163.817 763.55 163.042 762.001 161.489C760.451 159.948 759.692 157.857 759.722 155.218H762.525C762.595 156.604 762.89 157.73 763.41 158.595C764.4 160.214 766.145 161.023 768.644 161.023C769.763 161.023 770.783 160.846 771.703 160.491C773.483 159.804 774.373 158.572 774.373 156.798C774.373 155.467 773.998 154.519 773.248 153.953C772.488 153.399 771.298 152.916 769.679 152.506L766.694 151.757C764.745 151.269 763.365 150.731 762.556 150.144C761.156 149.123 760.456 147.599 760.456 145.569C760.456 143.373 761.141 141.571 762.511 140.162C763.88 138.754 765.82 138.05 768.329 138.05ZM700.36 138.033C702.43 138.033 704.219 138.477 705.729 139.364C707.918 140.64 709.258 142.874 709.748 146.068H706.793C706.433 144.283 705.688 142.985 704.559 142.176C703.429 141.355 702.005 140.944 700.285 140.944C698.246 140.944 696.526 141.793 695.126 143.489C693.736 145.186 693.042 147.715 693.042 151.075C693.042 153.981 693.617 156.349 694.767 158.179C695.916 159.997 697.791 160.906 700.39 160.906C702.379 160.906 704.024 160.269 705.323 158.993C706.633 157.707 707.303 155.633 707.333 152.772H700.435V150.027H710.107V163.103H708.188L707.468 159.958C706.458 161.189 705.564 162.044 704.784 162.521C703.474 163.341 701.81 163.751 699.79 163.751C697.181 163.751 694.936 162.814 693.057 160.939C691.007 158.588 689.982 155.361 689.982 151.258C689.982 147.166 690.982 143.911 692.981 141.493C694.881 139.186 697.341 138.033 700.36 138.033ZM744.632 138.665C747.661 138.665 750.011 139.858 751.681 142.242C753.17 144.394 753.915 147.15 753.915 150.51C753.915 153.105 753.474 155.45 752.595 157.546C751.045 161.25 748.381 163.103 744.602 163.103H735.709V138.665H744.632ZM790.227 163.103H787.212V138.665H790.227V163.103ZM808.201 158.461V138.665H811.035V163.103H807.691L796.399 143.323V163.103H793.55V138.665H797.074L808.201 158.461ZM722.894 140.944C720.614 140.944 718.754 141.815 717.314 143.556C715.875 145.286 715.155 147.842 715.155 151.225C715.155 153.931 715.77 156.216 717 158.079C718.24 159.931 720.245 160.856 723.014 160.856C725.643 160.856 727.542 159.814 728.712 157.729C729.892 155.633 730.481 153.227 730.481 150.51C730.481 147.638 729.802 145.325 728.442 143.573C727.093 141.821 725.243 140.944 722.894 140.944ZM738.708 160.274H744.032C745.042 160.274 745.872 160.158 746.521 159.925C747.681 159.492 748.631 158.661 749.371 157.43C749.961 156.443 750.386 155.178 750.646 153.637C750.795 152.716 750.87 151.863 750.87 151.075C750.87 148.048 750.325 145.696 749.235 144.021C748.156 142.347 746.411 141.51 744.002 141.51H738.708V160.274ZM291.728 56.8857C294.541 53.4141 296.828 53.9721 300.167 58.501C301.165 59.855 325.523 94.4876 356.543 138.621C348.015 140.319 341.561 141.385 336.054 142.44L334 137H313.835V140C313.848 140 315.327 140.035 317.595 147.585C315.836 148.304 314.016 149.122 312.085 150.067C305.781 137.044 293.768 137 293.688 137H250.083C257.874 109.915 270.926 81.0308 291.728 56.8857ZM758.468 148.447H756.728L756.233 138.665H758.962L758.468 148.447Z" fill="#CD0019"/>
<rect x="815" y="137" width="14" height="118" fill="#CD0019"/>
</svg>
