<svg width="396" height="412" viewBox="0 0 396 412" fill="none" xmlns="http://www.w3.org/2000/svg">
<path d="M223.534 388.65C223.665 388.644 223.696 388.701 223.705 388.904C223.714 389.106 223.674 389.194 223.56 389.257C222.968 389.632 222.48 390.7 222.362 391.954L220.666 410.462C220.638 410.812 220.353 410.942 220.136 410.951C219.962 410.959 219.667 410.856 219.591 410.453L216.38 394.108L214.832 410.723C214.804 411.073 214.518 411.202 214.301 411.212C214.142 411.219 213.863 411.144 213.771 410.713L209.652 390.925C209.505 390.236 209.109 390.136 208.578 389.928C208.489 389.903 208.457 389.818 208.449 389.644C208.439 389.413 208.463 389.324 208.564 389.32L212.778 389.13C212.894 389.126 212.925 389.212 212.933 389.385C212.944 389.616 212.933 389.676 212.79 389.74C212.236 389.997 211.951 390.126 211.968 390.503C211.97 390.561 211.973 390.59 211.99 390.647L214.668 404.461L215.784 392.451C215.814 392.16 215.815 391.869 215.803 391.609C215.757 390.566 215.379 389.915 214.599 389.659C214.511 389.634 214.478 389.548 214.47 389.375C214.46 389.143 214.486 389.054 214.587 389.049L218.612 388.87C218.713 388.866 218.76 388.951 218.768 389.124C218.778 389.356 218.767 389.415 218.625 389.479C218.113 389.705 217.844 389.863 217.861 390.239C217.864 390.297 217.865 390.326 217.881 390.382L220.502 404.2L221.633 391.899C221.652 391.666 221.671 391.433 221.662 391.23C221.617 390.216 221.145 389.744 220.506 389.395C220.372 389.314 220.327 389.257 220.318 389.054C220.307 388.823 220.349 388.792 220.494 388.786L223.534 388.65ZM195.404 388.595C197.255 388.785 198.032 388.962 199.683 389.028C201.336 389.094 202.125 388.981 203.969 388.938L203.999 388.939C204.101 388.943 204.14 389.061 204.155 389.41C204.147 391.064 204.219 393.591 204.341 395.25C204.339 395.308 204.352 395.338 204.35 395.395C204.344 395.54 204.314 395.597 204.239 395.652C204.209 395.68 204.165 395.677 204.151 395.677C204.064 395.673 204.025 395.555 203.988 395.38C203.556 393.129 202.985 391.046 202.267 390.495C202.013 390.311 201.32 390.225 200.827 390.205L200.082 408.834C200.049 409.645 200.301 409.886 201.193 410.096C201.264 410.128 201.334 410.19 201.325 410.421C201.316 410.652 201.27 410.71 201.154 410.705L196.471 410.518C196.355 410.513 196.315 410.452 196.324 410.221C196.334 409.99 196.393 409.934 196.481 409.909C197.387 409.771 197.642 409.549 197.675 408.738L198.421 390.109C197.958 390.091 197.244 390.12 196.976 390.284C196.261 390.748 195.498 392.778 194.871 395.015C194.821 395.187 194.772 395.301 194.685 395.298C194.671 395.297 194.627 395.297 194.599 395.267C194.529 395.206 194.502 395.147 194.508 395.002C194.51 394.944 194.527 394.915 194.529 394.857C194.769 393.213 195.043 390.698 195.182 389.05C195.21 388.704 195.274 388.589 195.375 388.593L195.404 388.595ZM183.54 387.757L187.911 388.181C188.041 388.193 188.064 388.255 188.042 388.486C188.019 388.716 187.956 388.769 187.866 388.789C187.088 388.86 186.829 389.126 186.755 389.877L185.978 397.843L189.874 398.221L190.651 390.253C190.724 389.504 190.52 389.191 189.77 388.973C189.687 388.936 189.635 388.872 189.657 388.642C189.68 388.412 189.714 388.357 189.843 388.369L194.214 388.793C194.33 388.804 194.367 388.866 194.345 389.096C194.322 389.327 194.246 389.379 194.171 389.401C193.346 389.495 193.092 389.704 193.016 390.483L191.268 408.411C191.192 409.191 191.402 409.444 192.193 409.695C192.262 409.731 192.327 409.796 192.305 410.027C192.282 410.258 192.235 410.311 192.119 410.299L187.748 409.877C187.618 409.864 187.595 409.804 187.618 409.573C187.64 409.342 187.703 409.289 187.793 409.269C188.571 409.199 188.83 408.931 188.903 408.181L189.739 399.608L185.843 399.23L185.007 407.803C184.934 408.554 185.138 408.866 185.887 409.084C185.971 409.122 186.024 409.185 186.002 409.416C185.979 409.647 185.944 409.702 185.814 409.689L181.444 409.265C181.328 409.253 181.29 409.191 181.312 408.961C181.335 408.731 181.414 408.68 181.489 408.658C182.313 408.563 182.566 408.354 182.642 407.575L184.389 389.647C184.465 388.868 184.256 388.614 183.466 388.363C183.396 388.327 183.33 388.262 183.352 388.031C183.375 387.8 183.425 387.746 183.54 387.757ZM228.615 388.021C228.73 388.01 228.778 388.063 228.801 388.294C228.827 388.554 228.758 388.59 228.688 388.626C227.844 388.912 227.616 389.111 227.693 389.889L229.477 407.865C229.554 408.644 229.818 408.793 230.703 408.909C230.778 408.93 230.856 408.981 230.879 409.211C230.902 409.441 230.864 409.503 230.749 409.515L226.146 409.972C226.031 409.983 225.983 409.93 225.96 409.7C225.937 409.469 225.989 409.406 226.073 409.368C226.917 409.08 227.146 408.883 227.069 408.104L225.284 390.128C225.207 389.35 224.943 389.201 224.058 389.085C223.968 389.065 223.908 389.041 223.882 388.782C223.859 388.551 223.883 388.491 224.012 388.478L228.615 388.021ZM238.537 386.407C238.637 386.393 238.697 386.502 238.775 386.841C239.065 388.47 239.593 390.943 240.013 392.554C240.021 392.611 240.039 392.639 240.047 392.696C240.068 392.839 240.048 392.901 239.985 392.968C239.96 393.001 239.917 393.007 239.903 393.009C239.816 393.021 239.756 392.913 239.688 392.747C238.856 390.61 237.921 388.663 237.115 388.251C236.832 388.115 236.133 388.156 235.645 388.226L238.278 406.69C238.392 407.494 238.684 407.687 239.597 407.732C239.673 407.751 239.754 407.798 239.787 408.027C239.82 408.257 239.785 408.32 239.67 408.336L235.032 408.998C234.917 409.014 234.866 408.963 234.833 408.733C234.801 408.504 234.85 408.438 234.931 408.397C235.797 408.098 236.008 407.833 235.893 407.029L233.262 388.565C232.802 388.631 232.108 388.788 231.874 388.997C231.255 389.584 230.87 391.719 230.658 394.034C230.64 394.212 230.613 394.333 230.527 394.345C230.513 394.347 230.469 394.354 230.436 394.33C230.356 394.282 230.319 394.228 230.298 394.086C230.291 394.028 230.301 393.997 230.293 393.94C230.232 392.279 230.048 389.756 229.886 388.109C229.851 387.762 229.893 387.639 229.994 387.625L230.022 387.621C231.876 387.474 232.672 387.507 234.308 387.273C235.945 387.04 236.701 386.786 238.507 386.411L238.537 386.407ZM170.567 396.672C171.591 390.227 174.281 385.778 177.674 386.315C178.391 386.428 179.472 386.923 180.048 387.455C180.202 387.596 180.489 387.729 180.718 387.765L180.82 387.782C180.905 387.796 180.982 387.778 181.039 387.787C181.182 387.81 181.23 387.876 181.195 388.194C181.061 389.494 180.804 392.125 180.681 393.545L180.664 393.66C180.641 393.804 180.621 393.829 180.546 393.846C180.513 393.87 180.483 393.867 180.469 393.865C180.369 393.849 180.362 393.701 180.352 393.582C180.073 389.426 179.204 387.967 177.543 387.704C175.795 387.427 174.162 390.223 173.297 395.666C172.049 403.515 173.221 407.137 174.983 407.416C176.129 407.596 176.611 407.232 176.852 405.714L177.718 400.272C177.836 399.527 177.634 399.231 176.989 398.952C176.864 398.903 176.853 398.784 176.885 398.583C176.921 398.354 176.983 398.335 177.14 398.36L181.022 398.973C181.18 398.998 181.218 399.035 181.182 399.263C181.15 399.463 181.117 399.577 180.97 399.583C180.385 399.666 180.099 399.885 179.981 400.629L178.975 406.961C178.938 407.189 178.915 407.244 178.755 407.425C177.799 408.448 176.125 409.005 174.32 408.719C170.668 408.141 169.538 403.146 170.567 396.672ZM250.484 384.319C250.597 384.296 250.651 384.344 250.698 384.571C250.744 384.798 250.684 384.87 250.619 384.913C249.858 385.246 249.677 385.519 249.834 386.286L253.422 403.927C253.578 404.694 253.852 404.875 254.682 404.883C254.759 404.897 254.841 404.94 254.888 405.168C254.934 405.395 254.904 405.46 254.79 405.484L250.486 406.362C250.358 406.388 250.317 406.337 250.271 406.11C250.225 405.883 250.271 405.814 250.35 405.768C251.074 405.473 251.243 405.142 251.093 404.404L249.377 395.965L245.542 396.749L247.258 405.186C247.408 405.925 247.694 406.163 248.475 406.151C248.566 406.162 248.634 406.207 248.68 406.434C248.727 406.662 248.71 406.724 248.583 406.751L244.279 407.628C244.165 407.651 244.11 407.604 244.064 407.377C244.018 407.149 244.077 407.078 244.142 407.035C244.903 406.702 245.084 406.429 244.928 405.662L241.339 388.02C241.183 387.253 240.91 387.072 240.08 387.064C240.003 387.05 239.92 387.008 239.874 386.78C239.828 386.553 239.858 386.486 239.971 386.463L244.276 385.586C244.404 385.56 244.444 385.611 244.49 385.837C244.537 386.064 244.491 386.133 244.412 386.179C243.688 386.474 243.519 386.806 243.669 387.544L245.263 395.384L249.098 394.603L247.504 386.761C247.354 386.023 247.068 385.784 246.287 385.796C246.196 385.785 246.127 385.74 246.081 385.512C246.035 385.286 246.052 385.224 246.179 385.198L250.484 384.319ZM166.551 384.761L171.083 385.703C171.197 385.726 171.227 385.792 171.179 386.019C171.126 386.275 171.049 386.287 170.972 386.301C170.08 386.323 169.802 386.444 169.643 387.21L165.967 404.898C165.809 405.665 166.015 405.884 166.826 406.26C166.891 406.303 166.95 406.376 166.903 406.603C166.856 406.83 166.8 406.878 166.687 406.854L162.156 405.913C162.043 405.89 162.011 405.823 162.058 405.596C162.105 405.37 162.174 405.325 162.265 405.314C163.159 405.292 163.436 405.172 163.595 404.406L167.271 386.717C167.43 385.951 167.224 385.731 166.414 385.355C166.335 385.309 166.284 385.268 166.337 385.012C166.383 384.786 166.424 384.734 166.551 384.761ZM156.246 382.219C158.185 382.711 159.506 382.927 161.417 383.412C163.567 383.957 164.416 386.268 163.589 389.529C162.855 392.426 161.759 394.153 160.141 394.401C160.056 396.444 160.08 400.011 160.233 402.534C160.354 404.419 160.639 404.881 161.272 405.042C161.37 405.067 161.405 405.106 161.348 405.331C161.291 405.555 161.25 405.605 161.158 405.612C160.701 405.645 160.264 405.594 159.758 405.465C158.551 405.159 157.809 404.074 157.746 402.143C157.683 399.972 157.742 397.023 157.827 394.8C157.85 394.059 156.881 393.633 156.881 393.633L154.694 402.265C154.508 402.996 154.662 403.336 155.371 403.665C155.448 403.715 155.489 403.785 155.432 404.009C155.375 404.234 155.319 404.279 155.207 404.252L150.95 403.171C150.823 403.139 150.809 403.077 150.866 402.852C150.923 402.627 150.994 402.585 151.085 402.578C151.915 402.609 152.196 402.44 152.388 401.681L156.807 384.248C157.007 383.461 156.84 383.178 156.082 382.806C156.005 382.756 155.955 382.714 156.019 382.461C156.076 382.237 156.161 382.198 156.246 382.219ZM263.331 380.538C263.429 380.51 263.503 380.61 263.626 380.936C264.136 382.51 264.996 384.888 265.63 386.424C265.646 386.48 265.668 386.505 265.684 386.561C265.724 386.7 265.713 386.764 265.659 386.838C265.639 386.874 265.597 386.886 265.583 386.89C265.5 386.914 265.426 386.815 265.336 386.66C264.221 384.656 263.027 382.854 262.172 382.555C261.873 382.459 261.188 382.595 260.714 382.731L265.835 400.657C266.058 401.438 266.373 401.589 267.285 401.509C267.363 401.518 267.448 401.554 267.511 401.777C267.575 402 267.549 402.068 267.438 402.1L262.932 403.382C262.821 403.414 262.764 403.371 262.7 403.148C262.636 402.925 262.676 402.852 262.752 402.801C263.568 402.387 263.742 402.098 263.519 401.317L258.399 383.389C257.953 383.516 257.285 383.767 257.082 384.005C256.548 384.67 256.457 386.837 256.562 389.159C256.568 389.338 256.558 389.462 256.474 389.485C256.46 389.489 256.418 389.501 256.382 389.481C256.297 389.446 256.254 389.397 256.214 389.257C256.198 389.203 256.203 389.171 256.187 389.115C255.901 387.478 255.376 385.005 254.992 383.396C254.91 383.057 254.934 382.93 255.032 382.902L255.059 382.894C256.876 382.497 257.669 382.421 259.259 381.968C260.849 381.515 261.563 381.161 263.302 380.545L263.331 380.538ZM274.622 376.927C274.732 376.889 274.792 376.93 274.869 377.149C274.945 377.368 274.896 377.447 274.837 377.498C274.128 377.93 273.985 378.225 274.243 378.964L280.183 395.97C280.441 396.71 280.737 396.852 281.561 396.75C281.639 396.754 281.727 396.785 281.803 397.003C281.88 397.222 281.859 397.292 281.749 397.33L277.599 398.777C277.477 398.82 277.43 398.773 277.353 398.554C277.277 398.336 277.312 398.262 277.385 398.206C278.063 397.816 278.186 397.465 277.937 396.753L275.096 388.621L271.4 389.91L274.241 398.043C274.49 398.755 274.805 398.952 275.578 398.836C275.67 398.835 275.744 398.871 275.82 399.089C275.897 399.308 275.888 399.374 275.764 399.416L271.617 400.863C271.507 400.901 271.447 400.861 271.37 400.642C271.294 400.423 271.343 400.344 271.402 400.293C272.111 399.861 272.254 399.566 271.996 398.826L266.054 381.82C265.796 381.08 265.5 380.938 264.676 381.041C264.598 381.037 264.51 381.006 264.434 380.787C264.357 380.568 264.38 380.499 264.49 380.461L268.638 379.013C268.761 378.97 268.807 379.017 268.884 379.236C268.961 379.455 268.925 379.528 268.852 379.585C268.174 379.974 268.051 380.325 268.3 381.037L270.941 388.594L274.637 387.305L271.998 379.748C271.749 379.036 271.434 378.838 270.661 378.954C270.569 378.956 270.495 378.92 270.419 378.701C270.342 378.482 270.35 378.417 270.473 378.374L274.622 376.927ZM141.879 383.336C143.005 379.982 145.047 378.099 147.422 378.897C148.095 379.123 148.872 379.873 149.252 380.185C149.296 380.23 149.375 380.256 149.441 380.279C149.612 380.336 149.828 380.347 149.978 380.336C150.054 380.331 150.117 380.322 150.156 380.335C150.248 380.366 150.238 380.485 150.159 380.764C149.769 382.101 149.069 384.71 148.736 386.097L148.689 386.236C148.661 386.318 148.631 386.368 148.569 386.378C148.52 386.391 148.484 386.411 148.458 386.402C148.379 386.376 148.389 386.257 148.418 386.083C148.9 382.941 148.169 380.525 147.034 380.143C145.542 379.642 144.512 380.52 143.968 382.142C143.388 383.873 143.696 385.231 145.238 387.156C146.985 389.303 147.437 392.024 146.219 395.652C144.946 399.446 142.857 401.252 140.125 400.334C139.135 400.002 138.065 399.03 137.557 398.094C137.436 397.931 137.425 397.745 137.486 397.521C137.806 396.435 138.548 393.656 138.865 392.142C138.884 392.087 138.888 392.027 138.897 392C138.943 391.863 139.002 391.821 139.087 391.788C139.122 391.769 139.148 391.778 139.174 391.787L139.187 391.792C139.267 391.818 139.266 391.91 139.237 392.083C138.726 396.408 139.618 398.695 140.66 399.045C142.02 399.501 143.164 398.633 143.782 396.791C144.409 394.922 144.19 393.165 142.89 391.26C141.196 388.825 140.763 386.661 141.879 383.336ZM282.568 373.312C282.662 373.273 282.827 373.33 282.985 373.672C283.483 374.721 284.732 377.28 285.387 378.515L285.431 378.623C285.487 378.757 285.484 378.789 285.429 378.843C285.4 378.887 285.385 378.926 285.358 378.937C285.278 378.97 285.207 378.874 285.113 378.725C283.448 376.15 281.783 375.051 280.605 375.54L278.999 376.207L282.402 384.405L282.641 384.303C282.99 384.159 283.538 383.932 283.634 383.861C283.84 383.713 283.97 383.344 284 382.923C284.025 382.19 283.813 380.394 283.62 379.627C283.567 379.461 283.585 379.391 283.637 379.368C283.664 379.357 283.691 379.346 283.729 379.362C283.845 379.377 283.907 379.413 283.974 379.574L284.007 379.655C284.354 380.83 285.083 382.85 285.438 383.708C285.85 384.699 286.78 386.637 287.309 387.611L287.343 387.691C287.409 387.852 287.392 387.921 287.321 388.014C287.294 388.025 287.292 388.058 287.278 388.064C287.198 388.097 287.138 388.027 287.045 387.878C286.612 387.177 285.478 385.733 284.975 385.314C284.692 385.086 284.33 384.89 284.08 384.931C283.922 384.966 283.039 385.301 282.812 385.396L286.026 393.137C286.304 393.806 286.623 393.895 286.817 393.908C287.024 393.917 287.394 393.825 287.755 393.675C288.304 393.447 288.859 393.122 289.022 392.835C289.585 391.847 289.719 390.316 289.3 387.569C289.287 387.386 289.271 387.268 289.338 387.24C289.364 387.229 289.402 387.243 289.454 387.254C289.556 387.274 289.607 387.285 289.663 387.419C289.685 387.472 289.683 387.505 289.705 387.558C290.063 388.949 290.975 391.866 291.352 392.966C291.492 393.379 291.472 393.482 291.352 393.532L291.339 393.538C289.454 394.289 288.566 394.532 287.777 394.86L283.747 396.534C283.627 396.584 283.578 396.541 283.489 396.327C283.4 396.112 283.431 396.037 283.501 395.977C284.184 395.504 284.308 395.201 284.008 394.478L277.115 377.869C276.804 377.119 276.5 376.993 275.684 377.144C275.592 377.151 275.528 377.145 275.428 376.905C275.339 376.691 275.344 376.626 275.464 376.576L280.297 374.569C281.073 374.247 281.776 373.861 282.528 373.328L282.568 373.312ZM130.152 373.053C130.242 372.84 130.305 372.803 130.412 372.848L134.583 374.604C134.689 374.649 134.707 374.72 134.617 374.934C134.516 375.173 134.451 375.177 134.36 375.17C133.439 375.003 133.199 375.124 132.884 375.872L126.076 392.075C125.795 392.744 125.906 393.074 126.189 393.225C126.283 393.264 126.393 393.342 126.527 393.398C127.008 393.601 127.726 393.84 128.212 393.73C129.34 393.481 131.15 391.568 132.533 389.664C132.629 389.547 132.702 389.484 132.769 389.511C132.809 389.528 132.839 389.573 132.88 389.622C132.922 389.671 132.94 389.741 132.884 389.875C132.861 389.929 132.839 389.982 132.803 390.03C131.973 391.443 130.359 394.571 129.845 395.645C129.65 396.035 129.59 396.103 129.457 396.046L129.443 396.042C128.385 395.565 126.745 394.749 126.009 394.439L122.04 392.768C121.933 392.723 121.915 392.653 122.005 392.439C122.094 392.225 122.183 392.2 122.261 392.201C123.158 392.389 123.421 392.249 123.725 391.527L130.693 374.949C131.008 374.201 130.939 373.952 130.162 373.404C130.093 373.344 130.051 373.294 130.152 373.053ZM157.402 391.581C157.174 392.481 157.833 392.888 158.549 393.069C159.561 393.326 160.692 391.757 161.405 388.945C162.039 386.443 161.659 384.581 160.493 384.285C160.085 384.181 159.424 384.074 159.304 384.073L157.402 391.581ZM121.502 368.9C121.601 368.691 121.666 368.658 121.77 368.708L125.846 370.67C125.95 370.72 125.965 370.793 125.864 371.002C125.751 371.237 125.685 371.238 125.594 371.226C124.683 371.012 124.439 371.12 124.086 371.851L116.45 387.681C116.135 388.334 116.23 388.671 116.505 388.836C116.596 388.88 116.701 388.962 116.832 389.025C117.302 389.252 118.007 389.527 118.498 389.442C119.637 389.25 121.543 387.432 123.022 385.601C123.124 385.489 123.201 385.43 123.267 385.461C123.306 385.48 123.333 385.525 123.373 385.577C123.413 385.628 123.427 385.699 123.364 385.83C123.338 385.882 123.313 385.934 123.275 385.98C122.373 387.349 120.6 390.39 120.032 391.436C119.816 391.815 119.752 391.881 119.622 391.818L119.609 391.812C118.576 391.282 116.98 390.385 116.262 390.039L112.382 388.169C112.279 388.12 112.265 388.048 112.366 387.839C112.466 387.631 112.556 387.61 112.634 387.615C113.519 387.849 113.79 387.72 114.13 387.015L121.944 370.819C122.297 370.088 122.241 369.836 121.494 369.25C121.428 369.186 121.388 369.135 121.502 368.9ZM301.377 364.295C301.492 364.236 301.544 364.274 301.639 364.454C301.733 364.634 301.736 364.731 301.66 364.836C301.282 365.427 301.29 366.6 301.715 367.786L308.025 385.273C308.148 385.601 307.944 385.838 307.752 385.939C307.598 386.02 307.286 386.05 307.047 385.718L297.21 372.271L302.849 387.98C302.972 388.309 302.77 388.546 302.578 388.647C302.436 388.721 302.151 388.771 301.885 388.419L289.765 372.238C289.339 371.675 288.94 371.753 288.37 371.79C288.28 371.804 288.213 371.741 288.132 371.586C288.025 371.381 288.011 371.29 288.099 371.243L291.837 369.288C291.94 369.235 292.006 369.298 292.086 369.452C292.193 369.658 292.208 369.716 292.107 369.835C291.713 370.301 291.509 370.539 291.684 370.873C291.711 370.925 291.725 370.95 291.765 370.995L300.047 382.376L295.966 371.023C295.87 370.746 295.75 370.482 295.629 370.251C295.144 369.325 294.527 368.896 293.712 368.995C293.621 369.009 293.554 368.946 293.473 368.792C293.366 368.586 293.352 368.495 293.442 368.448L297.011 366.581C297.1 366.534 297.179 366.591 297.26 366.745C297.368 366.95 297.383 367.008 297.281 367.127C296.913 367.548 296.736 367.804 296.911 368.138C296.938 368.189 296.952 368.215 296.992 368.26L305.22 379.668L301.033 368.044C300.951 367.826 300.869 367.606 300.775 367.426C300.304 366.527 299.677 366.299 298.95 366.253C298.795 366.236 298.728 366.206 298.634 366.026C298.526 365.82 298.551 365.774 298.68 365.707L301.377 364.295ZM116.5 365.966C116.784 365.627 116.957 365.523 117.172 365.642C117.388 365.76 117.382 365.954 117.249 366.41L111.534 385.522C111.313 386.26 111.472 386.876 111.923 387.288C112.011 387.369 112.01 387.434 111.912 387.612C111.801 387.816 111.733 387.878 111.631 387.822L107.574 385.603C107.473 385.547 107.475 385.449 107.558 385.297C107.67 385.094 107.737 385.032 107.93 385.071C108.521 385.229 108.781 385.206 108.976 384.85C109.017 384.774 109.046 384.691 109.089 384.582L110.48 380.22L107.262 378.461L105.295 380.854C105.105 381.08 104.953 381.296 104.842 381.499C104.453 382.211 104.536 382.818 105.195 383.608C105.269 383.714 105.278 383.786 105.168 383.99C105.057 384.193 104.991 384.191 104.851 384.114L101.914 382.506C101.761 382.423 101.736 382.376 101.847 382.173C101.958 381.969 102.012 381.933 102.154 381.945C103.049 381.971 103.781 381.446 104.623 380.419L116.5 365.966ZM139.582 377.673C139.889 376.86 140.498 376.439 140.959 376.612C141.433 376.792 141.597 377.504 141.29 378.318L141.239 378.454C140.764 379.546 139.213 382.586 138.364 384.219C138.244 384.452 138.165 384.455 138.016 384.399C137.867 384.342 137.811 384.29 137.876 384.035C138.318 382.249 139.154 378.969 139.531 377.81L139.582 377.673ZM305.018 361.364C307.952 359.578 311.978 362.423 315.525 368.241C319.071 374.06 319.738 378.915 316.804 380.701C313.882 382.479 309.859 379.666 306.313 373.848C302.768 368.03 302.097 363.143 305.018 361.364ZM314.145 370.879C310.538 364.962 307.091 361.731 305.507 362.696C304.208 363.487 304.723 366.365 307.653 371.2C307.668 371.225 307.698 371.273 307.714 371.298C311.124 376.894 314.731 380.333 316.291 379.384C317.565 378.607 317.072 375.682 314.145 370.879ZM96.3307 376.289C97.0986 375.059 98.3033 374.308 98.9303 374.7C99.5453 375.085 99.3975 376.497 98.6295 377.727C97.8765 378.932 96.6566 379.708 96.0416 379.323C95.4146 378.931 95.5777 377.494 96.3307 376.289ZM108.05 377.47L110.875 379.015L113.453 370.909L108.05 377.47ZM96.7164 353.733C96.8473 353.542 96.9164 353.518 97.0123 353.584L99.6852 355.405C99.8651 355.527 99.8225 355.744 99.7555 356.048L96.2926 369.831L102.37 360.918C103.089 359.864 103.134 358.843 102.627 358.146C102.584 358.081 102.539 358.016 102.686 357.8C102.817 357.609 102.886 357.586 102.981 357.651L105.727 359.522C105.822 359.587 105.827 359.659 105.696 359.851C105.549 360.067 105.472 360.05 105.383 360.025C104.529 359.863 103.696 360.313 102.993 361.342L92.6686 376.484C92.3421 376.963 92.2317 377.098 92.1119 377.018C91.8369 376.83 91.7696 376.643 91.9586 375.929L96.6705 357.561L88.1754 370.019C87.4566 371.074 87.4109 372.094 87.9069 372.783C87.9617 372.856 87.9885 372.945 87.859 373.136C87.728 373.327 87.6581 373.352 87.5631 373.286L84.8414 371.431C84.7458 371.366 84.743 371.295 84.8737 371.103C85.0046 370.911 85.0965 370.904 85.1725 370.92C86.0355 371.122 86.8494 370.624 87.5524 369.594L96.7653 356.082C97.2192 354.953 96.9648 354.709 96.6578 354.078C96.6179 353.982 96.5697 353.949 96.7164 353.733ZM315.018 355.319C316.842 354.054 319.144 354.928 321.063 357.691C322.766 360.144 323.35 362.104 322.474 363.489C323.961 364.892 326.669 367.214 328.673 368.753C330.175 369.898 330.713 369.986 331.25 369.614C331.333 369.556 331.384 369.555 331.517 369.745C331.649 369.936 331.658 370 331.603 370.074C331.328 370.441 331.005 370.737 330.576 371.034C329.551 371.746 328.244 371.593 326.744 370.375C325.065 368.999 322.878 367.021 321.256 365.499C320.711 364.994 319.755 365.447 319.755 365.447L324.833 372.759C325.263 373.378 325.619 373.485 326.333 373.166C326.422 373.14 326.502 373.155 326.634 373.344C326.766 373.535 326.763 373.607 326.669 373.673L323.056 376.179C322.949 376.254 322.892 376.224 322.76 376.033C322.628 375.843 322.643 375.762 322.698 375.688C323.266 375.082 323.325 374.759 322.878 374.116L312.623 359.346C312.16 358.679 311.836 358.622 311.057 358.95C310.969 358.976 310.905 358.985 310.756 358.771C310.625 358.58 310.651 358.491 310.722 358.441C312.367 357.3 313.397 356.444 315.018 355.319ZM80.4449 340.555C80.5957 340.38 80.6735 340.333 80.7614 340.408L84.2643 343.407C84.3523 343.482 84.3294 343.577 84.2164 343.709C84.0654 343.885 83.9763 343.923 83.8063 343.854C83.2413 343.6 82.9379 343.531 82.6559 343.861C82.5989 343.928 82.5534 344.003 82.5074 344.079L75.236 356.828L85.3727 348.515C85.5265 348.38 85.6617 348.267 85.7936 348.113C86.2836 347.54 86.4448 346.838 86.1168 345.793C86.0848 345.652 86.0703 345.6 86.2213 345.424C86.3712 345.248 86.4344 345.264 86.5563 345.368L89.0719 347.521C89.1017 347.521 89.1318 347.529 89.1666 347.556L93.316 350.746C93.9819 351.258 94.6677 351.675 95.5035 352.062L95.5377 352.087C95.6187 352.149 95.6513 352.321 95.4323 352.629C94.7722 353.584 93.1782 355.944 92.4342 357.128L92.3639 357.22C92.2759 357.335 92.2465 357.35 92.1715 357.329C92.1186 357.326 92.0783 357.331 92.0553 357.313C91.9863 357.26 92.0338 357.151 92.1168 356.995C93.5178 354.267 93.6395 352.276 92.6285 351.498L91.2487 350.438L85.8434 357.477L86.0504 357.635C86.3483 357.865 86.8201 358.228 86.9293 358.276C87.1603 358.38 87.5435 358.309 87.9225 358.125C88.5704 357.781 90.0213 356.701 90.5905 356.151C90.7075 356.022 90.7779 356.002 90.8239 356.037C90.8468 356.055 90.8696 356.073 90.8746 356.113C90.9195 356.221 90.919 356.293 90.8131 356.431L90.7604 356.501C89.9145 357.386 88.5267 359.027 87.9615 359.763C87.3085 360.614 86.0923 362.388 85.5133 363.333L85.4606 363.402C85.3546 363.54 85.2845 363.559 85.1686 363.543C85.1456 363.526 85.1161 363.54 85.1051 363.531C85.0364 363.478 85.0671 363.391 85.15 363.236C85.541 362.512 86.2275 360.809 86.3395 360.163C86.3955 359.804 86.3833 359.392 86.2233 359.196C86.1141 359.076 85.3841 358.479 85.1891 358.328L80.0846 364.976C79.6431 365.551 79.7253 365.87 79.8102 366.045C79.9062 366.229 80.1702 366.506 80.4801 366.744C80.951 367.107 81.5104 367.425 81.8414 367.423C82.9774 367.419 84.3716 366.771 86.5426 365.038C86.6945 364.936 86.7883 364.861 86.8453 364.906C86.8683 364.923 86.8744 364.963 86.8912 365.012C86.9242 365.111 86.9411 365.162 86.8531 365.277C86.8173 365.323 86.7884 365.337 86.7535 365.382C85.7266 366.386 83.6533 368.633 82.8893 369.509C82.6015 369.836 82.503 369.87 82.399 369.792L82.3873 369.783C80.7965 368.523 80.1424 367.875 79.4645 367.354L76.0055 364.695C75.9015 364.615 75.9144 364.552 76.0553 364.368C76.1963 364.184 76.2789 364.173 76.3649 364.203C77.1146 364.56 77.4398 364.517 77.9166 363.896L88.8698 349.633C89.3505 349.007 89.3147 348.676 88.817 348.077C88.8051 348.076 88.7957 348.076 88.7828 348.075C87.7858 347.947 86.7962 348.323 85.9752 348.994L71.8209 360.624C71.416 360.964 70.957 361.143 70.7369 360.956C70.527 360.776 70.6702 360.251 70.8951 359.832L80.5211 342.34C80.8181 341.792 80.6248 341.283 80.3668 340.871C80.3078 340.783 80.3129 340.71 80.4449 340.555ZM323.229 349.403C323.32 349.332 323.391 349.351 323.534 349.534C323.694 349.739 323.666 349.798 323.616 349.875C323.019 350.596 323.007 350.863 323.505 351.503L334.303 365.371C334.749 365.943 335.093 366.007 335.363 365.834C335.443 365.771 335.564 365.713 335.677 365.625C336.089 365.305 336.649 364.796 336.792 364.318C337.126 363.213 336.343 360.698 335.359 358.561C335.304 358.42 335.285 358.325 335.341 358.28C335.375 358.254 335.428 358.25 335.492 358.237C335.556 358.224 335.626 358.243 335.714 358.358C335.749 358.404 335.785 358.449 335.809 358.503C336.635 359.918 338.574 362.857 339.259 363.831C339.503 364.192 339.535 364.278 339.421 364.367L339.409 364.376C338.476 365.065 336.963 366.095 336.334 366.585L332.934 369.229C332.843 369.3 332.773 369.28 332.63 369.097C332.489 368.914 332.509 368.823 332.549 368.756C333.151 368.068 333.158 367.769 332.676 367.151L321.629 352.962C321.13 352.323 320.879 352.26 320.022 352.669C319.935 352.699 319.872 352.712 319.712 352.506C319.57 352.324 319.568 352.25 319.66 352.179L323.229 349.403ZM319.187 358.957C317.715 356.837 316.06 355.903 315.071 356.588C314.725 356.828 314.21 357.256 314.13 357.346L318.547 363.708C319.076 364.469 319.816 364.239 320.424 363.817C321.282 363.221 320.841 361.339 319.187 358.957ZM330.888 342.941C333.282 340.857 337.379 342.405 342.045 347.765C346.768 353.191 347.549 357.243 345.068 359.403L341.406 362.59C341.319 362.666 341.247 362.652 341.094 362.477C340.942 362.302 340.949 362.219 340.995 362.14C341.503 361.466 341.525 361.139 341.011 360.548L329.203 346.985C328.67 346.372 328.341 346.349 327.604 346.76C327.519 346.795 327.457 346.811 327.286 346.615C327.115 346.418 327.149 346.349 327.215 346.292C328.723 344.979 329.49 344.159 330.888 342.941ZM340.609 349.978C336.19 344.902 332.547 343.035 331.367 344.063C331.039 344.349 330.556 344.92 330.556 344.92L342.462 358.594C342.976 359.185 343.636 359.149 344.194 358.664C345.101 357.873 345.674 355.796 340.609 349.978ZM78.3473 338.201C78.7072 337.942 78.9007 337.883 79.0807 338.051C79.2607 338.219 79.2055 338.407 78.9635 338.816L68.6969 355.919C68.2999 356.581 68.3013 357.217 68.6373 357.728C68.7022 357.829 68.6844 357.891 68.5455 358.04C68.3875 358.209 68.3073 358.252 68.2223 358.173L64.8385 355.019C64.7535 354.94 64.782 354.846 64.901 354.718C65.0587 354.55 65.1392 354.505 65.317 353.692C65.8499 354.891 66.1074 354.933 66.3844 354.636C66.4433 354.572 66.4923 354.499 66.5602 354.405L68.9879 350.523L66.3043 348.021L63.8043 349.853C63.5645 350.025 63.3656 350.197 63.2076 350.366C62.6547 350.96 62.584 351.568 63.027 352.497C63.0719 352.618 63.0648 352.69 62.9069 352.86C62.748 353.03 62.6857 353.011 62.5699 352.902L60.1198 350.618C59.9918 350.499 59.9795 350.448 60.1373 350.279C60.2953 350.109 60.3568 350.085 60.4918 350.132C61.3518 350.379 62.1914 350.052 63.2614 349.265L78.3473 338.201ZM227.987 2.05524C239.987 -0.444814 252.435 -0.915062 263.987 2.05524L266.987 4.05524C267.419 12.0924 266.38 20.0489 263.737 27.6373C262.876 30.4116 262.46 33.1184 262.048 35.9927C261.264 41.0952 259.855 45.6044 257.991 50.4068C257.38 51.9786 257.053 53.6401 256.73 55.274C256.51 56.3932 256.291 57.4994 255.987 58.5552C255.531 59.8318 255.108 61.1921 254.667 62.6109C252.69 68.9708 250.345 76.5145 242.987 83.0552C242.487 84.0552 242.987 85.5552 243.987 86.0552C245.572 85.9498 246.423 85.8938 247.236 85.6871C248.177 85.4477 249.067 85.0064 250.987 84.0552C252.353 82.5125 253.057 81.7151 253.682 80.8589C254.348 79.9446 254.924 78.9611 256.111 76.9312L258.716 72.8326C259.97 70.7459 261.204 68.6451 262.349 66.4966C263.982 63.4493 266.147 61.5325 268.987 59.5552C269.469 59.2537 269.908 58.9738 270.318 58.7125C273.308 56.8067 274.771 55.8742 280.487 54.5552C285.348 54.0838 287.848 52.1554 290.897 49.8023C291.689 49.1914 292.519 48.5511 293.436 47.9009C294.108 47.5128 294.783 47.1225 295.463 46.7349C297.017 45.9938 297.887 45.5796 298.8 45.3482C299.959 45.0552 301.193 45.0552 303.987 45.0552L306.798 48.3677C309.735 52.2206 309.736 52.2207 313.798 54.0552L314.322 54.2242C320.051 56.0807 321.243 56.4673 329.873 53.5084C333.048 53.0368 335.785 52.7645 338.987 53.0552C340.57 53.8477 341.617 54.8585 342.71 55.9127C344.213 57.3636 345.801 58.8969 348.987 60.0552L350.987 61.0552L351.487 64.0552C351.487 64.3332 351.485 64.5869 351.484 64.8199C351.475 66.2621 351.471 66.9049 351.862 67.5552C352.072 67.905 352.692 68.3777 353.368 68.8931C353.886 69.288 354.438 69.7092 354.862 70.1177L356.987 72.0552C358.338 74.0429 359.673 76.0419 360.987 78.0552L362.987 80.0552L366.487 80.3677L369.987 81.0552C370.5 81.5 371.249 82.3719 371.5 82.9996L375.987 88.0552L377.737 90.9927L379.987 94.0552C382.646 95.0746 385.313 96.0725 387.987 97.0552C391.149 99.1688 393.326 101.25 395.987 104.055C395.695 108.441 393.694 112.099 391.626 115.881L391.62 115.893C391.41 116.277 391.196 116.668 390.987 117.055L388.987 119.055L388.423 123.68C387.83 126.749 387.216 128.734 385.384 131.282C379.887 136.614 373.69 139.003 366.584 141.614C361.825 143.521 358.15 146.081 353.987 149.055L350.923 150.555C349.48 151.215 348.687 151.577 347.978 152.06C347.115 152.648 346.375 153.416 344.737 155.118C341.702 157.493 339.762 158.093 335.893 158.747C332.757 159.039 329.621 159.314 326.483 159.575C318.774 160.398 312.47 162.55 305.862 166.555C302.708 168.976 302.708 168.976 300.987 173.055C300.38 175.31 300.098 176.359 299.987 177.425C299.89 178.353 299.987 179.555 300.487 181.055C301.232 180.896 301.543 180.781 301.854 180.667C302.008 180.61 302.163 180.553 302.37 180.491C303.222 180.235 304.045 179.883 305.987 179.055C308.997 179.277 311.999 179.623 314.987 180.055L317.47 180.176C322.969 180.458 327.214 181.526 331.948 184.395C335.338 187.156 337.388 190.639 339.562 194.334L339.802 194.743L339.987 195.055L342.987 199.055C343.747 201.197 344.43 203.368 345.048 205.555C346.133 209.354 347.209 212.5 348.987 216.055C349.518 219.872 349.874 223.687 350.229 227.524C350.473 229.414 350.588 230.301 350.98 231.043C351.071 231.217 351.145 231.403 351.224 231.602C351.444 232.154 351.704 232.803 352.487 233.555C352.817 233.846 353.26 234.188 353.708 234.533L353.718 234.541L354.987 235.555C355.108 235.864 355.227 236.165 355.343 236.461C356.378 239.077 357.234 241.236 357.987 244.055L358.72 246.761C358.958 247.75 359.108 248.373 359.234 249.001C359.286 249.26 359.358 249.511 359.437 249.786C359.683 250.645 359.997 251.742 359.986 254.053L359.234 255.223L358.72 256C358.232 256.926 357.566 256.995 357.06 257.047L356.987 257.055L353.423 257.43L349.987 258.055L348.237 260.305L347.87 261.894L347.866 261.907C347.698 262.494 347.529 263.084 347.487 263.555C349.698 266.32 352.535 268.456 355.361 270.583L355.733 270.864L355.987 271.055C357.848 272.758 358.861 274.628 359.851 276.456C360.724 278.069 361.58 279.649 362.987 281.055L364.987 284.055C366.259 289.271 366.709 294.728 365.987 300.055C364.906 302.724 363.616 305.172 362.233 307.696C358.95 313.911 358.727 320.157 358.858 327.02C359.127 333.37 359.496 339.142 361.987 345.058C362.227 346.379 362.122 347.39 362.037 348.214C361.984 348.722 361.939 349.16 361.987 349.555C362.033 349.938 362.182 350.276 362.352 350.661C362.609 351.243 362.914 351.934 362.986 353.054C362.86 353.244 362.748 353.57 362.633 353.935L361.987 355.555C361.737 355.805 361.737 356.055 361.737 356.305L361.487 357.055L288 277.653V323H281.5L206 241C205.982 240.982 204.964 240 201 240V236H247V240C239.047 240 239 243.953 239 244L281 289V270.09L189 170.686V208H184C183.999 207.895 183.942 188 162 188V219C162 219 162 224.836 172 225C202.5 224.5 208 203 208 203H214L208 230H129V226C129 226 138 225 138 219V156C137.999 147 129 147 129 147V143H163.375L112.986 88.5552C107.868 83.0828 102.785 77.5805 97.7281 72.0513C94.6539 68.6925 91.5716 65.341 88.486 61.9927L85.5172 58.7701C83.7093 56.8311 81.8605 54.9298 79.986 53.0552C78.3268 51.3962 78.9653 50.8358 80.3932 49.5826C80.5785 49.4199 80.7773 49.2452 80.986 49.0552C82.3202 47.8408 83.0348 47.1907 83.775 46.5718C84.6275 45.8591 85.515 45.1872 87.4235 43.7427L90.9821 41.0045C91.4703 40.6877 91.5949 40.5998 91.7174 40.5132L92.486 39.9996C93.4857 39.4997 94.4858 39.4999 94.986 39.9996C94.986 42.9973 95.2975 44.2086 95.6412 45.5455C95.7561 45.9922 95.8742 46.4531 95.986 46.9996C99.5261 61.3539 112.582 75.3206 122.607 85.7935C126.334 89.2315 130.09 92.5563 134.987 94.0552C139.863 94.1835 143.174 93.8118 147.642 91.9459C151.923 89.4444 154.447 86.9854 156.948 82.6763C159.966 75.768 161.787 69.4018 161.401 61.8404C160.978 58.999 160.295 56.4142 159.423 53.6793C158.536 50.8244 158.197 49.7318 158.116 48.6207C158.065 47.9324 158.114 47.2364 158.194 46.1099C158.494 44.9541 159.23 43.7579 160.037 42.4468C160.933 40.9922 161.915 39.3959 162.487 37.5552C163.386 36.4763 164.496 34.9395 165.752 33.2007C167.989 30.1045 170.69 26.367 173.487 23.4302C179.415 17.7985 180.987 16.5552 192.987 12.5552C193.536 12.3343 194.114 12.079 194.697 11.8218L196.487 11.0552C198.265 10.367 199.703 9.72706 200.984 9.15778C205.193 7.28672 207.703 6.17188 214.987 6.55524C218.626 6.12515 224.771 3.76706 227.987 2.05524ZM347.965 349.939C348.493 349.442 349.823 349.943 350.817 350.999C351.791 352.033 352.232 353.411 351.704 353.908C351.166 354.415 349.816 353.892 348.842 352.858C347.849 351.802 347.428 350.446 347.965 349.939ZM67.3131 347.256L69.6676 349.453L74.1715 342.236L67.3131 347.256ZM68.2438 328.334C68.4105 328.173 68.4723 328.154 68.5621 328.248L72.1949 332.014C72.7789 332.62 73.3947 333.133 74.1647 333.639L74.1949 333.671C74.2649 333.745 74.2713 333.919 74.0104 334.191C73.2152 335.038 71.2885 337.135 70.3766 338.195L70.2936 338.275C70.1888 338.376 70.1574 338.385 70.0865 338.353C70.0355 338.342 69.9942 338.341 69.9742 338.321C69.9133 338.258 69.9777 338.156 70.0826 338.014C71.8723 335.526 72.2886 333.575 71.4039 332.657L70.1969 331.405L63.8043 337.562L63.986 337.75C64.2467 338.02 64.6589 338.448 64.7604 338.511C64.9733 338.648 65.3633 338.635 65.7653 338.509C66.4573 338.265 68.0529 337.414 68.6979 336.954C68.8328 336.844 68.905 336.835 68.9449 336.877C68.9659 336.897 68.9859 336.918 68.985 336.959C69.014 337.072 69.0014 337.143 68.8766 337.264L68.8131 337.325C67.8451 338.077 66.2291 339.491 65.5602 340.135C64.7883 340.88 63.3231 342.452 62.61 343.3L62.5465 343.362C62.4217 343.483 62.3497 343.49 62.2379 343.459C62.218 343.438 62.1865 343.447 62.1764 343.437C62.1154 343.374 62.1585 343.293 62.2633 343.152C62.7573 342.494 63.6901 340.912 63.8961 340.29C64.0051 339.944 64.0543 339.535 63.9254 339.317C63.8354 339.182 63.2029 338.483 63.0319 338.305L56.9948 344.121C56.473 344.623 56.5081 344.952 56.566 345.138C56.634 345.334 56.8527 345.645 57.1246 345.927C57.5376 346.355 58.0428 346.754 58.3698 346.801C59.4947 346.965 60.9697 346.53 63.3756 345.139C63.5405 345.06 63.645 345.001 63.6949 345.053C63.7149 345.074 63.7133 345.116 63.7233 345.167C63.7413 345.27 63.7511 345.32 63.6461 345.421C63.6043 345.461 63.5746 345.472 63.5328 345.511C62.3678 346.351 59.9833 348.266 59.0973 349.019C58.7651 349.299 58.6618 349.319 58.5709 349.225L58.5602 349.213C57.1724 347.733 56.6228 346.994 56.0299 346.379L53.0006 343.238C52.9106 343.144 52.9313 343.082 53.0992 342.921C53.266 342.761 53.3484 342.762 53.4293 342.804C54.1182 343.268 54.4465 343.275 55.0104 342.732L67.9615 330.256C68.5464 329.693 68.5527 329.365 68.1149 328.66C68.0749 328.577 68.0558 328.515 68.2438 328.334ZM60.9108 319.911C61.0857 319.759 61.159 319.753 61.235 319.841L64.1061 323.164C64.192 323.263 64.1675 323.322 63.9918 323.473C63.817 323.625 63.7348 323.62 63.6559 323.573C63.0439 323.087 62.6722 323.1 62.1022 323.593L56.0504 328.828L58.611 331.788L64.6627 326.554C65.2323 326.061 65.3005 325.697 64.9078 325.021C64.8728 324.936 64.8785 324.854 65.0533 324.702C65.2292 324.551 65.2916 324.535 65.3776 324.632L68.2506 327.956C68.3256 328.043 68.3102 328.113 68.1354 328.265C67.9594 328.417 67.8685 328.401 67.7985 328.365C67.1365 327.865 66.8094 327.841 66.2174 328.353L52.5992 340.128C52.0073 340.639 51.9835 340.967 52.3824 341.695C52.4084 341.769 52.4114 341.862 52.2369 342.012C52.062 342.164 51.9887 342.17 51.9127 342.082L49.0406 338.759C48.9548 338.66 48.98 338.602 49.1559 338.45C49.3308 338.298 49.4128 338.304 49.4918 338.351C50.1036 338.837 50.4747 338.823 51.0446 338.33L57.5573 332.698L54.9977 329.738L48.485 335.37C47.915 335.863 47.8469 336.228 48.2399 336.904C48.2747 336.988 48.2681 337.069 48.0934 337.221C47.9174 337.373 47.8552 337.389 47.7692 337.291L44.8971 333.968C44.8215 333.881 44.8368 333.809 45.0123 333.658C45.1873 333.507 45.2783 333.524 45.3483 333.559C46.0102 334.06 46.3375 334.083 46.9293 333.571L60.5475 321.795C61.1394 321.284 61.1632 320.957 60.7643 320.229C60.7383 320.155 60.7358 320.063 60.9108 319.911ZM49.1881 312.949C52.0301 310.839 54.7839 310.46 56.2789 312.473C56.7029 313.044 56.9105 314.105 57.0455 314.578C57.0555 314.64 57.1042 314.706 57.1461 314.762C57.2541 314.907 57.4253 315.041 57.5553 315.118C57.6192 315.157 57.6767 315.184 57.7018 315.217C57.7598 315.295 57.6826 315.388 57.4586 315.572C56.3737 316.447 54.3069 318.188 53.2408 319.136L53.1237 319.222C53.0539 319.274 52.9998 319.299 52.943 319.271C52.8952 319.255 52.8546 319.25 52.8375 319.228C52.7875 319.16 52.8649 319.069 52.9879 318.943C55.1797 316.639 55.9614 314.237 55.2477 313.275C54.3087 312.011 52.9615 312.143 51.5875 313.163C50.1206 314.253 49.5964 315.543 49.7623 318.004C49.9693 320.765 48.7855 323.259 45.7106 325.542C42.4967 327.927 39.7479 328.216 38.0289 325.9C37.4059 325.061 37.0828 323.652 37.2008 322.593C37.1939 322.391 37.2915 322.23 37.4694 322.082C38.3533 321.374 40.5513 319.516 41.6783 318.455C41.7243 318.42 41.7627 318.374 41.7867 318.357C41.9026 318.27 41.9743 318.269 42.0621 318.291C42.102 318.296 42.1185 318.317 42.1354 318.34L42.1432 318.352C42.1931 318.419 42.1401 318.493 42.0172 318.619C39.1244 321.877 38.5487 324.265 39.2047 325.149C40.0607 326.301 41.4964 326.24 43.0573 325.082C44.6412 323.906 45.4659 322.34 45.4879 320.034C45.4889 317.066 46.3694 315.041 49.1881 312.949ZM180 236C180 236 208.999 236 209 259C209 273.937 197 280 192 280C191.009 280 191.982 280.982 192 281C192 281 224.995 316.994 226 318C226.997 318.997 230.982 319 231 319V323H198L162 284C162 284 162 300.999 162 310C162 318.987 171.971 319 172 319V323H129V319C129 319 138 319 138 310V249C137.999 240 129 240 129 240V236H180ZM49.8629 304.773C50.0549 304.642 50.119 304.633 50.192 304.741L52.7975 308.565C52.8623 308.661 52.839 308.73 52.6471 308.86C52.4314 309.007 52.3673 308.963 52.3024 308.919C51.6445 308.315 51.3614 308.209 50.7145 308.65L35.778 318.816C35.131 319.257 35.1259 319.559 35.4479 320.392C35.4647 320.468 35.4568 320.561 35.2653 320.692C35.0735 320.822 35.0011 320.818 34.9362 320.722L32.3307 316.899C32.2657 316.803 32.2886 316.734 32.4801 316.604C32.6721 316.473 32.7528 316.489 32.8258 316.544C33.4837 317.148 33.7668 317.255 34.4137 316.814L49.3502 306.648C49.9972 306.207 50.0023 305.905 49.6803 305.072C49.6553 304.984 49.6469 304.92 49.8629 304.773ZM43.566 294.698C43.7625 294.577 43.8342 294.583 43.8951 294.681L46.1949 298.422C46.2639 298.533 46.2286 298.589 46.0319 298.711C45.8339 298.832 45.7532 298.812 45.6832 298.753C45.1574 298.176 44.789 298.13 44.1461 298.525L37.3278 302.718L39.3766 306.051L46.1959 301.859C46.8388 301.464 46.9632 301.113 46.6852 300.383C46.6643 300.295 46.6837 300.214 46.8815 300.092C47.0784 299.971 47.1436 299.966 47.2115 300.077L49.5104 303.818C49.5713 303.917 49.5442 303.984 49.3473 304.106C49.1497 304.227 49.0626 304.196 48.9996 304.149C48.4268 303.549 48.1077 303.473 47.441 303.883L32.0963 313.319C31.4296 313.729 31.3526 314.048 31.6295 314.83C31.6425 314.907 31.6312 314.999 31.4332 315.121C31.2354 315.243 31.1631 315.235 31.1031 315.136L28.8033 311.396C28.7354 311.285 28.7696 311.23 28.9674 311.109C29.1654 310.987 29.245 311.006 29.316 311.065C29.8408 311.643 30.2095 311.688 30.8512 311.294L38.191 306.781L36.1412 303.448L28.8024 307.961C28.1604 308.355 28.0341 308.705 28.3131 309.435C28.334 309.525 28.3156 309.604 28.1178 309.726C27.9199 309.847 27.8557 309.853 27.7877 309.742L25.4879 306.001C25.4279 305.903 25.454 305.834 25.652 305.713C25.8497 305.592 25.9367 305.623 25.9996 305.669C26.5725 306.269 26.8915 306.346 27.5582 305.936L42.903 296.501C43.5696 296.091 43.6456 295.771 43.3698 294.989C43.3558 294.912 43.368 294.82 43.566 294.698ZM36.4586 281.087C36.6653 280.983 36.7377 280.996 36.7897 281.098L38.2496 283.981C38.3473 284.175 38.2065 284.345 37.9996 284.579L28.3131 294.98L37.9362 290.102C39.0742 289.525 39.6086 288.652 39.5006 287.797C39.4936 287.721 39.4869 287.643 39.7194 287.525C39.9263 287.42 39.9974 287.433 40.0504 287.536L41.5494 290.496C41.6024 290.599 40.6709 290.664 41.3639 290.769C41.1311 290.887 41.0714 290.836 41.0065 290.771C40.3365 290.218 39.3899 290.21 38.278 290.774L21.9283 299.062C21.4116 299.324 21.2492 299.389 21.1832 299.259C21.0335 298.963 21.0651 298.768 21.5748 298.234L34.5699 284.418L21.1178 291.236C19.9798 291.813 19.4455 292.685 19.5475 293.527C19.5604 293.618 19.5414 293.709 19.3346 293.813C19.1287 293.918 19.0565 293.905 19.0045 293.801L17.5172 290.868C17.4653 290.765 17.4978 290.699 17.7047 290.594C17.9113 290.49 17.9954 290.528 18.0543 290.58C18.7123 291.173 19.666 291.128 20.778 290.564L35.3668 283.168C36.3095 282.398 36.2049 282.062 36.2399 281.362C36.2529 281.258 36.2256 281.205 36.4586 281.087ZM34.2184 275.998C34.4304 275.903 34.4955 275.905 34.5485 276.024L36.4528 280.24C36.5006 280.345 36.4654 280.409 36.2535 280.503C36.0167 280.611 35.9599 280.557 35.9039 280.503C35.3609 279.793 35.1004 279.64 34.3864 279.963L17.9205 287.4C17.2067 287.722 17.1499 288.018 17.3229 288.895C17.3268 288.973 17.303 289.063 17.0914 289.158C16.8805 289.254 16.8093 289.237 16.7614 289.131L14.858 284.917C14.8111 284.811 14.8456 284.747 15.0563 284.652C15.2683 284.556 15.3449 284.585 15.4069 284.653C15.9507 285.362 16.2107 285.515 16.9235 285.193L33.3903 277.756C34.1033 277.433 34.1609 277.137 33.9879 276.26C33.979 276.169 33.9808 276.104 34.2184 275.998ZM24.8121 266.357C28.1149 265.09 30.8681 265.465 31.7643 267.803C32.0183 268.466 31.9332 269.542 31.9352 270.033C31.9282 270.096 31.959 270.174 31.984 270.239C32.049 270.408 32.1769 270.582 32.2809 270.691C32.3327 270.746 32.3792 270.787 32.3942 270.826C32.4292 270.917 32.3319 270.985 32.066 271.101C30.786 271.652 28.3275 272.774 27.0455 273.399L26.9098 273.451C26.8288 273.482 26.7693 273.49 26.7223 273.449C26.6803 273.42 26.6434 273.403 26.6334 273.378C26.6037 273.3 26.7015 273.233 26.8541 273.145C29.5841 271.516 30.9843 269.414 30.5563 268.296C29.9932 266.829 28.661 266.595 27.0631 267.207C25.3574 267.862 24.5065 268.963 24.0026 271.377C23.4586 274.088 21.6467 276.17 18.0729 277.541C14.336 278.974 11.6127 278.513 10.5817 275.823C10.2087 274.849 10.2764 273.406 10.6744 272.419C10.7235 272.222 10.8609 272.095 11.0729 271.999C12.1141 271.555 14.7293 270.357 16.1002 269.637C16.1539 269.617 16.203 269.584 16.2301 269.574C16.365 269.522 16.4354 269.54 16.5143 269.584C16.5513 269.6 16.5619 269.626 16.5719 269.652L16.5768 269.665C16.6058 269.743 16.5344 269.799 16.3824 269.887C12.7205 272.245 11.5227 274.389 11.9166 275.416C12.4286 276.754 13.8273 277.081 15.6422 276.385C17.4832 275.679 18.6994 274.393 19.3414 272.18C20.1414 269.325 21.5356 267.613 24.8121 266.357ZM184 260C183.999 239.5 169 241 169 241C168.976 241 162 241.007 162 245V278C162 278 184 280.5 184 260ZM27.9674 261.744C28.7894 261.46 29.5027 261.658 29.6637 262.125C29.8297 262.604 29.3861 263.186 28.5641 263.471L28.4274 263.519C27.2851 263.853 23.9557 264.606 22.1588 264.998C21.9028 265.055 21.8515 264.995 21.7985 264.845C21.7466 264.695 21.7511 264.616 21.9879 264.503C23.643 263.7 26.6988 262.245 27.8307 261.792L27.9674 261.744ZM25.0338 249.956C25.2836 249.881 25.333 249.942 25.358 250.026C25.934 251.941 26.367 252.977 26.902 254.753C27.817 257.792 24.7195 260.886 17.9137 262.929C11.0247 264.997 7.01013 264.038 6.06213 260.887L4.66272 256.238C4.62974 256.127 4.67244 256.068 4.89417 256.002C5.1161 255.935 5.1898 255.973 5.2428 256.048C5.64675 256.789 5.93536 256.944 6.68518 256.719L23.9088 251.549C24.6854 251.316 24.8411 251.028 24.7692 250.187C24.7722 250.095 24.7838 250.031 25.0338 249.956ZM7.8717 258.846C7.1217 259.071 6.88234 259.688 7.09534 260.396C7.44253 261.548 9.10052 262.926 16.4889 260.709C22.9322 258.775 26.1317 256.225 25.6813 254.726C25.5563 254.31 25.233 253.634 25.233 253.634L7.8717 258.846ZM12.278 241.878C18.9057 240.295 23.7613 241.162 24.5543 244.49C25.3502 247.832 21.4047 250.787 14.777 252.37C8.14898 253.953 3.32395 253.093 2.52795 249.751C1.73498 246.423 5.64997 243.46 12.278 241.878ZM23.1373 244.545C22.7841 243.065 19.8871 242.668 14.3844 243.967C14.3564 243.974 14.3001 243.988 14.2711 243.995C7.89759 245.517 3.5145 247.89 3.93811 249.667C4.28411 251.12 7.21904 251.552 12.691 250.245C19.4318 248.635 23.5673 246.35 23.1373 244.545ZM10.2272 230.437C16.6539 229.297 21.7362 230.383 22.3346 233.765C22.4606 234.479 22.3458 235.662 22.0319 236.38C21.9479 236.572 21.9147 236.888 21.9547 237.116L21.9723 237.215C21.9873 237.3 22.0286 237.367 22.0387 237.424C22.0647 237.567 22.0176 237.635 21.7057 237.705C20.4327 238.004 17.8611 238.621 16.4791 238.969L16.3658 238.99C16.2232 239.016 16.1919 239.006 16.151 238.94C16.117 238.917 16.112 238.888 16.109 238.874C16.092 238.774 16.2295 238.719 16.3385 238.67C20.1755 237.048 21.2711 235.749 20.9781 234.094C20.6697 232.353 17.4953 231.724 12.0699 232.686C4.24401 234.074 1.20139 236.365 1.51233 238.121C1.71331 239.262 2.21544 239.599 3.72913 239.332L9.15686 238.37C9.89863 238.238 10.1127 237.95 10.1656 237.248C10.1717 237.115 10.2804 237.066 10.4801 237.031C10.7091 236.99 10.748 237.042 10.776 237.199L11.4596 241.067C11.4875 241.224 11.4665 241.272 11.2379 241.313C11.0379 241.348 10.9218 241.353 10.8678 241.215C10.5978 240.689 10.2973 240.493 9.55432 240.625L3.2428 241.744C3.0148 241.784 2.95408 241.78 2.73108 241.687C1.45319 241.119 0.380113 239.718 0.0621338 237.92C-0.580592 234.282 3.77257 231.581 10.2272 230.437ZM111 194V156C110.999 147 98.9996 147 98.9996 147V143H127V147C126.974 147 118 147.013 118 156V230H113L51.9996 164.054V219C51.9996 225.991 63.9709 226 63.9996 226V230H32.9996V226C32.9996 226 44.9998 226 45.0123 219C45.0248 211.998 45.0123 156.5 45.0123 156.5L38.9996 150C38.9691 149.969 35.9842 147 32.9996 147V143H63.9996L111 194ZM168.008 148.005C165.222 148.257 162 149.162 162 152V183C179.588 183 183.113 170.216 183.82 165.089L168.008 148.005Z" fill="#CD0019"/>
</svg>
