<svg width="816" height="718" viewBox="0 0 816 718" fill="none" xmlns="http://www.w3.org/2000/svg">
<path d="M375.347 667.688L401.798 686.906H369.104L359 718L348.896 686.906H316.202L342.652 667.688L332.55 636.595L359 655.812L385.45 636.595L375.347 667.688ZM210.594 616.046L243.109 612.629L218.812 634.506L232.11 664.373L203.797 648.026L179.5 669.903L186.298 637.923L157.983 621.575L190.499 618.158L197.296 586.178L210.594 616.046ZM527.501 618.158L560.017 621.576L531.702 637.924L538.5 669.903L514.203 648.026L485.889 664.374L499.187 634.506L474.891 612.629L507.405 616.047L520.703 586.179L527.501 618.158ZM633.125 138C779.414 138 815.987 282.979 815.987 341.48C815.987 363.314 813.771 386.5 807.816 407.612C815.78 333.5 786.487 310 781.987 308C784.487 321.5 778.626 365.921 763.987 388.5C764.114 388.672 765.601 391.422 765.729 391.595C771.225 399.036 776.602 406.313 776.602 431.775C776.602 482.612 730.841 506.778 730.78 506.81C726.987 508.733 727.987 508.5 723.987 510C731.02 504.382 736.427 493 727.987 493C718.141 493 701.488 513 714.987 513.644C701.684 517.871 677.668 524.234 661.258 525.837L652.818 516.983C649.166 517.35 640.188 516.465 640.158 516.462C640.158 516.471 639.883 520.901 639.976 527.083C640.149 538.682 645.003 561.185 651.987 567.5C649.494 572.925 646.504 573.497 646.487 573.5C646.442 573.505 640.143 574.208 635.938 572.94C629.957 571.859 630.079 562.498 630.25 549.552C630.28 547.276 630.312 544.889 630.312 542.418C630.312 536.608 630.499 531.426 630.742 527.148C631.19 519.266 631.827 514.454 631.829 514.439C623.989 511.798 617.652 507.198 617.652 500.45C617.652 480.791 637.47 472.027 647.423 467.626C648.72 467.052 649.85 466.553 650.746 466.113C598.45 466.113 572.64 490.276 572.64 504.266C572.64 517.629 608.583 521.708 619.154 522.908C619.649 522.964 620.089 523.014 620.466 523.059C606.4 524.614 597.959 524.614 585.3 523.059C550.235 516.592 523.631 502.865 503.715 484.684C502.08 483.192 500.491 481.67 498.945 480.119C495.694 476.422 491.84 470.668 491.055 463.569C491.055 435.591 534.661 395.623 633.125 395.623H650.746C680.597 438.111 703.405 468.587 703.457 468.656C703.45 468.601 702.067 457.189 709.083 448.309C710.616 443.458 710.061 438.229 709.466 432.623C708.969 427.941 708.443 422.995 709.083 417.786C709.246 416.52 709.43 415.222 709.613 413.914C710.865 405.009 712.178 395.663 707.975 393H619.033V275H667.142C666.977 274.408 666.888 274.091 666.885 274.078C666.881 274.057 665.48 266.439 666.885 260.089C673.896 258.821 681.936 259.496 681.987 259.5C682.02 259.524 698.556 271.541 706.987 269C709.118 268.358 715.176 266.014 720.487 264.5C728.041 262.346 728.987 261 737.487 255.5C743.898 252.782 751.348 252.476 752.987 250.5C752.987 247.834 749.987 243.5 743.987 240C742.2 237.269 744.487 235.5 742.987 231.5C738.487 228 735.563 223.51 734.402 221.936C734.402 218.12 734.403 215.577 732.996 211.762C728.776 206.675 713.303 192.685 706.27 188.87C699.236 187.598 687.984 186.327 678.138 186.327C674.801 189.344 672.096 192.933 669.575 196.28C666.783 199.988 664.215 203.398 661.258 205.403C657.6 204.742 653.934 203.368 653.487 202.5C653.075 201.699 654.937 201.456 656.487 199C656.684 198.288 657.432 197.595 657.633 196.843C658.866 192.226 660.245 187.064 662.664 183.783C663.572 183.236 664.807 182.511 666.213 181.687C671.337 178.679 678.742 174.334 680.95 172.338C677.118 157.326 652.411 154.896 639.474 153.624C638.163 153.495 636.973 153.378 635.938 153.261C624.686 154.532 619.059 157.076 610.619 161.642C604.616 167.44 602.171 171.688 600.247 175.03C599.466 176.387 598.771 177.595 597.959 178.696C596.771 177.623 594.581 176.776 592.235 175.868C589.024 174.626 585.518 173.27 583.893 171.065C572.665 207.861 561.438 213.01 561.387 213.033C553.781 218.993 539.443 219.392 536.067 216.849C527.632 211.764 514.982 183.033 514.968 183C542.562 156.524 580.835 138 633.125 138ZM101.954 507.406L131.821 520.704L99.8418 527.501L96.4238 560.017L80.0771 531.702L48.0967 538.5L69.9736 514.203L53.627 485.89L83.4941 499.188L105.371 474.891L101.954 507.406ZM230.987 525H216.987V407H230.987V525ZM423.588 498.183C427.649 498.183 430.655 499.568 432.607 502.341C434.132 504.503 434.894 507.27 434.894 510.642C434.894 514.29 434.022 517.324 432.278 519.741C430.232 522.58 427.314 524 423.524 524C419.986 524 417.204 522.758 415.179 520.273C413.373 517.878 412.47 514.85 412.47 511.19C412.47 507.886 413.242 505.058 414.787 502.707C416.771 499.691 419.704 498.183 423.588 498.183ZM241.817 518.727L247.016 498.848H250.398L255.597 518.727L259.935 498.848H263.349L257.304 523.285H254.031L248.723 503.023L243.383 523.285H240.11L234.097 498.848H237.479L241.817 518.727ZM268.494 523.285H265.347V498.848H268.494V523.285ZM288.703 501.759H280.952V523.285H277.789V501.759H270.038V498.848H288.703V501.759ZM293.191 508.945H305.155V498.848H308.303V523.285H305.155V511.856H293.191V523.285H290.044V498.848H293.191V508.945ZM335.035 501.759H327.284V523.285H324.121V501.759H316.37V498.848H335.035V501.759ZM339.523 508.945H351.487V498.848H354.635V523.285H351.487V511.856H339.523V523.285H336.376V498.848H339.523V508.945ZM374.938 501.842H361.205V509.262H373.904V512.089H361.205V520.373H375.173V523.285H358.167V498.848H374.938V501.842ZM390.835 518.727L396.034 498.848H399.416L404.615 518.727L408.952 498.848H412.366L406.322 523.285H403.049L397.74 503.023L392.401 523.285H389.128L383.115 498.848H386.497L390.835 518.727ZM448.041 498.848C449.795 498.848 451.24 499.12 452.378 499.663C454.539 500.706 455.62 502.63 455.62 505.436C455.62 506.899 455.333 508.097 454.759 509.028C454.195 509.96 453.401 510.709 452.378 511.274C453.276 511.663 453.95 512.173 454.398 512.805C454.858 513.437 455.114 514.463 455.166 515.882L455.275 519.159C455.307 520.091 455.379 520.784 455.494 521.238C455.682 522.015 456.017 522.514 456.497 522.735V523.285H452.676C452.571 523.074 452.487 522.802 452.425 522.47C452.362 522.137 452.31 521.494 452.269 520.54L452.081 516.464C452.008 514.867 451.449 513.797 450.405 513.254C449.81 512.954 448.876 512.805 447.603 512.805H440.509V523.285H437.393V498.848H448.041ZM461.705 520.373H473.355V523.285H458.589V498.848H461.705V520.373ZM484.295 498.848C487.458 498.848 489.911 500.04 491.654 502.424C493.21 504.575 493.987 507.331 493.987 510.691C493.987 513.286 493.528 515.632 492.609 517.729C490.991 521.432 488.21 523.285 484.264 523.285H474.978V498.848H484.295ZM423.775 501.127C421.395 501.127 419.453 501.997 417.95 503.738C416.447 505.468 415.695 508.025 415.695 511.407C415.695 514.113 416.337 516.398 417.621 518.261C418.916 520.113 421.009 521.039 423.9 521.039C426.646 521.039 428.63 519.996 429.852 517.911C431.083 515.815 431.699 513.408 431.699 510.691C431.699 507.819 430.989 505.507 429.569 503.755C428.16 502.003 426.229 501.127 423.775 501.127ZM478.109 520.457H483.668C484.722 520.457 485.589 520.34 486.268 520.107C487.479 519.675 488.471 518.843 489.243 517.612C489.859 516.625 490.303 515.361 490.574 513.819C490.731 512.899 490.809 512.045 490.809 511.258C490.809 508.23 490.239 505.879 489.102 504.204C487.974 502.53 486.153 501.692 483.637 501.692H478.109V520.457ZM637.345 493.138C636.993 493.138 636.641 493.456 635.938 494.092C634.532 495.364 633.125 508.08 633.125 509.353C634.532 510.624 638.751 511.896 640.158 511.896C640.158 510.625 640.158 495.366 638.752 494.092C638.049 493.456 637.696 493.138 637.345 493.138ZM440.509 510.043H447.712C449.173 510.043 450.327 509.732 451.173 509.111C452.029 508.49 452.457 507.37 452.457 505.751C452.457 504.01 451.862 502.824 450.672 502.191C450.035 501.859 449.184 501.692 448.119 501.692H440.509V510.043ZM300.874 468.171C303.285 468.171 305.331 468.792 307.012 470.034C308.703 471.265 309.549 473.24 309.549 475.957H306.62C306.464 474.648 306.13 473.644 305.618 472.945C304.668 471.67 303.055 471.032 300.779 471.032C298.942 471.032 297.622 471.443 296.818 472.264C296.015 473.084 295.612 474.038 295.612 475.125C295.612 476.323 296.082 477.198 297.021 477.753C297.637 478.108 299.031 478.552 301.202 479.084L304.429 479.866C305.984 480.243 307.185 480.759 308.03 481.413C309.492 482.555 310.222 484.213 310.222 486.387C310.222 489.093 309.293 491.028 307.435 492.192C305.587 493.357 303.437 493.939 300.983 493.939C298.123 493.939 295.884 493.163 294.266 491.61C292.648 490.069 291.854 487.978 291.886 485.339H294.813C294.887 486.725 295.194 487.851 295.737 488.716C296.771 490.335 298.593 491.144 301.202 491.145C302.371 491.145 303.437 490.967 304.397 490.612C306.255 489.925 307.185 488.693 307.185 486.919C307.185 485.588 306.793 484.64 306.01 484.074C305.216 483.52 303.974 483.037 302.283 482.627L299.167 481.879C297.131 481.391 295.69 480.853 294.845 480.266C293.383 479.245 292.652 477.72 292.652 475.69C292.652 473.495 293.368 471.693 294.798 470.284C296.228 468.876 298.254 468.171 300.874 468.171ZM358.725 468.154C360.885 468.154 362.754 468.598 364.33 469.485C366.616 470.761 368.016 472.996 368.527 476.189H365.442C365.067 474.404 364.289 473.106 363.109 472.297C361.93 471.476 360.442 471.065 358.646 471.065C356.517 471.065 354.721 471.915 353.26 473.611C351.809 475.308 351.083 477.836 351.083 481.196C351.083 484.102 351.683 486.47 352.884 488.3C354.084 490.119 356.042 491.028 358.756 491.028C360.833 491.028 362.55 490.39 363.907 489.115C365.275 487.829 365.975 485.755 366.006 482.894H358.803V480.148H368.903V493.224H366.898L366.146 490.08C365.092 491.311 364.158 492.165 363.344 492.642C361.976 493.462 360.238 493.873 358.13 493.873C355.405 493.873 353.061 492.936 351.099 491.062C348.959 488.71 347.889 485.483 347.889 481.38C347.889 477.288 348.933 474.033 351.021 471.615C353.004 469.308 355.572 468.154 358.725 468.154ZM254.517 493.224H251.103L248.77 485.904H239.672L237.182 493.224H233.987L242.647 468.787H246.17L254.517 493.224ZM258.863 490.312H270.514V493.224H255.747V468.787H258.863V490.312ZM275.111 490.312H286.762V493.224H271.995V468.787H275.111V490.312ZM330.911 468.787C332.665 468.787 334.11 469.058 335.248 469.602C337.409 470.644 338.49 472.568 338.49 475.374C338.49 476.838 338.203 478.036 337.629 478.968C337.065 479.899 336.271 480.647 335.248 481.213C336.146 481.601 336.82 482.112 337.269 482.744C337.728 483.376 337.984 484.402 338.036 485.821L338.146 489.099C338.177 490.03 338.249 490.723 338.364 491.178C338.552 491.954 338.887 492.453 339.367 492.675V493.224H335.546C335.442 493.013 335.358 492.742 335.296 492.409C335.233 492.077 335.18 491.433 335.139 490.479L334.951 486.403C334.878 484.807 334.319 483.737 333.275 483.193C332.68 482.894 331.746 482.744 330.473 482.744H323.379V493.224H320.263V468.787H330.911ZM345.311 493.224H342.163V468.787H345.311V493.224ZM375.364 478.885H387.327V468.787H390.475V493.224H387.327V481.796H375.364V493.224H372.217V468.787H375.364V478.885ZM410.449 471.698H402.698V493.224H399.535V471.698H391.784V468.787H410.449V471.698ZM240.564 483.21H247.768L244.275 472.413L240.564 483.21ZM323.379 479.982H330.582C332.044 479.982 333.197 479.672 334.043 479.051C334.899 478.43 335.327 477.309 335.327 475.69C335.327 473.95 334.732 472.763 333.542 472.131C332.905 471.798 332.054 471.632 330.989 471.632H323.379V479.982ZM290.576 478.568H288.76L288.243 468.787H291.093L290.576 478.568ZM272.95 438.11C275.362 438.11 277.408 438.732 279.089 439.974C280.78 441.205 281.626 443.179 281.626 445.896H278.697C278.541 444.587 278.207 443.583 277.695 442.885C276.745 441.609 275.132 440.972 272.856 440.972C271.019 440.972 269.698 441.382 268.895 442.203C268.091 443.024 267.689 443.978 267.689 445.064C267.69 446.262 268.159 447.138 269.099 447.692C269.715 448.047 271.108 448.491 273.279 449.023L276.505 449.805C278.06 450.182 279.261 450.698 280.106 451.353C281.568 452.495 282.299 454.153 282.299 456.326C282.299 459.032 281.37 460.967 279.512 462.132C277.664 463.296 275.513 463.879 273.06 463.879C270.2 463.879 267.961 463.102 266.343 461.55C264.725 460.008 263.931 457.918 263.962 455.278H266.891C266.964 456.664 267.272 457.79 267.814 458.655C268.848 460.274 270.67 461.084 273.279 461.084C274.448 461.084 275.513 460.907 276.474 460.552C278.332 459.864 279.261 458.633 279.261 456.858C279.261 455.528 278.87 454.579 278.087 454.014C277.294 453.459 276.051 452.977 274.359 452.566L271.243 451.818C269.208 451.33 267.767 450.792 266.922 450.204C265.46 449.184 264.73 447.659 264.729 445.63C264.729 443.434 265.445 441.632 266.875 440.224C268.305 438.815 270.33 438.11 272.95 438.11ZM239.187 448.823H251.149V438.727H254.297V463.163H251.149V451.734H239.187V463.163H236.039V438.727H239.187V448.823ZM261.385 463.163H258.237V438.727H261.385V463.163ZM295.189 448.823H307.153V438.727H310.301V463.163H307.153V451.734H295.189V463.163H292.042V438.727H295.189V448.823ZM330.604 441.721H316.871V449.14H329.57V451.968H316.871V460.252H330.839V463.163H313.833V438.727H330.604V441.721ZM351.878 463.163H348.465L346.132 455.844H337.033L334.544 463.163H331.35L340.009 438.727H343.532L351.878 463.163ZM359.153 459.537L365.684 438.727H369.176L360.782 463.163H357.479L349.101 438.727H352.546L359.153 459.537ZM387.584 441.721H373.852V449.14H386.551V451.968H373.852V460.252H387.819V463.163H370.813V438.727H387.584V441.721ZM405.602 458.522V438.727H408.562V463.163H405.069L393.278 443.384V463.163H390.303V438.727H393.982L405.602 458.522ZM337.926 453.148H345.129L341.638 442.353L337.926 453.148ZM269.245 408C273.306 408 276.312 409.387 278.265 412.159C279.789 414.322 280.552 417.089 280.552 420.46C280.552 424.109 279.68 427.142 277.937 429.56C275.89 432.399 272.972 433.817 269.183 433.817C265.644 433.817 262.862 432.576 260.837 430.092C259.031 427.696 258.128 424.668 258.128 421.009C258.128 417.704 258.9 414.876 260.445 412.524C262.429 409.508 265.362 408 269.245 408ZM316.877 408.05C319.288 408.05 321.335 408.671 323.016 409.913C324.707 411.144 325.553 413.118 325.553 415.835H322.624C322.467 414.526 322.134 413.523 321.622 412.824C320.672 411.549 319.059 410.911 316.783 410.911C314.946 410.911 313.625 411.322 312.821 412.143C312.018 412.963 311.616 413.916 311.616 415.003C311.616 416.201 312.086 417.077 313.025 417.632C313.641 417.987 315.035 418.431 317.206 418.963L320.432 419.744C321.987 420.121 323.188 420.637 324.033 421.291C325.495 422.433 326.226 424.092 326.226 426.266C326.226 428.972 325.297 430.907 323.438 432.071C321.591 433.236 319.44 433.817 316.987 433.817C314.127 433.817 311.888 433.042 310.27 431.489C308.652 429.948 307.857 427.857 307.889 425.218H310.817C310.89 426.604 311.198 427.73 311.741 428.595C312.775 430.214 314.596 431.023 317.206 431.023C318.375 431.023 319.44 430.846 320.4 430.491C322.259 429.804 323.187 428.572 323.188 426.798C323.188 425.467 322.797 424.519 322.014 423.953C321.22 423.399 319.977 422.916 318.286 422.506L315.171 421.757C313.135 421.269 311.694 420.731 310.849 420.144C309.387 419.123 308.656 417.599 308.656 415.569C308.656 413.373 309.372 411.571 310.802 410.162C312.232 408.754 314.257 408.05 316.877 408.05ZM245.904 408.033C248.065 408.033 249.933 408.477 251.51 409.364C253.796 410.64 255.196 412.874 255.707 416.068H252.622C252.246 414.283 251.468 412.985 250.289 412.176C249.109 411.355 247.622 410.944 245.826 410.944C243.697 410.944 241.901 411.793 240.439 413.489C238.988 415.186 238.263 417.715 238.263 421.075C238.263 423.981 238.863 426.349 240.063 428.179C241.264 429.997 243.221 430.906 245.936 430.906C248.013 430.906 249.73 430.269 251.087 428.993C252.454 427.707 253.154 425.633 253.186 422.772H245.982V420.027H256.082V433.103H254.078L253.326 429.958C252.272 431.189 251.338 432.044 250.523 432.521C249.156 433.341 247.417 433.751 245.309 433.751C242.584 433.751 240.241 432.814 238.278 430.939C236.138 428.588 235.068 425.361 235.068 421.258C235.068 417.166 236.112 413.911 238.2 411.493C240.184 409.187 242.752 408.033 245.904 408.033ZM292.133 408.665C295.296 408.665 297.749 409.858 299.492 412.242C301.048 414.394 301.826 417.149 301.826 420.51C301.826 423.105 301.367 425.45 300.448 427.546C298.83 431.25 296.048 433.103 292.102 433.103H282.815V408.665H292.133ZM339.742 433.103H336.595V408.665H339.742V433.103ZM358.512 428.461V408.665H361.471V433.103H357.979L346.188 413.323V433.103H343.213V408.665H346.893L358.512 428.461ZM269.434 410.944C267.054 410.944 265.112 411.815 263.608 413.556C262.105 415.286 261.354 417.842 261.354 421.225C261.354 423.931 261.995 426.216 263.279 428.079C264.574 429.931 266.667 430.856 269.559 430.856C272.304 430.856 274.287 429.814 275.509 427.729C276.741 425.633 277.356 423.227 277.356 420.51C277.356 417.638 276.647 415.325 275.228 413.573C273.818 411.821 271.887 410.944 269.434 410.944ZM285.947 430.274H291.507C292.561 430.274 293.427 430.158 294.105 429.925C295.316 429.492 296.309 428.661 297.081 427.43C297.697 426.443 298.141 425.178 298.412 423.637C298.569 422.716 298.646 421.862 298.646 421.075C298.646 418.048 298.078 415.696 296.94 414.021C295.813 412.347 293.991 411.51 291.476 411.51H285.947V430.274ZM306.58 418.447H304.764L304.247 408.665H307.097L306.58 418.447ZM465.181 340C455.398 364.337 459.649 391.269 460.987 407C454.987 389.5 451.987 360.33 451.987 342C451.987 341.344 451.992 340.678 452 340H465.181ZM50.3115 342.652L81.4062 332.55L62.1885 359L81.4062 385.45L50.3115 375.348L31.0947 401.798V369.104L0 359L31.0947 348.896V316.202L50.3115 342.652ZM305.081 370.5V287C305.081 278 300.647 278 300.647 278V275H322.813V278C322.776 278 318.38 278.039 318.38 287V393H291.782L230.828 304V381C230.828 389.961 235.223 390 235.261 390V393H211.987V390C211.987 390 216.42 390 216.42 381V287C216.42 278 211.987 278 211.987 278V275H239.693L305.081 370.5ZM415.906 291H412.582C412.582 290.999 412.581 287 400.391 287H352.736V329H395.958C401.499 329 401.499 325 401.499 325H404.824V344H401.499C401.499 344 401.499 339 395.958 339H352.736V381H400.391C412.581 381 412.582 377.001 412.582 377H415.906V393H327.246V390C327.266 390 331.679 389.98 331.679 381V287C331.679 278.02 327.266 278 327.246 278V275H415.906V291ZM462.07 275C460.906 279.047 459.86 283.055 458.923 287H446.938V328H452.521C452.211 332.283 452.044 336.301 452 340H446.938C446.938 340 446.938 375 446.938 381C446.938 389.961 451.333 390 451.371 390V393H420.34V390C420.376 390 424.772 389.963 424.772 381V287C424.772 278.037 420.376 278 420.34 278V275H462.07ZM524.072 288.067C526.317 292.705 527.841 298.987 527.841 307.5C527.841 339.921 505.784 340 505.676 340L533.382 385C533.388 385.01 536.708 389.999 538.923 390V393H513.434V390L482.402 340H465.181C466.827 335.905 468.87 331.883 471.392 328H489.605C489.605 328 505.676 328 505.676 307.5C505.676 304.288 505.281 301.579 504.615 299.295C512.653 294.205 518.783 290.657 524.072 288.067ZM618.987 393H567.987L529.992 287C529.853 286.501 529.716 286.03 529.582 285.585C535.731 283.071 541.144 281.763 548.041 280.44L584.487 377L618.987 275V393ZM489.605 287C489.605 287 501.034 287 504.615 299.295C500.859 301.673 496.685 304.387 491.987 307.5C482.941 313.494 476.271 320.487 471.392 328H452.521C453.386 316.014 455.37 301.952 458.923 287H489.605ZM503.715 194.886C506.528 191.414 508.815 191.972 512.154 196.501C513.153 197.855 537.51 232.488 568.53 276.621C560.002 278.319 553.548 279.385 548.041 280.44L545.987 275H525.822V278C525.836 278 527.315 278.035 529.582 285.585C527.823 286.304 526.003 287.122 524.072 288.067C517.768 275.045 505.755 275 505.676 275H462.07C469.861 247.915 482.914 219.031 503.715 194.886ZM99.8418 190.499L131.821 197.296L101.954 210.595L105.371 243.109L83.4941 218.812L53.627 232.111L69.9736 203.797L48.0967 179.5L80.0771 186.298L96.4238 157.983L99.8418 190.499ZM203.797 69.9736L232.111 53.627L218.812 83.4941L243.109 105.371L210.595 101.954L197.296 131.821L190.499 99.8418L157.983 96.4238L186.298 80.0771L179.5 48.0967L203.797 69.9736ZM531.702 80.0771L560.017 96.4238L527.501 99.8418L520.704 131.821L507.406 101.954L474.891 105.371L499.188 83.4941L485.889 53.627L514.203 69.9736L538.5 48.0967L531.702 80.0771ZM369.104 31.0938H401.798L375.348 50.3115L385.45 81.4062L359 62.1885L332.55 81.4062L342.652 50.3115L316.202 31.0938H348.896L359 0L369.104 31.0938Z" fill="#194DC7"/>
</svg>
