<svg width="354" height="417" viewBox="0 0 354 417" fill="none" xmlns="http://www.w3.org/2000/svg">
<path d="M181.609 400.263C182.145 400.248 182.999 400.458 183.49 400.765C183.621 400.848 183.848 400.905 184.02 400.9L184.094 400.898C184.159 400.896 184.212 400.873 184.254 400.871C184.362 400.868 184.406 400.91 184.423 401.145C184.505 402.108 184.68 404.056 184.785 405.103L184.787 405.19C184.79 405.296 184.78 405.318 184.727 405.342C184.706 405.363 184.684 405.364 184.674 405.364C184.599 405.367 184.575 405.26 184.55 405.175C183.778 402.194 182.946 401.253 181.703 401.29C180.395 401.328 179.591 403.583 179.708 407.656C179.878 413.529 181.226 416 182.544 415.961C183.402 415.935 183.704 415.604 183.671 414.469L183.553 410.396C183.537 409.839 183.35 409.651 182.842 409.537C182.745 409.518 182.721 409.434 182.716 409.284C182.712 409.113 182.754 409.09 182.873 409.086L185.777 409.001C185.894 408.997 185.927 409.018 185.932 409.189C185.936 409.339 185.928 409.426 185.822 409.45C185.408 409.591 185.231 409.789 185.247 410.346L185.383 415.084C185.388 415.255 185.379 415.298 185.287 415.451C184.732 416.325 183.592 416.959 182.242 416.999C179.509 417.079 178.003 413.605 177.864 408.761C177.725 403.938 179.068 400.338 181.609 400.263ZM175.389 400.74C175.475 400.742 175.507 400.785 175.504 400.956C175.501 401.149 175.447 401.17 175.392 401.19C174.747 401.329 174.562 401.455 174.553 402.034L174.333 415.388C174.324 415.967 174.504 416.098 175.144 416.259C175.198 416.281 175.251 416.325 175.249 416.496C175.245 416.668 175.212 416.71 175.126 416.709L171.707 416.652C171.621 416.65 171.59 416.608 171.592 416.436C171.595 416.265 171.639 416.223 171.704 416.202C172.349 416.063 172.534 415.937 172.543 415.359L172.763 402.005C172.772 401.426 172.593 401.294 171.952 401.134C171.888 401.111 171.845 401.088 171.848 400.895C171.851 400.724 171.874 400.682 171.97 400.683L175.389 400.74ZM162.595 400.235C164.073 400.319 165.063 400.29 166.519 400.372C168.157 400.465 169.1 402.021 168.959 404.505C168.834 406.71 168.282 408.117 167.142 408.525C167.369 410.02 167.89 412.605 168.357 414.414C168.71 415.766 168.983 416.061 169.465 416.088C169.54 416.092 169.57 416.116 169.56 416.287C169.551 416.458 169.527 416.5 169.461 416.517C169.134 416.606 168.811 416.631 168.425 416.609C167.505 416.557 166.812 415.874 166.494 414.481C166.142 412.915 165.77 410.767 165.518 409.142C165.431 408.601 164.667 408.428 164.667 408.428L164.295 415.002C164.264 415.558 164.424 415.781 164.985 415.921C165.048 415.946 165.088 415.992 165.079 416.163C165.069 416.333 165.034 416.375 164.949 416.37L161.704 416.186C161.608 416.18 161.589 416.137 161.598 415.966C161.608 415.794 161.654 415.754 161.719 415.736C162.326 415.641 162.507 415.479 162.54 414.901L163.29 401.628C163.324 401.028 163.162 400.848 162.559 400.684C162.496 400.66 162.455 400.636 162.466 400.443C162.476 400.272 162.531 400.232 162.595 400.235ZM195.548 399.744C195.634 399.737 195.67 399.777 195.685 399.948C195.699 400.119 195.649 400.166 195.597 400.192C195.01 400.372 194.854 400.557 194.903 401.134L196.031 414.406C196.08 414.983 196.265 415.139 196.875 415.217C196.929 415.233 196.986 415.272 197.001 415.442C197.016 415.613 196.986 415.659 196.901 415.666L193.666 415.941C193.569 415.95 193.544 415.908 193.529 415.737C193.515 415.567 193.555 415.52 193.617 415.493C194.174 415.339 194.327 415.11 194.279 414.554L193.74 408.208L190.855 408.452L191.395 414.8C191.442 415.355 191.632 415.554 192.207 415.613C192.273 415.629 192.318 415.669 192.333 415.84C192.348 416.01 192.33 416.055 192.234 416.062L188.998 416.338C188.912 416.345 188.876 416.305 188.862 416.134C188.848 415.964 188.898 415.915 188.949 415.889C189.535 415.711 189.692 415.526 189.643 414.949L188.515 401.677C188.466 401.1 188.281 400.943 187.672 400.865C187.617 400.848 187.56 400.811 187.545 400.639C187.53 400.469 187.559 400.423 187.644 400.416L190.881 400.14C190.977 400.133 191.002 400.173 191.016 400.345C191.031 400.516 190.992 400.562 190.93 400.589C190.373 400.744 190.22 400.972 190.267 401.527L190.768 407.427L193.653 407.181L193.151 401.282C193.104 400.727 192.915 400.527 192.339 400.469C192.274 400.453 192.227 400.414 192.212 400.243C192.198 400.072 192.217 400.028 192.313 400.019L195.548 399.744ZM150.601 402.969C150.927 400.373 152.132 398.711 153.97 398.942C154.491 399.008 155.164 399.438 155.485 399.607C155.523 399.634 155.584 399.642 155.635 399.648C155.768 399.665 155.926 399.641 156.034 399.612C156.087 399.597 156.131 399.581 156.162 399.585C156.234 399.594 156.243 399.682 156.227 399.895C156.139 400.921 156.014 402.915 155.974 403.97L155.961 404.075C155.953 404.14 155.937 404.181 155.894 404.197C155.861 404.215 155.837 404.233 155.817 404.23C155.756 404.223 155.746 404.135 155.742 404.005C155.632 401.658 154.749 400.011 153.871 399.901C152.717 399.755 152.099 400.543 151.941 401.798C151.773 403.137 152.194 404.077 153.592 405.247C155.172 406.547 155.899 408.454 155.545 411.262C155.177 414.197 153.925 415.811 151.81 415.545C151.044 415.448 150.128 414.901 149.623 414.298C149.511 414.197 149.476 414.063 149.488 413.891C149.561 413.057 149.692 410.935 149.702 409.791C149.707 409.748 149.702 409.704 149.705 409.683C149.718 409.577 149.754 409.539 149.81 409.503C149.834 409.483 149.854 409.487 149.875 409.489L149.884 409.49C149.945 409.498 149.958 409.564 149.962 409.695C150.223 412.903 151.204 414.431 152.011 414.533C153.063 414.665 153.764 413.868 153.944 412.443C154.126 410.997 153.711 409.755 152.491 408.564C150.908 407.047 150.277 405.542 150.601 402.969ZM204.027 398.421C204.102 398.41 204.145 398.491 204.202 398.743C204.412 399.948 204.795 401.779 205.1 402.971C205.106 403.013 205.12 403.033 205.125 403.076C205.141 403.181 205.125 403.228 205.078 403.277C205.06 403.301 205.028 403.306 205.017 403.307C204.953 403.316 204.909 403.235 204.86 403.112C204.252 401.529 203.565 400.086 202.97 399.778C202.761 399.678 202.247 399.705 201.885 399.755L203.774 413.416C203.856 414.011 204.071 414.154 204.748 414.191C204.804 414.205 204.863 414.241 204.886 414.41C204.91 414.58 204.883 414.628 204.798 414.639L201.369 415.111C201.284 415.123 201.247 415.084 201.223 414.915C201.2 414.745 201.235 414.696 201.296 414.667C201.937 414.449 202.094 414.253 202.012 413.658L200.123 399.997C199.783 400.044 199.269 400.158 199.095 400.312C198.635 400.743 198.345 402.321 198.181 404.032C198.167 404.164 198.147 404.254 198.083 404.262C198.073 404.264 198.04 404.268 198.016 404.25C197.957 404.215 197.931 404.175 197.916 404.069C197.91 404.026 197.917 404.003 197.912 403.961C197.872 402.733 197.743 400.866 197.628 399.648C197.604 399.392 197.636 399.301 197.709 399.291L197.731 399.288C199.102 399.186 199.69 399.213 200.9 399.046C202.111 398.88 202.67 398.695 204.006 398.424L204.027 398.421ZM137.621 396.514L140.898 397.182C140.982 397.199 141.005 397.248 140.97 397.417C140.932 397.606 140.885 397.618 140.818 397.626C140.127 397.638 139.97 397.76 139.85 398.348L137.252 411.077C137.145 411.602 137.274 411.826 137.501 411.894C137.574 411.909 137.665 411.95 137.77 411.97C138.148 412.048 138.702 412.117 139.04 411.968C139.821 411.624 140.858 409.975 141.585 408.395C141.638 408.296 141.683 408.24 141.735 408.25C141.767 408.256 141.794 408.285 141.832 408.314C141.869 408.344 141.892 408.392 141.871 408.497C141.862 408.539 141.854 408.581 141.834 408.621C141.437 409.765 140.719 412.266 140.5 413.119C140.415 413.429 140.382 413.488 140.277 413.468L140.266 413.465C139.43 413.273 138.123 412.919 137.545 412.801L134.426 412.164C134.342 412.147 134.319 412.098 134.353 411.93C134.387 411.762 134.449 411.731 134.505 411.72C135.182 411.727 135.353 411.587 135.469 411.02L138.127 397.996C138.247 397.408 138.162 397.237 137.52 396.953C137.461 396.919 137.423 396.889 137.461 396.7C137.496 396.533 137.537 396.497 137.621 396.514ZM220.97 395.169C221.064 395.148 221.095 395.185 221.128 395.332C221.161 395.477 221.143 395.548 221.07 395.608C220.686 395.958 220.469 396.799 220.546 397.726L221.72 411.42C221.745 411.678 221.555 411.808 221.398 411.844C221.272 411.871 221.043 411.835 220.936 411.552L216.467 400.074L217.502 412.37C217.528 412.627 217.337 412.759 217.179 412.794C217.064 412.82 216.851 412.802 216.729 412.5L211.149 398.635C210.952 398.152 210.651 398.131 210.237 398.049C210.17 398.042 210.134 397.984 210.106 397.858C210.068 397.692 210.074 397.623 210.147 397.607L213.194 396.921C213.278 396.901 213.312 396.96 213.34 397.086C213.378 397.253 213.377 397.297 213.282 397.362C212.912 397.621 212.721 397.752 212.783 398.024C212.792 398.066 212.797 398.087 212.816 398.127L216.567 407.833L215.817 398.945C215.801 398.73 215.765 398.518 215.722 398.33C215.553 397.577 215.193 397.152 214.591 397.068C214.523 397.061 214.487 397.003 214.459 396.878C214.422 396.71 214.429 396.643 214.501 396.626L217.412 395.97C217.485 395.954 217.531 396.011 217.559 396.136C217.597 396.303 217.595 396.347 217.5 396.412C217.157 396.643 216.981 396.793 217.042 397.064C217.052 397.106 217.057 397.127 217.077 397.167L220.786 406.882L220.009 397.782C219.992 397.61 219.975 397.437 219.942 397.291C219.777 396.559 219.373 396.276 218.862 396.105C218.753 396.064 218.712 396.029 218.678 395.884C218.641 395.716 218.668 395.688 218.772 395.665L220.97 395.169ZM129.623 394.529L132.864 395.35C132.947 395.371 132.968 395.421 132.925 395.588C132.878 395.775 132.831 395.785 132.764 395.79C132.073 395.769 131.911 395.883 131.763 396.466L128.577 409.065C128.446 409.585 128.565 409.814 128.789 409.893C128.861 409.912 128.948 409.956 129.052 409.982C129.426 410.077 129.978 410.173 130.321 410.039C131.117 409.732 132.23 408.134 133.03 406.589C133.088 406.492 133.134 406.439 133.186 406.451C133.217 406.459 133.244 406.487 133.28 406.518C133.316 406.55 133.337 406.6 133.31 406.704C133.3 406.745 133.289 406.787 133.268 406.826C132.818 407.951 131.984 410.416 131.726 411.259C131.627 411.564 131.591 411.621 131.487 411.595L131.476 411.593C130.65 411.361 129.362 410.947 128.791 410.802L125.704 410.018C125.621 409.997 125.601 409.948 125.643 409.782C125.685 409.615 125.747 409.587 125.805 409.579C126.48 409.618 126.658 409.486 126.799 408.925L130.059 396.034C130.207 395.452 130.13 395.276 129.501 394.963C129.444 394.926 129.408 394.895 129.456 394.707C129.497 394.541 129.54 394.508 129.623 394.529ZM225.505 393.847C225.588 393.824 225.63 393.857 225.676 394.022C225.727 394.208 225.682 394.244 225.636 394.278C225.057 394.595 224.915 394.767 225.07 395.326L228.636 408.2C228.791 408.758 229.002 408.833 229.661 408.806C229.718 408.812 229.781 408.839 229.828 409.005C229.874 409.17 229.853 409.22 229.771 409.243L226.476 410.156C226.394 410.179 226.351 410.145 226.305 409.98C226.26 409.815 226.289 409.762 226.345 409.724C226.925 409.408 227.067 409.235 226.912 408.678L223.345 395.803C223.191 395.245 222.981 395.169 222.321 395.197C222.254 395.193 222.207 395.184 222.155 394.999C222.11 394.834 222.118 394.787 222.21 394.761L225.505 393.847ZM124.558 392.634C124.732 392.686 124.757 392.828 124.728 393.178L123.452 407.88C123.401 408.447 123.608 408.869 123.998 409.1C124.073 409.146 124.081 409.192 124.038 409.336C123.987 409.5 123.948 409.555 123.867 409.53L120.595 408.533C120.514 408.508 120.502 408.437 120.54 408.314C120.59 408.15 120.629 408.095 120.774 408.095C121.226 408.121 121.41 408.064 121.499 407.777C121.517 407.715 121.525 407.65 121.541 407.565L121.895 404.198L119.3 403.407L118.234 405.435C118.13 405.628 118.054 405.807 118.003 405.97C117.829 406.545 117.978 406.973 118.574 407.446C118.643 407.511 118.661 407.561 118.612 407.725C118.561 407.89 118.514 407.897 118.402 407.863L116.034 407.141C115.91 407.105 115.886 407.074 115.936 406.91C115.986 406.746 116.019 406.711 116.124 406.698C116.775 406.582 117.228 406.092 117.683 405.222L124.119 392.97C124.274 392.681 124.384 392.58 124.558 392.634ZM233.793 391.052C233.865 391.029 233.921 391.101 234.021 391.339C234.436 392.49 235.133 394.226 235.64 395.346C235.654 395.387 235.67 395.404 235.683 395.445C235.716 395.547 235.708 395.595 235.67 395.652C235.657 395.678 235.627 395.689 235.617 395.692C235.555 395.711 235.498 395.64 235.428 395.528C234.554 394.074 233.628 392.773 232.989 392.573C232.766 392.51 232.263 392.627 231.916 392.739L236.148 405.865C236.333 406.436 236.57 406.54 237.242 406.459C237.299 406.462 237.363 406.487 237.416 406.65C237.468 406.814 237.451 406.865 237.369 406.891L234.074 407.954C233.992 407.98 233.949 407.948 233.896 407.786C233.844 407.623 233.871 407.569 233.925 407.529C234.518 407.202 234.639 406.982 234.456 406.411L230.222 393.285C229.896 393.39 229.41 393.592 229.265 393.774C228.888 394.279 228.875 395.884 229.011 397.597C229.02 397.73 229.016 397.821 228.955 397.842C228.944 397.845 228.913 397.854 228.886 397.841C228.822 397.816 228.788 397.782 228.755 397.679C228.743 397.639 228.746 397.615 228.733 397.575C228.48 396.372 228.03 394.555 227.707 393.376C227.638 393.128 227.652 393.033 227.723 393.01L227.743 393.003C229.075 392.664 229.659 392.588 230.822 392.213C231.985 391.838 232.504 391.558 233.773 391.058L233.793 391.052ZM165.97 401.136C165.66 401.118 165.166 401.132 165.079 401.149L164.755 406.866C164.717 407.55 165.253 407.753 165.799 407.784C166.569 407.828 167.17 406.529 167.291 404.388C167.399 402.483 166.86 401.185 165.97 401.136ZM243.334 387.704C243.415 387.673 243.46 387.702 243.521 387.862C243.582 388.023 243.547 388.081 243.505 388.121C242.99 388.455 242.891 388.677 243.098 389.218L247.851 401.659C248.058 402.2 248.281 402.299 248.887 402.206C248.944 402.207 249.01 402.229 249.071 402.388C249.132 402.548 249.117 402.6 249.037 402.631L246.003 403.788C245.914 403.822 245.878 403.79 245.817 403.63C245.756 403.47 245.78 403.414 245.833 403.371C246.325 403.068 246.408 402.807 246.209 402.286L243.936 396.336L241.233 397.367L243.506 403.317C243.705 403.838 243.942 403.978 244.51 403.876C244.578 403.872 244.634 403.897 244.695 404.057C244.756 404.218 244.751 404.265 244.662 404.3L241.627 405.458C241.547 405.488 241.502 405.459 241.441 405.299C241.381 405.139 241.415 405.08 241.457 405.041C241.972 404.707 242.071 404.485 241.865 403.944L237.111 391.502C236.904 390.961 236.682 390.862 236.076 390.956C236.018 390.955 235.952 390.934 235.891 390.774C235.83 390.614 235.845 390.561 235.925 390.531L238.958 389.374C239.048 389.339 239.085 389.372 239.145 389.532C239.206 389.692 239.182 389.748 239.13 389.791C238.638 390.094 238.554 390.355 238.752 390.876L240.865 396.405L243.569 395.374L241.456 389.845C241.257 389.324 241.02 389.185 240.452 389.287C240.384 389.289 240.328 389.265 240.267 389.104C240.206 388.944 240.211 388.896 240.3 388.862L243.334 387.704ZM109.606 403.008C109.975 402.001 110.733 401.273 111.248 401.461C111.751 401.645 111.86 402.69 111.491 403.696C111.129 404.683 110.363 405.43 109.86 405.246C109.346 405.058 109.245 403.995 109.606 403.008ZM147.481 398.02C147.852 398.082 148.075 398.575 147.971 399.209L147.954 399.314C147.769 400.175 147.089 402.605 146.711 403.912C146.659 404.099 146.602 404.111 146.486 404.093C146.369 404.073 146.321 404.043 146.331 403.849C146.39 402.49 146.517 399.991 146.621 399.095L146.638 398.99C146.742 398.355 147.121 397.962 147.481 398.02ZM105.062 385.856L107.273 386.77C107.421 386.832 107.424 386.995 107.42 387.225L107 397.722L110.05 390.353C110.41 389.482 110.29 388.736 109.817 388.309C109.775 388.269 109.733 388.227 109.807 388.05C109.872 387.891 109.919 387.865 109.999 387.897L112.268 388.835C112.347 388.867 112.361 388.92 112.295 389.079C112.222 389.257 112.164 389.256 112.096 389.251C111.453 389.263 110.917 389.715 110.565 390.566L105.384 403.086C105.221 403.482 105.162 403.597 105.062 403.555C104.835 403.461 104.758 403.337 104.787 402.793L105.417 388.787L101.155 399.087C100.794 399.958 100.915 400.704 101.377 401.127C101.429 401.171 101.461 401.232 101.396 401.39C101.331 401.549 101.284 401.576 101.206 401.544L98.9556 400.613C98.8759 400.58 98.863 400.528 98.9292 400.371C98.9946 400.212 99.0598 400.192 99.1177 400.193C99.7729 400.208 100.287 399.725 100.639 398.874L105.261 387.702C105.419 386.816 105.197 386.678 104.879 386.268C104.837 386.204 104.798 386.187 104.872 386.009C104.937 385.85 104.983 385.824 105.062 385.856ZM119.723 402.572L122 403.265L122.654 397.008L119.723 402.572ZM97.2319 382.163L100.728 383.829C101.29 384.096 101.851 384.293 102.515 384.443L102.545 384.457C102.613 384.489 102.663 384.609 102.552 384.864C102.222 385.657 101.434 387.608 101.078 388.579L101.041 388.657C100.994 388.753 100.976 388.768 100.918 388.764C100.881 388.77 100.851 388.78 100.832 388.771C100.774 388.744 100.792 388.656 100.828 388.531C101.42 386.343 101.2 384.885 100.347 384.479L99.1851 383.926L96.3608 389.846L96.5347 389.929C96.7863 390.049 97.1837 390.239 97.271 390.257C97.4538 390.296 97.7206 390.187 97.9663 389.995C98.3816 389.647 99.2649 388.642 99.5913 388.156C99.6567 388.045 99.7042 388.019 99.7437 388.038C99.7629 388.047 99.7824 388.056 99.7925 388.085C99.842 388.156 99.8517 388.209 99.7964 388.325L99.769 388.383C99.2942 389.154 98.543 390.554 98.2476 391.174C97.9061 391.89 97.3006 393.359 97.0278 394.132L96.9995 394.189C96.9441 394.305 96.8965 394.331 96.8101 394.338C96.7908 394.329 96.7723 394.343 96.7622 394.339C96.7044 394.311 96.7135 394.243 96.7495 394.118C96.9206 393.534 97.1545 392.197 97.1353 391.713C97.121 391.444 97.0478 391.148 96.9019 391.031C96.8043 390.96 96.1834 390.642 96.019 390.563L93.3511 396.157C93.1205 396.641 93.2299 396.859 93.3188 396.972C93.417 397.091 93.6507 397.249 93.9116 397.374C94.3093 397.563 94.7632 397.708 95.0015 397.656C95.8236 397.477 96.732 396.794 98.0356 395.207C98.1296 395.109 98.1862 395.041 98.2349 395.063C98.2445 395.068 98.2518 395.077 98.2593 395.09L98.3101 395.179C98.3301 395.221 98.3329 395.259 98.2983 395.331C98.2799 395.369 98.2601 395.384 98.2417 395.423C97.6544 396.306 96.5003 398.251 96.0825 399.003C95.9252 399.283 95.859 399.323 95.772 399.282L95.7612 399.277C94.415 398.612 93.8422 398.243 93.271 397.97L90.356 396.582C90.2688 396.54 90.2677 396.492 90.3413 396.338C90.4151 396.183 90.4725 396.162 90.5396 396.171C91.1369 396.312 91.3656 396.232 91.6147 395.71L97.3394 383.71C97.5977 383.168 97.5163 382.939 97.0298 382.564C96.9803 382.517 96.9506 382.48 97.0337 382.305C97.1074 382.151 97.1449 382.122 97.2319 382.163ZM255.377 382.024C255.445 381.992 255.512 382.055 255.642 382.278C256.207 383.363 257.126 384.991 257.778 386.035C257.796 386.074 257.816 386.089 257.834 386.128C257.88 386.224 257.879 386.272 257.849 386.334C257.839 386.362 257.81 386.376 257.8 386.381C257.742 386.408 257.676 386.344 257.591 386.242C256.532 384.918 255.441 383.752 254.781 383.638C254.551 383.606 254.068 383.788 253.739 383.945L259.674 396.39C259.933 396.932 260.181 397.004 260.836 396.834C260.893 396.83 260.961 396.846 261.035 397.001C261.108 397.155 261.099 397.208 261.021 397.245L257.893 398.735C257.815 398.772 257.768 398.747 257.694 398.593C257.62 398.438 257.64 398.381 257.689 398.334C258.234 397.931 258.325 397.698 258.067 397.156L252.13 384.712C251.821 384.859 251.365 385.124 251.247 385.323C250.939 385.874 251.138 387.464 251.5 389.144C251.526 389.274 251.534 389.367 251.476 389.394C251.466 389.399 251.437 389.412 251.409 389.402C251.342 389.386 251.304 389.357 251.258 389.261C251.24 389.222 251.24 389.198 251.221 389.159C250.812 388 250.124 386.261 249.647 385.135C249.546 384.899 249.547 384.802 249.615 384.77L249.634 384.761C250.911 384.247 251.48 384.095 252.584 383.569C253.688 383.043 254.165 382.697 255.358 382.034L255.377 382.024ZM264.067 377.622C264.142 377.581 264.192 377.604 264.273 377.755C264.355 377.905 264.328 377.968 264.292 378.012C263.824 378.411 263.754 378.644 264.03 379.153L270.366 390.867C270.641 391.376 270.873 391.446 271.462 391.273C271.519 391.267 271.588 391.279 271.669 391.429C271.751 391.58 271.743 391.633 271.667 391.675L268.809 393.219C268.724 393.264 268.684 393.236 268.603 393.086C268.522 392.935 268.538 392.876 268.585 392.827C269.034 392.462 269.083 392.193 268.818 391.703L265.789 386.099L263.242 387.475L266.271 393.077C266.537 393.568 266.789 393.675 267.34 393.5C267.407 393.488 267.466 393.505 267.547 393.656C267.629 393.807 267.63 393.855 267.545 393.9L264.687 395.444C264.612 395.485 264.563 395.462 264.482 395.311C264.401 395.16 264.426 395.097 264.463 395.053C264.93 394.654 265 394.422 264.725 393.913L258.389 382.2C258.113 381.69 257.881 381.621 257.292 381.793C257.235 381.799 257.167 381.787 257.084 381.636C257.003 381.485 257.011 381.432 257.086 381.391L259.945 379.848C260.03 379.802 260.069 379.83 260.151 379.981C260.232 380.132 260.215 380.19 260.169 380.239C259.721 380.603 259.671 380.873 259.936 381.364L262.751 386.57L265.298 385.194L262.483 379.988C262.218 379.499 261.964 379.391 261.415 379.566C261.347 379.578 261.289 379.56 261.207 379.41C261.125 379.259 261.124 379.212 261.208 379.166L264.067 377.622ZM88.4731 377.762C88.5544 377.612 88.6038 377.565 88.6792 377.606L91.6792 379.225C91.7547 379.266 91.7522 379.339 91.6909 379.452C91.6097 379.603 91.5506 379.644 91.4175 379.621C90.9695 379.525 90.739 379.523 90.5854 379.805C90.5553 379.862 90.5341 379.924 90.5132 379.986L87.2417 390.335L93.2759 382.745C93.3656 382.623 93.4458 382.52 93.5171 382.388C93.7822 381.898 93.7895 381.365 93.3901 380.661C93.3449 380.564 93.3257 380.529 93.4077 380.379C93.489 380.228 93.5373 380.229 93.6401 380.285L95.8481 381.477C95.9521 381.533 95.9793 381.573 95.8979 381.724C95.8159 381.875 95.7778 381.878 95.6714 381.894C94.9307 381.957 94.2747 382.384 93.7856 382.997L85.3628 393.611C85.1229 393.921 84.8191 394.122 84.6304 394.019C84.4518 393.923 84.4736 393.52 84.5708 393.183L88.8071 379.04C88.9363 378.598 88.7162 378.259 88.4653 378.003C88.4092 377.948 88.4019 377.894 88.4731 377.762ZM84.1011 374.929C84.3231 374.688 84.454 374.617 84.6099 374.712C84.7651 374.806 84.7534 374.95 84.6401 375.282L79.7769 389.21C79.5889 389.748 79.6858 390.208 80.0063 390.528C80.0681 390.591 80.0647 390.639 79.9868 390.767C79.898 390.914 79.8458 390.957 79.7729 390.913L76.8481 389.139C76.7752 389.095 76.7809 389.023 76.8472 388.913C76.936 388.766 76.9885 388.722 77.1294 388.758C77.5613 388.894 77.7545 388.886 77.9097 388.63C77.9431 388.574 77.9673 388.514 78.0024 388.435L79.1763 385.26L76.8569 383.853L75.3228 385.556C75.1744 385.717 75.0562 385.871 74.9673 386.017C74.656 386.531 74.6961 386.981 75.1567 387.587C75.2079 387.667 75.2125 387.721 75.1235 387.868C75.0346 388.015 74.9869 388.01 74.8862 387.949L72.7681 386.665C72.6582 386.598 72.642 386.564 72.731 386.417C72.8199 386.27 72.8605 386.245 72.9653 386.258C73.6254 386.307 74.1844 385.943 74.8403 385.213L84.1011 374.929ZM270.322 373.597C270.386 373.558 270.513 373.582 270.667 373.814C271.149 374.525 272.351 376.254 272.967 377.083L273.012 377.156C273.068 377.247 273.069 377.271 273.035 377.317C273.018 377.352 273.012 377.381 272.994 377.393C272.938 377.426 272.875 377.364 272.791 377.266C271.285 375.573 269.943 374.956 269.136 375.447L268.037 376.116L271.444 381.722L271.609 381.623C271.847 381.478 272.222 381.248 272.285 381.185C272.418 381.054 272.472 380.771 272.447 380.461C272.383 379.922 272.027 378.633 271.799 378.095C271.741 377.979 271.748 377.925 271.784 377.903C271.802 377.892 271.821 377.88 271.85 377.887C271.936 377.885 271.986 377.906 272.052 378.015L272.086 378.07C272.472 378.89 273.232 380.285 273.587 380.871C273.999 381.549 274.897 382.86 275.394 383.512L275.427 383.566C275.493 383.676 275.489 383.73 275.447 383.805C275.428 383.816 275.43 383.84 275.421 383.845C275.366 383.879 275.314 383.835 275.229 383.736C274.835 383.273 273.843 382.346 273.428 382.096C273.196 381.962 272.909 381.861 272.731 381.919C272.619 381.961 272.013 382.305 271.856 382.4L275.074 387.695C275.351 388.153 275.595 388.18 275.739 388.169C275.892 388.151 276.152 388.043 276.399 387.892C276.775 387.664 277.145 387.364 277.232 387.136C277.533 386.35 277.459 385.216 276.845 383.256C276.815 383.124 276.789 383.039 276.835 383.012C276.854 383 276.883 383.008 276.921 383.01C276.998 383.013 277.037 383.014 277.092 383.105C277.115 383.141 277.117 383.166 277.139 383.203C277.556 384.178 278.551 386.208 278.951 386.969C279.099 387.255 279.096 387.332 279.014 387.383L279.004 387.387C277.71 388.149 277.088 388.428 276.547 388.757L273.788 390.433C273.705 390.484 273.665 390.458 273.576 390.311C273.487 390.165 273.501 390.106 273.544 390.054C273.992 389.633 274.049 389.396 273.749 388.902L266.844 377.543C266.533 377.03 266.297 376.972 265.716 377.175C265.65 377.19 265.602 377.194 265.502 377.03C265.414 376.883 265.41 376.835 265.492 376.785L268.801 374.773C269.333 374.45 269.805 374.089 270.295 373.615L270.322 373.597ZM74.1401 368.6C74.2366 368.459 74.2792 368.435 74.3589 368.49L77.564 370.661C78.0782 371.01 78.6028 371.287 79.2378 371.536L79.2642 371.553C79.3262 371.595 79.3581 371.721 79.2104 371.958C78.7649 372.692 77.6924 374.504 77.1948 375.41L77.147 375.481C77.0867 375.57 77.0653 375.582 77.0093 375.569C76.9707 375.569 76.94 375.575 76.9224 375.562C76.8698 375.526 76.9001 375.443 76.9546 375.325C77.8682 373.251 77.8703 371.775 77.0884 371.246L76.0239 370.524L72.3423 375.957L72.5015 376.065C72.7322 376.221 73.0971 376.468 73.1802 376.499C73.3555 376.565 73.6352 376.496 73.9067 376.344C74.3697 376.061 75.3933 375.201 75.7896 374.769C75.8698 374.67 75.9213 374.651 75.9565 374.675C75.9741 374.687 75.9916 374.699 75.9976 374.729C76.0353 374.806 76.0392 374.86 75.9673 374.967L75.9302 375.019C75.3454 375.711 74.3935 376.984 74.0083 377.552C73.5628 378.208 72.7439 379.57 72.3579 380.293L72.3218 380.345C72.2497 380.452 72.1982 380.469 72.1128 380.463C72.0943 380.451 72.0742 380.463 72.0649 380.457C72.0121 380.421 72.029 380.355 72.0835 380.237C72.3402 379.685 72.7731 378.398 72.8276 377.917C72.8536 377.649 72.8253 377.346 72.6987 377.209C72.6132 377.125 72.048 376.715 71.897 376.613L68.4204 381.744C68.1201 382.188 68.1957 382.42 68.2661 382.546C68.3458 382.677 68.5516 382.869 68.7915 383.032C69.1548 383.279 69.5825 383.489 69.8267 383.473C70.6656 383.42 71.6662 382.88 73.1929 381.507C73.3003 381.424 73.3672 381.365 73.4116 381.395C73.429 381.407 73.4346 381.437 73.4487 381.472C73.4781 381.545 73.4927 381.58 73.4331 381.669C73.4088 381.704 73.3881 381.716 73.3638 381.752C72.6498 382.537 71.218 384.287 70.6919 384.968C70.4942 385.221 70.4229 385.25 70.3433 385.196L70.3335 385.19C69.103 384.331 68.5921 383.881 68.0679 383.526L65.395 381.716C65.3156 381.661 65.3229 381.614 65.4185 381.471C65.5147 381.33 65.5739 381.318 65.6392 381.337C66.208 381.567 66.4473 381.521 66.772 381.042L74.231 370.035C74.5673 369.538 74.5224 369.299 74.0972 368.856C74.0561 368.803 74.0319 368.761 74.1401 368.6ZM77.4731 383.148L79.5083 384.383L81.6851 378.48L77.4731 383.148ZM284.819 363.83C284.897 363.773 284.94 363.795 285.028 363.917C285.116 364.038 285.128 364.11 285.083 364.195C284.87 364.667 285.001 365.525 285.438 366.347L291.917 378.467C292.042 378.694 291.919 378.889 291.789 378.983C291.685 379.059 291.46 379.115 291.25 378.898L282.616 370.111L288.417 381.003C288.541 381.229 288.418 381.425 288.288 381.519C288.192 381.588 287.989 381.656 287.757 381.427L277.161 370.885C276.789 370.518 276.503 370.619 276.09 370.706C276.026 370.727 275.97 370.687 275.895 370.583C275.795 370.445 275.775 370.38 275.834 370.336L278.364 368.505C278.432 368.455 278.488 368.495 278.563 368.598C278.664 368.737 278.681 368.778 278.619 368.876C278.38 369.26 278.257 369.456 278.42 369.681C278.446 369.716 278.458 369.733 278.493 369.762L285.767 377.202L281.573 369.331C281.473 369.138 281.356 368.958 281.243 368.803C280.79 368.178 280.292 367.929 279.706 368.089C279.641 368.109 279.585 368.07 279.509 367.966C279.409 367.827 279.389 367.763 279.45 367.719L281.865 365.97C281.925 365.925 281.989 365.958 282.065 366.062C282.166 366.202 282.182 366.242 282.121 366.34C281.896 366.688 281.794 366.894 281.958 367.12C281.983 367.154 281.995 367.172 282.029 367.201L289.269 374.667L284.965 366.609C284.882 366.458 284.799 366.306 284.71 366.184C284.27 365.577 283.787 365.478 283.25 365.522C283.135 365.527 283.083 365.511 282.995 365.389C282.894 365.25 282.908 365.214 282.995 365.151L284.819 363.83ZM65.9761 362.5C66.079 362.363 66.131 362.348 66.1987 362.399L68.7905 364.363C68.8676 364.421 68.8575 364.469 68.7544 364.605C68.6506 364.742 68.5905 364.75 68.5269 364.728C68.0085 364.471 67.742 364.538 67.4048 364.981L63.8276 369.697L66.1353 371.447L69.7134 366.731C70.0503 366.288 70.0431 366.012 69.6548 365.584C69.6164 365.528 69.6086 365.468 69.7124 365.332C69.8163 365.195 69.859 365.173 69.936 365.231L72.5259 367.195C72.5947 367.247 72.5948 367.301 72.4907 367.437C72.3868 367.574 72.3176 367.575 72.2622 367.56C71.7062 367.3 71.4655 367.333 71.1157 367.795L63.0659 378.404C62.7154 378.865 62.7482 379.106 63.1489 379.571C63.1783 379.621 63.1955 379.687 63.0923 379.824C62.9884 379.961 62.9374 379.975 62.8687 379.924L60.2778 377.96C60.2015 377.901 60.2099 377.854 60.314 377.718C60.417 377.581 60.477 377.573 60.5415 377.595C61.0592 377.853 61.3262 377.785 61.6626 377.341L65.5132 372.267L63.2046 370.517L59.355 375.591C59.0177 376.035 59.0252 376.31 59.4136 376.739C59.4513 376.794 59.459 376.855 59.355 376.992C59.2519 377.128 59.2095 377.149 59.1323 377.092L56.5415 375.128C56.4736 375.076 56.4736 375.022 56.5776 374.886C56.6808 374.749 56.7498 374.747 56.8052 374.762C57.362 375.023 57.602 374.989 57.9526 374.528L66.0024 363.919C66.3523 363.457 66.3204 363.217 65.9194 362.752C65.8892 362.702 65.8722 362.636 65.9761 362.5ZM288.883 359.974C290.844 358.358 294.089 360.018 297.295 363.905C300.501 367.792 301.5 371.278 299.54 372.895C297.587 374.505 294.348 372.868 291.141 368.98C287.934 365.093 286.931 361.584 288.883 359.974ZM296.563 365.982C293.302 362.029 290.439 360.026 289.38 360.898C288.512 361.615 289.191 363.667 291.843 366.9C291.857 366.917 291.885 366.95 291.898 366.967C294.982 370.705 297.983 372.843 299.025 371.984C299.877 371.281 299.21 369.192 296.563 365.982ZM54.6323 357.843C56.358 355.877 58.2905 355.175 59.6841 356.395C60.0791 356.741 60.3946 357.474 60.5649 357.795C60.5817 357.838 60.628 357.879 60.6675 357.913C60.7681 358.002 60.9124 358.07 61.0181 358.106C61.0709 358.124 61.1165 358.135 61.1392 358.156C61.1934 358.203 61.1521 358.281 61.0181 358.448C60.3704 359.249 59.1474 360.829 58.5239 361.679L58.4536 361.761C58.4109 361.809 58.3748 361.834 58.3296 361.823C58.293 361.819 58.2636 361.821 58.2476 361.808C58.2014 361.767 58.2422 361.689 58.311 361.579C59.5374 359.574 59.729 357.718 59.063 357.135C58.1888 356.368 57.2356 356.674 56.4009 357.624C55.509 358.639 55.3319 359.653 55.8345 361.405C56.4132 363.366 55.945 365.351 54.0776 367.477C52.1253 369.701 50.1829 370.337 48.5796 368.933C47.999 368.424 47.5461 367.458 47.4663 366.676C47.4294 366.53 47.4758 366.398 47.5815 366.262C48.1101 365.614 49.4105 363.93 50.0591 362.988C50.0874 362.956 50.1083 362.917 50.1226 362.901C50.193 362.821 50.2449 362.809 50.312 362.81C50.342 362.808 50.3575 362.821 50.3726 362.835L50.3804 362.842C50.4265 362.883 50.4 362.944 50.3306 363.054C48.7469 365.857 48.7009 367.67 49.313 368.207C50.11 368.906 51.1403 368.638 52.0884 367.558C53.0495 366.463 53.4012 365.204 53.0591 363.536C52.5976 361.393 52.9199 359.792 54.6323 357.843ZM296.89 353.358C298.094 352.245 299.868 352.649 301.558 354.476C303.058 356.098 303.688 357.473 303.19 358.576C304.423 359.452 306.644 360.876 308.27 361.797C309.488 362.482 309.891 362.49 310.245 362.163C310.299 362.112 310.337 362.107 310.454 362.232C310.57 362.358 310.584 362.404 310.551 362.464C310.388 362.761 310.181 363.011 309.898 363.272C309.221 363.898 308.249 363.92 307.026 363.181C305.654 362.346 303.85 361.121 302.506 360.173C302.056 359.86 301.401 360.288 301.401 360.288L305.873 365.124C306.251 365.533 306.523 365.574 307.013 365.267C307.074 365.24 307.136 365.242 307.252 365.368C307.368 365.494 307.374 365.547 307.311 365.605L304.926 367.809C304.856 367.875 304.81 367.857 304.694 367.731C304.578 367.606 304.58 367.546 304.613 367.486C304.966 366.984 304.975 366.742 304.583 366.316L295.551 356.553C295.144 356.111 294.901 356.102 294.366 356.422C294.304 356.45 294.257 356.463 294.126 356.322C294.01 356.196 294.02 356.127 294.068 356.084C295.154 355.08 295.82 354.348 296.89 353.358ZM53.4292 351.481C53.5474 351.356 53.5922 351.34 53.6626 351.406L56.1528 353.751C56.2149 353.81 56.2088 353.863 56.0913 353.988C55.96 354.129 55.9056 354.108 55.8521 354.087C55.2815 353.755 55.0596 353.724 54.6636 354.145L45.5112 363.878C45.1144 364.3 45.1582 364.519 45.5239 365.069C45.5483 365.121 45.5584 365.189 45.4409 365.314C45.3236 365.439 45.2705 365.448 45.2085 365.389L42.7183 363.045C42.6553 362.986 42.6613 362.932 42.7788 362.807C42.8959 362.683 42.957 362.68 43.0181 362.709C43.5894 363.041 43.8107 363.072 44.2075 362.65L53.3599 352.918C53.7567 352.496 53.7112 352.277 53.3462 351.726C53.3144 351.667 53.2977 351.622 53.4292 351.481ZM46.853 344.88C46.9753 344.76 47.028 344.753 47.0884 344.814L49.3657 347.133C49.4337 347.201 49.4169 347.247 49.2944 347.367C49.1729 347.488 49.1116 347.487 49.0513 347.456C48.5767 347.126 48.3042 347.154 47.9067 347.544L43.6841 351.692L45.7144 353.76L49.9351 349.611C50.3336 349.22 50.3666 348.947 50.0444 348.467C50.0142 348.405 50.0148 348.345 50.1372 348.224C50.2596 348.105 50.3047 348.09 50.3726 348.159L52.6499 350.477C52.7103 350.539 52.7021 350.592 52.5796 350.712C52.4573 350.832 52.3893 350.824 52.3364 350.801C51.8238 350.463 51.5812 350.46 51.1685 350.866L41.6694 360.199C41.2559 360.605 41.2538 360.848 41.5825 361.366C41.6052 361.42 41.612 361.488 41.4897 361.608C41.3673 361.728 41.3138 361.735 41.2534 361.674L38.9771 359.355C38.9091 359.286 38.9249 359.241 39.0474 359.121C39.1696 359 39.2302 359.001 39.2905 359.032C39.7654 359.363 40.0383 359.335 40.436 358.944L44.979 354.48L42.9507 352.414L38.4067 356.878C38.0094 357.268 37.9771 357.541 38.2983 358.021C38.3285 358.083 38.3271 358.144 38.2046 358.264C38.0832 358.384 38.0373 358.399 37.9702 358.33L35.6919 356.011C35.6326 355.949 35.6402 355.897 35.7622 355.777C35.8847 355.656 35.9535 355.664 36.0063 355.687C36.5189 356.025 36.7607 356.028 37.1743 355.622L46.6743 346.289C47.0868 345.883 47.0881 345.64 46.7593 345.122C46.7375 345.068 46.7307 345 46.853 344.88ZM303.43 347.098C303.49 347.037 303.544 347.044 303.667 347.164C303.805 347.299 303.79 347.344 303.76 347.405C303.396 347.993 303.414 348.191 303.843 348.61L313.152 357.679C313.535 358.053 313.794 358.065 313.974 357.912C314.026 357.858 314.109 357.804 314.184 357.727C314.453 357.451 314.812 357.022 314.869 356.657C315.002 355.814 314.177 354.049 313.241 352.583C313.186 352.485 313.162 352.418 313.199 352.38C313.221 352.356 313.26 352.348 313.305 352.332C313.35 352.316 313.404 352.323 313.48 352.398C313.511 352.428 313.541 352.458 313.565 352.496C314.312 353.449 316.03 355.406 316.629 356.051C316.844 356.29 316.876 356.35 316.8 356.427L316.792 356.434C316.178 357.034 315.173 357.942 314.761 358.364L312.537 360.644C312.477 360.706 312.423 360.699 312.3 360.579C312.177 360.459 312.184 360.391 312.207 360.338C312.578 359.772 312.553 359.552 312.139 359.148L302.615 349.869C302.185 349.45 301.995 349.43 301.409 349.816C301.348 349.847 301.303 349.863 301.165 349.728C301.042 349.609 301.034 349.555 301.093 349.494L303.43 347.098ZM300.316 355.595C299.02 354.194 297.712 353.68 297.058 354.283C296.83 354.494 296.499 354.859 296.45 354.934L300.338 359.138C300.805 359.643 301.322 359.398 301.723 359.026C302.289 358.503 301.772 357.17 300.316 355.595ZM309.578 340.329C311.127 338.564 314.284 339.292 318.236 342.755C322.236 346.259 323.208 349.151 321.602 350.979L319.233 353.678C319.176 353.743 319.122 353.739 318.994 353.626C318.865 353.513 318.86 353.452 318.886 353.39C319.193 352.846 319.177 352.604 318.742 352.222L308.742 343.459C308.29 343.063 308.047 343.079 307.547 343.454C307.489 343.487 307.444 343.505 307.299 343.378C307.154 343.251 307.174 343.197 307.216 343.148C308.192 342.037 308.673 341.36 309.578 340.329ZM317.401 344.518C313.659 341.239 310.803 340.233 310.04 341.103C309.83 341.342 309.538 341.801 309.531 341.812L319.612 350.646C320.047 351.028 320.527 350.935 320.888 350.524C321.475 349.855 321.691 348.278 317.401 344.518ZM38.2632 335.019C38.3939 334.909 38.4481 334.905 38.5034 334.97L40.0474 336.797C40.1511 336.919 40.0783 337.065 39.9702 337.268L34.7808 346.409L40.8696 341.254C41.5902 340.644 41.8251 339.926 41.6011 339.329C41.5826 339.274 41.5647 339.22 41.7124 339.095C41.8427 338.984 41.8965 338.981 41.9517 339.046L43.5366 340.92C43.592 340.985 43.5804 341.038 43.4497 341.148C43.3022 341.273 43.2507 341.247 43.1929 341.212C42.6165 340.928 41.9338 341.084 41.23 341.679L30.8843 350.437C30.5578 350.713 30.4529 350.789 30.3833 350.708C30.2239 350.52 30.2136 350.374 30.4888 349.902L37.4741 337.738L28.9624 344.944C28.2425 345.554 28.0078 346.272 28.2251 346.861C28.2494 346.924 28.2514 346.993 28.1206 347.103C27.9899 347.214 27.9367 347.217 27.8813 347.152L26.3091 345.294C26.2541 345.228 26.2664 345.177 26.397 345.066C26.5279 344.955 26.5948 344.969 26.646 344.996C27.2205 345.309 27.8984 345.115 28.6021 344.519L37.8345 336.703C38.3812 335.988 38.2476 335.764 38.1528 335.254C38.1444 335.177 38.1165 335.144 38.2632 335.019ZM324.403 341.797C324.738 341.378 325.763 341.608 326.6 342.278C327.421 342.935 327.887 343.899 327.552 344.317C327.21 344.744 326.169 344.5 325.348 343.844C324.511 343.173 324.062 342.224 324.403 341.797ZM35.4106 331.346C35.5457 331.241 35.5933 331.231 35.6528 331.307L37.7603 334.002C37.8131 334.07 37.7995 334.121 37.6646 334.227C37.5127 334.346 37.4621 334.317 37.4126 334.288C36.8976 333.874 36.6844 333.809 36.228 334.167L25.7085 342.398C25.2522 342.755 25.2638 342.978 25.5415 343.578C25.5574 343.633 25.5574 343.702 25.4224 343.807C25.2875 343.913 25.2339 343.914 25.1812 343.846L23.0728 341.152C23.0199 341.084 23.0344 341.032 23.1694 340.927C23.3042 340.821 23.3643 340.828 23.4204 340.866C23.9347 341.28 24.1494 341.344 24.605 340.987L35.1245 332.756C35.58 332.399 35.5699 332.176 35.2915 331.577C35.2689 331.512 35.2588 331.465 35.4106 331.346ZM242.174 0.365021C243.067 -0.0807928 243.514 -0.303152 245.299 0.81131L246.416 1.92557C246.565 1.96295 246.709 2.00546 246.862 2.05057C247.618 2.27439 248.589 2.56157 251.549 2.59451C252.609 2.5945 253.817 2.5351 255.13 2.47049C257.414 2.35813 260.017 2.23035 262.709 2.37186C264.814 3.51859 265.607 4.50133 266.494 5.60135C266.641 5.78398 266.791 5.97055 266.95 6.16092C267.005 6.21573 267.059 6.27478 267.115 6.33572C267.197 6.42512 267.265 6.52925 267.336 6.63943C267.614 7.06511 267.954 7.58422 269.406 7.72147C269.812 7.75985 270.163 7.78909 270.489 7.81619C270.963 7.85564 271.388 7.89058 271.861 7.94412C272.413 8.00659 272.813 7.98833 273.258 7.96756C273.499 7.95632 273.754 7.94413 274.054 7.94412C275.655 8.38995 277.664 9.95112 278.333 11.5115C278.333 12.0745 277.441 12.8963 276.978 13.323C276.891 13.403 276.819 13.4695 276.771 13.5174C276.101 13.9633 275.272 15.0779 274.762 15.9695C273.869 17.5299 273.462 18.8674 273.423 20.2049C273.329 23.5103 271.742 24.4563 269.99 25.5008C269.365 25.8732 268.719 26.2583 268.112 26.7674L266.503 28.6756C266.407 28.8675 266.307 29.0414 266.211 29.2058C265.642 30.1871 265.262 30.8437 267.173 33.1346C268.82 34.3678 269.518 34.691 270.667 35.2234L270.672 35.2263C270.766 35.2699 270.867 35.3162 270.967 35.3631C271.353 35.5428 271.92 35.7791 272.488 36.0154C273.066 36.2558 273.65 36.4988 274.054 36.6873C274.199 36.745 274.341 36.8015 274.481 36.8572C279.496 38.861 281.266 39.5685 290.386 38.4842C291.531 38.348 292.024 38.6079 292.701 38.9646C292.815 39.0251 292.936 39.0885 293.065 39.1531L293.102 39.323C293.536 41.2802 293.995 43.3439 295.296 43.6111C296.5 43.8578 297.613 43.8665 298.734 43.8748C299.716 43.8821 300.706 43.8894 301.77 44.0574C302.445 44.1641 302.856 44.324 303.235 44.4715C303.482 44.5676 303.716 44.6586 304.001 44.7263C304.591 45.3332 305.007 45.8409 305.341 46.5096C305.788 47.4009 306.457 47.847 307.573 48.2928C307.865 48.3511 308.173 48.421 308.492 48.4939C309.39 48.6997 310.379 48.9269 311.368 48.9617C311.785 48.9764 312.193 48.9846 312.591 48.993C314.109 49.0249 315.487 49.054 316.724 49.407C317.519 50.0683 318.008 51.2795 318.456 52.3875C318.762 53.1468 319.05 53.8581 319.403 54.3113C320.569 55.8086 322.591 57.3713 324.689 58.992C325.402 59.5429 326.125 60.1007 326.825 60.6648C329.389 62.7314 329.726 63.467 330.328 64.7781C330.55 65.264 330.811 65.831 331.233 66.5721C332.349 68.5308 333.465 69.6931 335.25 70.5847C335.757 70.9396 336.174 71.1193 336.56 71.2859C337.164 71.5464 337.695 71.7751 338.375 72.5906C338.822 73.7051 339.268 74.8199 339.491 75.9344C339.491 79.0374 344.508 83.2182 348.636 86.658C348.914 86.8898 349.13 87.2362 349.341 87.575C349.542 87.8967 349.739 88.212 349.982 88.4178C350.219 88.7723 350.436 89.3769 350.637 89.9334C350.815 90.4259 350.98 90.8815 351.131 91.0926C351.148 91.173 351.166 91.2576 351.184 91.3445C351.365 92.2206 351.604 93.3826 352.213 93.991C352.325 94.2139 352.549 94.4371 352.772 94.6599C352.995 94.8827 353.218 95.1061 353.33 95.3289C353.399 95.74 353.528 95.9012 353.667 96.075C353.779 96.2163 353.899 96.3661 354 96.6658C353.103 99.1734 352.494 100.256 351.131 101.681C350.798 102.03 350.42 102.426 349.982 102.908C349.404 103.293 348.9 103.696 348.406 104.091C347.183 105.069 346.022 105.998 343.956 106.474C343.363 106.573 342.869 106.639 342.439 106.696C340.926 106.898 340.212 106.993 338.822 108.035C337.057 109.357 336.898 109.604 335.523 111.748L335.473 111.824C335.003 112.514 334.701 112.995 334.455 113.387C333.934 114.214 333.66 114.648 332.572 115.837C330.761 117.284 328.656 117.41 326.734 117.525C326.287 117.552 325.85 117.578 325.429 117.62C324.939 117.745 324.549 117.83 324.223 117.9C323.75 118.002 323.41 118.076 323.091 118.202C322.28 118.524 321.605 119.189 319.212 121.546L319.179 121.577C318.023 122.593 317.471 123.079 316.885 123.518C316.352 123.919 315.789 124.282 314.715 124.976C313.423 125.069 312.405 124.717 311.367 124.356C309.856 123.832 308.3 123.292 305.788 124.085C305.696 124.154 305.6 124.226 305.501 124.3L305.471 124.322L305.465 124.327C304.308 125.198 302.749 126.373 301.324 126.983C299.092 126.983 296.406 125.868 294.404 124.976C293.557 124.967 292.172 125.367 291.502 125.868C291.239 126.066 290.947 126.321 290.631 126.596C289.538 127.552 288.15 128.766 286.592 128.766C284.343 128.602 283.699 128.09 282.531 127.159C282.073 126.794 281.535 126.365 280.789 125.868C279.332 124.898 277.758 125.1 276.322 125.285C275.778 125.355 275.476 125.423 274.986 125.423C274.861 125.392 274.512 125.388 274.385 125.385C274.155 125.378 273.915 125.373 273.646 125.2C273.553 125.14 273.449 125.069 273.337 124.994C272.999 124.765 272.53 124.754 272.083 124.754C271.86 124.754 271.009 124.884 270.745 124.754C270.434 124.6 270.298 123.639 270.075 123.193C269.775 122.838 268.958 121.855 268.512 121.633C266.95 121.856 265.834 122.97 264.718 123.918C263.806 124.455 262.198 124.573 261.147 124.976C261.144 124.983 261.14 124.99 261.136 124.997C261.131 125.008 261.125 125.019 261.12 125.03C261.108 125.052 261.097 125.074 261.085 125.096C260.856 125.537 260.536 126.149 261.147 126.76C262.486 127.205 262.963 127.296 264.272 127.428C264.567 127.428 264.862 127.425 265.154 127.422C266.407 127.407 267.831 127.617 268.736 127.875C269.94 128.218 270.917 129.039 271.514 129.712C271.692 129.912 271.875 130.119 272.083 130.327C272.166 130.71 272.179 131.175 272.193 131.644C272.207 132.12 272.221 132.601 272.307 133.002L272.334 133.047C272.741 133.718 272.991 134.131 273.646 134.785C275.695 135.572 276.736 135.525 277.961 135.469C278.471 135.445 279.013 135.421 279.672 135.454C279.867 135.464 280.053 135.472 280.231 135.479C282.115 135.561 283.195 135.609 285.03 137.237C285.483 137.704 285.642 137.911 285.801 138.119C285.962 138.329 286.125 138.54 286.592 139.02C287.096 140.194 287.842 140.853 288.569 141.495C288.808 141.706 289.045 141.916 289.27 142.141C290.733 143.164 292.387 142.9 293.98 142.644C294.817 142.51 295.638 142.378 296.406 142.437C297.282 142.583 297.817 142.672 298.326 142.837C299.116 143.092 299.847 143.531 301.712 144.648C303.83 146.702 304.312 148.571 304.761 150.319C305.129 151.749 305.475 153.098 306.68 154.402L309.582 156.743L309.632 156.786C310.45 157.49 311.823 158.674 312.26 160.421C312.224 162.148 311.399 163.18 310.558 164.229C310.023 164.897 309.482 165.573 309.135 166.439C309.08 167.156 309.395 168.349 310.028 168.891C311.59 170.229 311.916 170.565 313.153 172.012C313.461 172.919 313.594 173.768 313.727 174.62C313.855 175.44 313.983 176.263 314.269 177.139L318.287 181.152C318.455 182.452 318.545 183.149 318.602 183.849C318.668 184.659 318.688 185.472 318.733 187.223C318.757 188.177 318.725 189.041 318.695 189.847C318.576 192.964 318.489 195.266 321.858 198.985C322.15 199.131 322.567 199.498 322.986 199.866C323.411 200.24 323.84 200.617 324.146 200.769C324.29 202.083 324.239 203.114 324.186 204.184C324.146 204.999 324.104 205.838 324.146 206.844C324.18 207.607 324.2 208.322 324.219 209.001C324.296 211.721 324.357 213.876 325.206 216.373C326.322 217.487 327.786 218.888 329 219.494C330.564 221.02 330.762 221.348 331.541 222.637C331.753 222.989 332.009 223.413 332.348 223.953C332.419 224.517 332.518 224.914 332.612 225.289C332.814 226.098 332.991 226.802 332.795 228.856C332.666 230.217 332.379 231.397 332.104 232.528C331.771 233.896 331.456 235.195 331.456 236.659C331.456 237.981 331.685 239.453 331.912 240.906C332.143 242.393 332.371 243.861 332.348 245.13C332.332 245.681 332.341 246.062 332.349 246.446C332.357 246.836 332.365 247.228 332.348 247.804C331.902 249.365 331.456 251.149 334.357 255.161C334.803 256.498 334.804 257.613 334.581 258.727C332.667 261.754 333.58 264.582 334.436 267.23C334.778 268.288 335.111 269.317 335.25 270.319C335.311 271.1 335.292 271.812 335.272 272.585C335.261 272.995 335.25 273.423 335.25 273.887C334.582 275.135 334.26 275.736 333.909 276.314C333.587 276.845 333.239 277.359 332.572 278.345C331.456 280.128 331.456 281.02 332.572 283.918C332.718 284.21 332.919 284.776 333.122 285.346C333.327 285.926 333.535 286.51 333.688 286.815C333.807 290.09 333.614 291.272 332.572 294.394C332.521 295.194 332.324 295.945 332.128 296.694C331.906 297.544 331.685 298.39 331.679 299.299V302.197C331.75 304.235 332.109 305.084 332.662 306.393C332.897 306.95 333.166 307.589 333.464 308.438C334.514 312.228 334.562 314.253 334.532 317.798L334.514 321.394C334.507 322.001 334.417 322.512 334.327 323.027C334.235 323.55 334.142 324.077 334.134 324.712C334.132 325.095 334.132 325.564 334.132 326.066V326.19C334.132 326.292 334.133 326.396 334.133 326.5V326.592C334.134 326.726 334.134 326.861 334.134 326.997V327.043L334.135 327.318V327.686C334.137 328.314 334.137 328.914 334.134 329.393C334.124 330.89 334.186 332.265 334.248 333.637C334.312 335.077 334.376 336.516 334.357 338.087L268.588 269.249L250.942 308.348H248.899L220.114 241.701C216.647 233.664 214.315 228.945 213.119 227.544C211.963 226.142 209.755 225.255 206.495 224.885V222.597H224.018L158.464 153.983V188.913H156.113C155.618 184.132 154.565 180.216 152.956 177.166C151.387 174.116 149.551 172.075 147.446 171.045C145.341 169.973 142.287 169.437 138.284 169.437V193.054C138.284 197.671 138.47 200.495 138.841 201.525C139.254 202.555 139.997 203.4 141.07 204.059C142.143 204.719 143.877 205.049 146.27 205.049H151.284C159.125 205.049 165.398 203.235 170.103 199.608C174.849 195.981 178.253 190.458 180.317 183.039H182.607L178.832 209.685H106.28V207.398H109.065C111.5 207.398 113.46 206.965 114.946 206.099C116.019 205.522 116.845 204.534 117.422 203.133C117.876 202.143 118.103 199.546 118.103 195.343V140.194C118.103 136.402 118 134.073 117.793 133.208C117.381 131.766 116.617 130.653 115.503 129.87C113.935 128.716 111.789 128.138 109.065 128.138H106.28V125.851H131.586L64.728 55.8719C64.5316 55.6441 64.2583 55.3875 63.9761 55.1228C63.4383 54.6183 62.8656 54.0808 62.7192 53.6424C62.72 53.1961 64.0567 51.6607 65.7095 49.7625C66.536 48.8132 67.4423 47.7722 68.2993 46.7322C68.6922 46.2554 69.3195 45.5072 69.9507 44.7537C70.5911 43.9892 71.2372 43.218 71.6479 42.7195C71.9859 42.3568 72.3105 41.9356 72.6372 41.5115C72.9688 41.081 73.3032 40.6467 73.6567 40.2674C74.1029 40.0447 74.3269 40.0446 75.2192 40.2674C75.3552 40.9655 75.4999 41.5966 75.6411 42.2107C76.2679 49.519 77.4889 51.3493 78.3169 52.5906C78.4051 52.7229 78.4888 52.8496 78.5669 52.9744C80.799 56.5412 86.1204 63.7286 92.6284 72.1453C93.1149 72.7744 93.5927 73.393 94.062 74.0008C101.775 83.9886 107.247 91.0745 112.717 94.4363C118.52 98.0029 120.976 98.4489 130.43 95.6834C135.468 93.155 139.285 89.5148 142.403 84.8513C146.706 77.0156 147.983 71.9221 149.322 63.0056C149.465 62.1096 149.601 60.8111 149.74 59.492C149.789 59.0249 149.838 58.5543 149.888 58.0984L150.193 55.4851C150.52 52.44 150.653 49.4171 150.773 46.3426C151.251 38.1175 152.039 30.577 156.409 23.4373C160.841 17.3927 165.839 14.1858 173.428 11.2879C179.603 9.1665 185.033 8.63477 191.507 8.61307C192.01 8.52686 192.609 8.50911 193.233 8.491C194.172 8.46373 195.167 8.43547 195.971 8.16776C197.761 7.03013 198.497 6.15113 199.706 4.70584C200.155 4.16875 200.67 3.55321 201.329 2.81717C201.998 2.06915 204.454 2.14861 210.256 4.60037C210.529 4.69127 210.784 4.82 211.048 4.95291C212.08 5.47185 213.263 6.0659 216.283 4.82401C216.657 4.59587 217.074 4.38084 217.493 4.16483C217.918 3.94564 218.346 3.7246 218.738 3.48611C219.094 3.27622 219.465 2.99717 219.837 2.71658C220.216 2.43179 220.598 2.14508 220.97 1.92557C223.436 1.76139 224.329 2.08056 226.322 2.79471C227.035 3.05012 227.888 3.35649 229.005 3.70877C229.325 3.78254 229.633 3.85614 229.929 3.92752C232.319 4.50283 234.063 4.92251 237.041 3.93143C239.049 3.03978 239.942 2.37118 242.174 0.365021ZM25.5522 324.157C27.7024 322.667 29.7458 322.452 30.8013 323.975C31.1007 324.406 31.2296 325.194 31.3169 325.547C31.3228 325.593 31.3578 325.644 31.3872 325.686C31.4636 325.796 31.5872 325.898 31.6812 325.959C31.728 325.989 31.769 326.011 31.7866 326.036C31.8277 326.095 31.7685 326.161 31.5981 326.292C30.775 326.912 29.2063 328.15 28.395 328.824L28.3071 328.886C28.2544 328.922 28.2134 328.938 28.1724 328.917C28.1373 328.903 28.1081 328.899 28.0962 328.882C28.061 328.831 28.1195 328.765 28.2134 328.676C29.8889 327.026 30.5243 325.27 30.02 324.542C29.3572 323.587 28.3591 323.652 27.3188 324.373C26.2089 325.143 25.7909 326.083 25.853 327.906C25.9394 329.95 25.0036 331.763 22.6763 333.376C20.2434 335.062 18.2067 335.21 16.9927 333.459C16.553 332.824 16.348 331.775 16.4604 330.996C16.4606 330.846 16.5366 330.73 16.6714 330.624C17.3418 330.122 19.0113 328.802 19.8696 328.045C19.9047 328.02 19.9341 327.988 19.9517 327.975C20.0395 327.914 20.0923 327.916 20.1567 327.933C20.1861 327.938 20.1977 327.956 20.2095 327.972L20.2153 327.98C20.2506 328.031 20.2097 328.085 20.1157 328.176C17.8994 330.512 17.4164 332.263 17.8794 332.93C18.4835 333.802 19.5467 333.792 20.728 332.973C21.9267 332.143 22.5738 331.005 22.646 329.303C22.719 327.111 23.4187 325.636 25.5522 324.157ZM21.4067 310.16C21.5729 310.062 21.6191 310.098 21.6519 310.153C22.4035 311.426 22.8971 312.093 23.5942 313.274C24.7873 315.296 23.1112 318.065 18.5884 320.738C14.0099 323.443 10.9598 323.464 9.72314 321.369L7.89795 318.278C7.85442 318.204 7.87537 318.153 8.02295 318.066C8.17007 317.979 8.22871 317.995 8.27979 318.04C8.70086 318.5 8.93598 318.561 9.43408 318.266L20.8813 311.504C21.3978 311.198 21.4579 310.964 21.2583 310.373C21.244 310.307 21.2408 310.258 21.4067 310.16ZM26.1714 319.036C26.7125 318.688 27.2594 318.705 27.4565 319.012C27.6592 319.328 27.4428 319.824 26.9019 320.172L26.812 320.229C26.0494 320.669 23.7892 321.791 22.5659 322.387C22.3914 322.473 22.3445 322.44 22.2808 322.341C22.217 322.242 22.206 322.186 22.3569 322.063C23.4057 321.197 25.3474 319.617 26.0815 319.094L26.1714 319.036ZM10.6606 319.584C10.1624 319.878 10.1 320.362 10.3774 320.833C10.8297 321.599 12.2618 322.297 17.1724 319.395C21.4563 316.865 23.3024 314.468 22.7144 313.47C22.5507 313.194 22.1987 312.766 22.1987 312.766L10.6606 319.584ZM10.2349 305.66C14.7008 303.325 18.341 303.067 19.5132 305.307C20.6911 307.557 18.3972 310.389 13.9312 312.723C9.46529 315.058 5.84856 315.317 4.67139 313.067C3.49847 310.827 5.76897 307.995 10.2349 305.66ZM18.5063 305.603C17.9851 304.607 15.8359 304.848 12.1255 306.775C12.107 306.785 12.0678 306.806 12.0493 306.815C7.75474 309.061 5.04258 311.556 5.66846 312.752C6.18046 313.729 8.36329 313.506 12.0493 311.58C16.5917 309.205 19.1423 306.819 18.5063 305.603ZM164.113 222.597C174.265 222.597 181.693 223.299 186.398 224.7C191.103 226.101 194.941 228.697 197.913 232.489C200.884 236.24 202.37 240.651 202.37 245.72C202.37 251.903 200.141 257.013 195.684 261.053C192.837 263.608 188.854 265.525 183.737 266.803L203.917 295.18C206.558 298.848 208.436 301.136 209.55 302.043C211.242 303.32 213.203 304.021 215.431 304.144V306.432H188.999L161.946 268.224H156.437V291.718C156.437 296.251 156.705 299.116 157.242 300.311C157.819 301.465 158.81 302.393 160.212 303.094C161.616 303.794 164.237 304.144 168.075 304.144V306.432H125.114V304.144C128.993 304.144 131.613 303.794 132.975 303.094C134.378 302.352 135.348 301.404 135.884 300.25C136.462 299.096 136.751 296.251 136.751 291.718V237.312C136.751 232.778 136.462 229.934 135.884 228.78C135.348 227.585 134.378 226.637 132.975 225.936C131.572 225.236 128.951 224.885 125.114 224.885V222.597H164.113ZM6.14697 296.839C10.5331 294.83 14.3722 294.664 15.4302 296.974C15.6532 297.462 15.7921 298.33 15.7007 298.902C15.6765 299.055 15.7115 299.286 15.7827 299.442L15.814 299.51C15.8408 299.568 15.8822 299.609 15.8999 299.647C15.9444 299.745 15.9231 299.802 15.7134 299.91C14.8584 300.36 13.134 301.28 12.2095 301.786L12.1313 301.821C12.034 301.866 12.0102 301.864 11.9683 301.825C11.9398 301.814 11.9305 301.795 11.9263 301.785C11.8952 301.717 11.9836 301.653 12.0532 301.597C14.4962 299.724 15.0386 298.591 14.521 297.461C13.9756 296.272 11.5875 296.411 7.8833 298.107C2.54162 300.552 0.791047 302.757 1.34033 303.956C1.69688 304.735 2.11936 304.885 3.15283 304.412L6.85693 302.716C7.36368 302.483 7.46372 302.237 7.37061 301.725C7.34963 301.629 7.41928 301.574 7.55518 301.512C7.71121 301.439 7.74871 301.47 7.79736 301.577L9.00732 304.219C9.05683 304.325 9.05024 304.364 8.89502 304.435C8.75861 304.498 8.67634 304.524 8.61182 304.435C8.3207 304.109 8.06967 304.023 7.56299 304.256L3.25342 306.227C3.09741 306.299 3.05361 306.307 2.87744 306.282C1.85654 306.112 0.829057 305.311 0.266113 304.083C-0.871579 301.597 1.74051 298.856 6.14697 296.839ZM240.356 239.723L258.247 281.455L265.254 265.759L240.335 239.677C240.342 239.692 240.349 239.708 240.356 239.723ZM156.437 263.835H159.965C165.702 263.835 169.994 263.319 172.841 262.289C175.689 261.217 177.917 259.322 179.527 256.601C181.178 253.84 182.003 250.254 182.003 245.844C182.003 239.455 180.497 234.735 177.484 231.685C174.512 228.636 169.704 227.111 163.06 227.111H156.437V263.835ZM86.3765 177.845V141.802C86.3764 136.773 85.6539 133.373 84.2095 131.6C82.2285 129.21 78.9059 128.056 74.2427 128.138V125.851H101.976V128.138C98.4271 128.592 96.0335 129.19 94.7954 129.931C93.5988 130.632 92.6493 131.806 91.9478 133.455C91.2875 135.062 90.9575 137.845 90.9575 141.802V211.602H88.8521L32.0864 141.802V195.095C32.0864 199.917 33.1805 203.173 35.3677 204.863C37.5962 206.553 40.1344 207.398 42.9819 207.398H44.9624V209.685H15.187V207.398C19.809 207.357 23.0284 206.409 24.8442 204.554C26.6601 202.7 27.5679 199.546 27.5679 195.095V135.928L25.772 133.703C23.9975 131.477 22.4297 130.014 21.0679 129.313C19.706 128.613 17.7455 128.221 15.187 128.138V125.851H44.9624L86.3765 177.845ZM138.284 164.801H139.956C145.279 164.801 149.138 163.131 151.532 159.793C153.183 157.489 154.421 154.431 155.248 150.617L138.284 132.86V164.801Z" fill="#E20000"/>
</svg>
