<svg width="373" height="436" viewBox="0 0 373 436" fill="none" xmlns="http://www.w3.org/2000/svg">
<path d="M239.174 0.604833C240.845 0.175828 242.311 -0.200933 243.919 0.120458C246.803 0.697143 248.677 0.753014 250.812 0.816747C251.747 0.844688 252.733 0.875071 253.876 0.950536C256.295 1.11023 259.567 1.07026 261.689 1.01792C262.848 0.989325 263.805 1.92836 263.776 3.08725C263.662 7.60831 263.413 18.3405 263.417 25.8343C263.422 33.723 263.711 45.323 263.804 48.8402C263.821 49.4985 263.516 50.1206 262.994 50.5228C261.958 51.3217 259.983 52.8862 257.194 55.2796C256.287 56.0586 255.416 57.1801 254.515 58.3412C253.658 59.4445 252.773 60.5841 251.802 61.5003C251.231 62.0385 250.549 62.6463 249.839 63.2777C248.714 64.2783 247.52 65.3406 246.593 66.2874C246.47 66.413 246.365 66.557 246.279 66.7103C243.869 71.0211 241.074 73.0653 237.895 75.0628C237.765 75.1443 237.655 75.2544 237.573 75.3841C237.08 76.1713 236.423 77.2215 236.452 78.0902C236.469 78.5894 236.687 78.8898 236.939 79.2347C237.051 79.3893 237.171 79.5537 237.281 79.7484C238.731 82.301 242.117 85.0223 243.407 86.0042C243.739 86.2565 244.144 86.3841 244.561 86.3841H255.428C256.022 86.384 256.581 86.1249 256.964 85.6712C258.878 83.4053 264.99 76.2618 269.641 71.8685C272.41 69.2521 276.673 65.7108 278.199 64.4544C278.566 64.1528 279.025 63.9949 279.499 64.0062C281.401 64.0517 286.614 64.1881 290.383 64.4037C292.171 64.5059 293.7 64.6518 295.18 64.7933C297.336 64.9994 299.39 65.1958 301.999 65.2328C304.736 65.2716 306.804 65.0547 308.929 64.8314C310.72 64.6431 312.552 64.4505 314.859 64.4037C320.214 64.2949 323.07 64.2573 328.55 64.8187C329.707 64.9372 330.737 65.0868 331.719 65.2298C333.929 65.5519 335.894 65.8382 338.506 65.6478C340.06 65.5345 341.168 65.1656 342.342 64.7748C343.18 64.4956 344.052 64.205 345.144 63.9886C355.237 63.3376 366.098 63.7091 370.304 63.8988C371.33 63.9451 372.14 64.7709 372.168 65.7982C372.236 68.2735 372.314 72.7776 372.109 76.016C372.023 77.3773 371.857 78.469 371.696 79.5287C371.493 80.8724 371.297 82.1663 371.279 83.8958C371.262 85.5937 371.487 86.9557 371.707 88.2933C371.93 89.647 372.148 90.9771 372.109 92.6058C372.054 94.9257 371.863 96.7859 371.679 98.597C371.45 100.838 371.229 103.005 371.279 105.876C371.317 108.046 371.611 109.623 371.907 111.217C372.166 112.606 372.428 114.009 372.524 115.83C372.607 117.378 372.571 118.612 372.536 119.841C372.505 120.924 372.475 122.005 372.524 123.295C372.175 130.273 372.12 139.892 372.111 142.771C372.11 143.313 371.89 143.829 371.505 144.21C370.198 145.504 367.071 148.657 365.157 151.082C364.62 151.763 364.235 152.354 363.862 152.926C363.376 153.673 362.909 154.388 362.152 155.23C361.022 156.487 359.946 157.212 358.838 157.956C357.907 158.582 356.954 159.222 355.93 160.206C354.462 161.616 353.533 162.872 352.582 164.157C351.761 165.267 350.923 166.399 349.707 167.671C347.469 170.014 345.533 171.506 343.515 173.063C341.954 174.266 340.344 175.508 338.506 177.21C335.4 180.087 331.124 184.5 329.565 186.122C329.18 186.523 328.651 186.746 328.096 186.74C326.577 186.722 323.159 186.685 318.593 186.64C317.524 186.63 316.391 186.942 315.206 187.27C313.906 187.629 312.542 188.006 311.126 187.994C309.776 187.982 308.445 187.617 307.062 187.238C305.128 186.707 303.091 186.149 300.754 186.488C299.607 186.654 298.576 186.992 297.619 187.306C296.512 187.669 295.504 188 294.531 187.994C276.278 186.488 256.83 186.318 255.535 186.749C253.12 187.554 249.534 189.14 248.565 192.642C248.505 192.857 248.494 193.084 248.529 193.305C248.769 194.78 249.376 195.561 249.99 196.353C250.358 196.826 250.909 197.137 251.508 197.154C254.506 197.239 257.06 197.041 259.431 196.858C263.391 196.551 266.839 196.285 270.985 197.442C271.194 197.5 271.392 197.595 271.566 197.723C273.143 198.876 273.682 199.766 274.279 200.754C274.849 201.697 275.474 202.73 277.107 204.167C278.821 205.676 280.331 206.663 281.753 207.594C283.863 208.975 285.781 210.231 287.894 212.877C289.184 214.494 289.571 216.074 289.955 217.644C290.445 219.648 290.932 221.636 293.287 223.66C296.484 226.408 302.236 229.207 303.436 229.777C303.586 229.848 303.723 229.933 303.852 230.038C304.748 230.769 308.561 233.885 311.126 236.102C315.569 239.941 320.212 248.06 320.252 248.129C320.252 248.129 323.678 252.8 326.476 255.18C327.342 255.917 328.16 256.366 328.953 256.801C329.945 257.345 330.9 257.87 331.868 258.912C335.005 262.289 338.984 266.508 341.764 269.447C342.997 270.75 342.027 272.903 340.233 272.848C336.275 272.727 330.692 272.586 326.476 272.598C323.022 272.608 320.331 272.707 317.615 272.807C315.234 272.895 312.833 272.984 309.881 273.013C306.118 273.051 303.191 273.136 300.256 273.221C297.378 273.305 294.491 273.388 290.798 273.428C282.298 273.519 269.717 273.148 266.325 273.041C266.385 273.54 267.201 280.503 267.151 285.04C267.107 289.085 266.328 295.355 266.321 295.409V301.356C266.321 303.242 268.694 304.08 269.878 302.612L276.224 294.745C276.526 294.371 276.952 294.118 277.427 294.039C278.71 293.828 281.405 293.414 283.33 293.334C285.219 293.256 286.886 293.545 288.455 293.817C290.125 294.105 291.686 294.375 293.287 294.164C294.178 294.047 294.954 293.924 295.678 293.809C297.615 293.502 299.18 293.253 301.584 293.334C303.917 293.413 305.298 293.634 307.28 293.951C307.7 294.018 308.148 294.089 308.637 294.164C312.42 294.747 317.756 294.519 320.66 294.327C321.797 294.251 322.789 295.11 322.835 296.248C322.997 300.296 323.264 309.38 322.741 315.73C322.644 316.908 322.48 317.873 322.323 318.796C322.091 320.165 321.874 321.445 321.912 323.196C321.939 324.415 322.329 326.019 322.775 327.856C323.226 329.71 323.735 331.802 323.986 333.978C324.412 337.661 323.941 340.465 323.458 343.341C323.049 345.779 322.63 348.271 322.741 351.397C322.816 353.494 323.085 355.066 323.355 356.637C323.67 358.48 323.986 360.323 323.986 363.009C323.986 367.986 323.876 370.555 323.571 374.621C323.146 380.31 322.85 387.834 322.766 390.114C322.749 390.558 322.585 390.98 322.327 391.342C321.722 392.19 320.667 393.88 320.667 395.359C320.667 396.575 320.953 397.221 321.356 398.133C321.628 398.747 321.953 399.481 322.28 400.59C322.312 400.696 322.333 400.807 322.346 400.916C324.041 416.004 323.587 427.565 323.142 433.292C323.014 434.935 321.078 435.607 319.912 434.442L231.205 345.76C230.424 344.98 229.158 344.98 228.377 345.76L209.973 364.159C208.713 365.418 206.559 364.526 206.559 362.744V273.013H265.457V218.96C265.457 217.179 263.303 216.287 262.043 217.546L206.559 273.013V216.133C206.558 215.029 205.663 214.133 204.559 214.133H147.661L202.337 159.474C203.597 158.214 202.705 156.059 200.923 156.059H147.685L89.5938 214.133L147.661 273.001V214.133L206.559 273.013H33.5137C32.4094 273.013 31.5137 272.117 31.5137 271.013V213.292H88.7637L31.5137 156.059H112.825L24.792 68.0521C23.5592 66.8187 24.385 64.7284 26.129 64.7015C28.822 64.66 32.205 64.6576 34.8331 64.8187C36.27 64.9068 37.4219 65.0699 38.5411 65.2289C39.9531 65.4294 41.3138 65.6228 43.1299 65.6478C45.3898 65.6789 47.068 65.3642 48.7774 65.0433C50.5184 64.7165 52.2926 64.3833 54.7461 64.4037C56.4708 64.418 57.8595 64.5259 59.209 64.6302C60.9043 64.7612 62.5387 64.8872 64.7022 64.8187C66.0047 64.7774 67.0506 64.6932 68.0684 64.6117C69.3316 64.5104 70.5526 64.4126 72.17 64.4037C74.345 64.3916 77.3333 64.5825 79.0665 64.7093C79.908 64.771 80.6123 65.362 80.794 66.1859C81.004 67.1391 81.2469 68.4092 81.2969 69.3802C81.3836 71.0649 81.5524 72.4098 81.7159 73.7054C81.9342 75.4362 82.1419 77.081 82.126 79.3343C82.102 82.7418 80.774 87.7553 80.5118 88.7123C80.4822 88.8202 80.4608 88.9271 80.4493 89.0384C80.337 90.1296 79.7285 96.3695 80.0518 100.486C80.1509 101.747 80.3064 102.737 80.4561 103.69C80.6749 105.082 80.8819 106.396 80.8819 108.366C80.8819 109.451 80.7328 110.875 80.6133 111.841C80.5296 112.519 80.7772 113.198 81.2872 113.652C82.6273 114.845 85.3161 117.276 87.1045 119.148C88.5873 120.7 90.6206 122.929 91.5635 123.967C91.8984 124.336 92.3572 124.568 92.8545 124.593C94.0832 124.656 96.5264 124.688 98.3057 124.125C101.17 123.219 102.482 121.813 104.446 119.705C104.734 119.397 105.036 119.073 105.358 118.734C106.161 117.89 106.738 117.01 107.313 116.135C108.039 115.029 108.76 113.931 109.922 112.927C110.904 112.079 111.923 111.551 112.914 111.037C114.224 110.359 115.488 109.704 116.56 108.366C117.213 107.549 117.532 106.794 117.853 106.032C118.154 105.315 118.459 104.59 119.048 103.803C119.882 102.689 120.749 102.041 121.632 101.381C122.421 100.792 123.224 100.192 124.026 99.2416C124.708 98.4341 125.108 97.6691 125.496 96.9242C125.966 96.0226 126.422 95.1489 127.346 94.264C128.305 93.3457 129.861 92.4349 130.885 91.8851C131.512 91.5481 131.945 90.9265 131.996 90.2162C132.157 87.9999 132.469 83.0519 132.323 79.7484C132.243 77.9263 131.955 76.5431 131.677 75.2035C131.36 73.679 131.054 72.2093 131.079 70.2103C131.097 68.7545 131.325 67.4633 131.537 66.2611C131.729 65.1744 131.909 64.159 131.909 63.1595C131.909 62.0215 131.806 61.1005 131.709 60.2298C131.53 58.6226 131.371 57.1844 131.909 54.8646C132.084 54.1113 132.385 53.3872 132.687 52.6644C133.065 51.7571 133.442 50.8505 133.568 49.888C133.784 48.2413 133.053 47.003 132.328 45.7757C131.712 44.7326 131.101 43.6965 131.079 42.4232C131.035 39.8623 131.574 36.196 131.806 34.7494C131.871 34.344 132.065 33.9723 132.356 33.682L164.651 1.39585C164.942 1.10589 165.31 0.912068 165.716 0.854833C167.6 0.589477 173.534 -0.0750656 180.032 0.950536C180.749 1.0636 181.356 1.18357 181.929 1.29722C183.039 1.51745 184.021 1.71254 185.425 1.77964C187.236 1.86619 188.686 1.61327 190.129 1.36167C191.15 1.18372 192.167 1.00686 193.307 0.950536C196.016 0.816681 200.032 0.280223 200.982 0.149755C201.12 0.130822 201.258 0.12562 201.397 0.136083C202.258 0.201032 205.616 0.475052 207.827 0.950536C208.939 1.18962 209.808 1.59554 210.641 1.98569C211.797 2.52733 212.886 3.03754 214.465 3.02378C215.879 3.01141 216.85 2.71123 217.901 2.38608C218.604 2.16897 219.342 1.94084 220.273 1.77964C220.904 1.67019 221.441 1.5087 221.951 1.35483C222.865 1.07931 223.694 0.829292 224.836 0.950536C225.864 1.05973 226.718 1.23997 227.606 1.42807C228.172 1.54767 228.751 1.67032 229.399 1.77964C230.891 2.03122 231.972 1.84876 233.196 1.64194C233.808 1.53873 234.455 1.42905 235.207 1.3646C236.713 1.2356 237.995 0.907413 239.174 0.604833ZM144.692 390.89C146.455 390.89 146.455 395.936 146.103 397.352C145.838 398.414 144.075 400.627 143.635 399.83C143.163 398.977 143.203 397.131 143.251 394.978C143.266 394.288 143.282 393.567 143.282 392.837C143.282 391.8 143.66 390.89 144.692 390.89ZM125.478 387.172C126.489 387.142 126.853 388.016 127.243 388.952C127.353 389.216 127.465 389.484 127.594 389.739C127.64 389.829 127.684 389.916 127.727 389.999C128.053 390.633 128.29 391.091 128.299 391.864C128.306 392.425 128.101 392.971 127.944 393.388C127.848 393.645 127.77 393.853 127.77 393.988C127.77 394.707 128.55 394.825 129.272 394.935C129.33 394.944 129.387 394.952 129.444 394.961C130.773 395.172 131.578 395.187 132.665 395.207C132.948 395.213 133.251 395.217 133.587 395.227C134.852 395.263 136.027 395.113 137.082 394.978C137.868 394.877 138.588 394.785 139.228 394.785C140.726 394.785 141.255 396.644 141.255 397.352C141.255 398.06 141.255 398.692 140.991 399.034C140.786 399.299 138.909 399.648 137.554 399.565C135.52 399.44 133.388 399.452 131.472 399.463C129.319 399.476 127.437 399.486 126.272 399.299C125.574 399.187 125.19 398.663 125.037 397.971C124.836 397.061 124.817 396.219 124.799 395.444C124.785 394.862 124.772 394.318 124.685 393.811C124.647 393.594 124.668 393.281 124.69 392.959C124.734 392.299 124.781 391.598 124.332 391.598C124.081 391.598 123.817 392.024 123.535 392.478C123.422 392.661 123.306 392.848 123.187 393.014C122.778 393.582 122.556 394.101 122.338 394.611C122.089 395.193 121.845 395.763 121.335 396.378C120.748 397.086 119.132 398.326 117.369 399.299C116.576 399.737 114.699 399.878 112.962 399.918C112.755 399.923 112.559 399.929 112.37 399.935C111.081 399.974 110.167 400.003 108.819 399.565C108.605 399.495 108.401 399.438 108.206 399.384C107.468 399.179 106.863 399.01 106.352 398.326C105.875 397.687 105.653 397.172 105.734 396.378C105.811 395.64 105.926 394.961 106.616 394.696C107.147 394.492 107.434 394.902 107.757 395.364C107.977 395.678 108.213 396.016 108.555 396.201C109.894 396.922 110.825 397.103 112.345 397.086C113.797 397.071 114.621 396.767 115.959 396.201C118.194 395.254 119.22 394.105 120.794 392.341C120.856 392.272 120.919 392.201 120.982 392.129C121.739 391.283 122.328 390.346 122.833 389.544C123.154 389.034 123.441 388.578 123.715 388.234C124.216 387.604 124.675 387.196 125.478 387.172ZM2.169 392.306C2.73665 392.306 2.87195 392.791 3.04595 393.417C3.22301 394.054 3.44074 394.838 4.19634 395.405C5.49452 396.378 6.95754 396.378 8.60259 396.378C9.72701 396.378 10.4082 396.258 11.1709 396.123C12.142 395.952 13.2463 395.758 15.5665 395.758C15.6158 395.758 15.6666 395.758 15.7178 395.757C16.2165 395.752 16.7983 395.746 17.3292 396.201C17.9148 396.702 18.1071 397.202 18.0342 397.971C18.0283 398.034 18.023 398.098 18.0176 398.162C17.9677 398.762 17.9153 399.388 17.3292 399.388C14.1525 399.388 12.1109 399.513 10.5713 399.608C9.07807 399.699 8.05611 399.762 6.92779 399.654C6.46483 399.609 5.99295 399.596 5.53228 399.583C4.33928 399.551 3.22092 399.52 2.52154 398.945C1.33982 397.972 1.28716 396.761 1.28716 395.227C1.28717 393.191 1.37577 392.306 2.169 392.306ZM74.7969 374.602C75.4938 374.602 75.7666 375.318 75.7667 376.018C75.7667 376.833 75.0158 377.409 74.4688 377.827C74.3626 377.909 74.2636 377.984 74.1797 378.054C73.6509 378.497 72.5933 378.585 70.6543 378.585C70.1463 378.585 69.5092 378.694 69.5088 379.204C69.5088 380.001 71.4531 380.887 72.9463 380.887C74.8852 380.887 76.011 380.801 77.794 380.09C78.1578 379.945 78.4228 379.794 78.6895 379.642C78.9471 379.495 79.2066 379.348 79.5567 379.204C79.6338 379.173 79.732 379.122 79.8467 379.063C80.2566 378.851 80.8769 378.532 81.4952 378.585C82.2162 378.647 82.6411 378.851 83.17 379.382C83.535 379.749 83.6543 380.536 83.7432 381.125C83.8061 381.542 83.8544 381.861 83.9639 381.861C84.0654 381.86 84.1931 381.665 84.3663 381.399C84.6445 380.972 85.0407 380.363 85.6377 380.09C85.8556 379.991 86.025 379.897 86.1895 379.806C86.3954 379.692 86.5945 379.583 86.8721 379.47C87.9176 379.046 88.723 378.851 89.6924 378.851C90.7527 378.851 91.4545 379.445 91.8965 380.444C92.6017 382.037 92.8655 382.746 92.7774 384.428C92.7736 384.501 92.7712 384.572 92.7686 384.641C92.753 385.052 92.7389 385.404 92.5127 385.667C92.2857 385.931 91.9824 385.92 91.6729 385.91C91.3806 385.899 91.083 385.889 90.8389 386.11C90.4313 386.478 89.9256 386.695 89.3448 386.945C88.6698 387.234 87.8929 387.568 87.0489 388.234C86.6888 388.518 86.4109 388.832 86.1436 389.135C85.4951 389.87 84.9071 390.535 83.3467 390.535C81.8202 390.535 81.3815 390.062 80.9376 389.582C80.6895 389.314 80.4394 389.044 79.9971 388.854L79.918 388.82C79.1538 388.49 78.8168 388.345 77.794 388.234C77.2497 388.175 76.8398 388.239 76.4112 388.306C76.0835 388.357 75.7438 388.41 75.3252 388.411C74.8066 388.413 74.3756 388.365 73.9581 388.319C73.5703 388.276 73.1939 388.234 72.7696 388.234C72.0608 388.234 71.1827 388.408 71.1827 389.119C71.1831 389.562 72.424 390.535 73.4747 390.535C74.1201 390.535 74.6506 390.325 75.1934 390.109C75.7624 389.882 76.3455 389.651 77.0889 389.651C78.7638 389.651 82.2891 391.598 82.2891 391.598C82.3094 391.607 83.4497 392.129 84.2276 392.129C85.7394 392.129 86.9474 391.138 88.3389 389.997C88.4077 389.941 88.4772 389.885 88.5469 389.827C88.7338 389.675 88.8555 389.523 88.9727 389.377C89.1516 389.155 89.3197 388.945 89.6924 388.765C90.0333 388.6 90.3987 388.596 90.7735 388.592C90.8535 388.591 90.9339 388.591 91.0147 388.588C91.8525 388.563 92.4097 388.747 92.8663 389.207C93.3227 389.667 93.6979 390.076 93.5713 390.712C93.4266 391.439 93.3558 392.137 93.2803 392.884C93.172 393.956 93.0531 395.131 92.6895 396.644L92.6749 396.706C92.4893 397.48 92.3809 397.927 91.8077 398.502C91.1293 399.183 90.4753 399.476 89.5167 399.476C87.5713 399.476 86.0714 399.215 84.4629 398.935C83.5937 398.784 82.6923 398.627 81.6719 398.502C81.1791 398.442 81.0127 397.936 80.9668 397.44C80.9054 396.772 81.2883 396.187 81.9366 396.024C82.2893 395.935 83.0236 395.888 83.6993 396.024C85.9027 396.466 88.1059 396.643 89.6924 396.201C90.045 396.102 90.3975 394.798 90.3975 394.43C90.3971 393.81 89.5165 392.572 88.8116 392.572C88.3834 392.572 87.9791 392.956 87.5186 393.395C87.126 393.769 86.6921 394.182 86.167 394.43C84.8823 395.036 84.1012 395.381 82.6417 395.316C81.0943 395.246 80.1845 394.687 79.3116 394.15C79.0715 394.002 78.8341 393.856 78.587 393.722C78.4519 393.649 78.3301 393.575 78.2149 393.505C77.8551 393.286 77.556 393.103 77.0889 393.103C76.8845 393.103 76.7472 393.169 76.5967 393.243C76.5068 393.286 76.4118 393.333 76.295 393.369C76.0302 393.449 75.8053 393.527 75.5987 393.598C74.8633 393.851 74.3606 394.023 73.1221 393.988C72.9524 393.983 72.7826 393.986 72.6182 393.99C72.1418 393.999 71.7094 394.008 71.4473 393.811C71.3945 393.771 71.3419 393.731 71.2891 393.692C70.891 393.394 70.4907 393.094 70.0372 392.66C69.8796 392.51 69.7237 392.384 69.5762 392.266C69.195 391.96 68.8695 391.699 68.7149 391.156L68.7012 391.108C68.5253 390.49 68.2745 389.608 68.2745 388.588C68.2745 387.737 68.4189 387.273 68.5655 386.803C68.6171 386.637 68.669 386.471 68.7149 386.286C68.8912 385.578 69.5088 385.461 69.8614 385.402C70.3902 385.313 71.2551 385.224 72.1524 385.224C72.967 385.224 73.6737 385.329 74.3995 385.437C75.1657 385.55 75.9535 385.667 76.9122 385.667C77.3643 385.667 77.7933 385.574 78.211 385.483C78.6073 385.397 78.9938 385.313 79.3799 385.313C80.173 385.313 80.808 385.395 81.4952 385.932C81.744 386.126 81.9452 386.346 82.1319 386.549C82.5403 386.994 82.883 387.367 83.5225 387.26C84.0407 387.173 84.3175 386.944 84.669 386.552C85.3099 385.837 85.7783 385.469 86.3995 384.98C86.5469 384.864 86.7031 384.741 86.8721 384.605C87.1996 384.342 87.7361 384.134 88.2491 383.936C89.0341 383.633 89.764 383.351 89.6045 382.923C89.3721 382.301 88.7684 382.136 88.1065 382.126C87.5056 382.118 86.9608 382.303 86.6963 382.745C86.4738 383.118 86.2293 383.245 85.9043 383.414C85.7485 383.496 85.574 383.587 85.3741 383.719C85.2567 383.797 85.1293 383.911 84.9903 384.035C84.6072 384.376 84.1331 384.797 83.5225 384.782C82.8762 384.765 82.4817 384.533 82.0245 384.074C81.8408 383.889 81.7341 383.474 81.627 383.059C81.4771 382.478 81.3266 381.897 80.9668 381.949C80.6889 381.988 80.5598 382.171 80.419 382.37C80.3276 382.5 80.2308 382.636 80.085 382.745C79.4841 383.197 78.8192 383.387 78.254 383.548C78.156 383.576 78.0609 383.604 77.9698 383.631C76.5789 384.05 75.3671 384.231 73.9151 384.25C72.0489 384.275 70.214 384.25 69.1563 383.808C68.2132 383.413 67.9455 382.778 67.7452 381.772C67.5689 380.887 67.5553 379.795 67.6573 378.762C67.661 378.724 67.6647 378.688 67.668 378.654C67.7177 378.145 67.7358 377.96 67.9219 377.434C68.149 376.792 68.3146 376.403 68.8038 375.93C69.2472 375.502 69.4316 375.436 69.9913 375.238L70.0372 375.221C70.5396 375.043 70.9349 375.044 71.4542 375.044C71.4808 375.044 71.5078 375.044 71.5352 375.044C71.7929 375.044 72.0125 375.068 72.2286 375.091C72.4823 375.118 72.7319 375.146 73.0342 375.133C73.4054 375.118 73.6957 374.98 73.9727 374.849C74.2395 374.723 74.4943 374.602 74.7969 374.602ZM40.7745 373.363C41.4794 373.363 42.0965 373.805 42.0967 374.69C42.0967 375.074 41.9847 375.209 41.835 375.389C41.6395 375.625 41.3786 375.939 41.2149 376.992C40.6123 380.865 40.5452 383.869 40.4786 386.853C40.4477 388.234 40.4177 389.61 40.334 391.067C40.2499 392.532 39.1492 394.187 37.6895 394.253C36.5145 394.307 35.5661 394.198 34.7461 394.104C34.213 394.043 33.7338 393.988 33.2823 393.988C33.2573 393.988 33.231 393.988 33.2042 393.988C32.2867 393.985 30.3687 393.98 30.1973 396.732C30.1761 397.073 30.253 397.438 30.3243 397.778C30.4622 398.435 30.5799 399.001 29.9327 399.122C28.5228 399.387 28.2589 397.378 28.2588 395.847C28.2588 394.608 28.2582 393.102 28.5225 392.572C28.5958 392.425 28.6636 392.277 28.7295 392.132C29.0659 391.396 29.3636 390.743 30.1973 390.712C31.2381 390.674 32.3467 390.712 33.4043 390.748C34.7651 390.795 36.0422 390.838 36.9844 390.712C37.8291 390.599 38.5147 390.061 38.5713 389.207C38.7118 387.092 38.7822 384.849 38.8497 382.704C38.9515 379.466 39.0462 376.449 39.3643 374.425C39.475 373.721 40.0649 373.363 40.7745 373.363ZM147.673 316.825C147.674 315.044 149.827 314.152 151.087 315.41L205.167 369.474C205.542 369.849 205.753 370.358 205.753 370.888V397.091C205.753 398.196 204.857 399.091 203.753 399.091H149.673C148.569 399.091 147.673 398.196 147.673 397.091V316.825ZM114.901 377.877C115.597 377.877 116.261 377.932 116.84 378.32C117.897 379.028 118.162 379.353 118.603 380.444C118.813 380.965 118.8 381.768 118.785 382.584C118.78 382.876 118.774 383.17 118.779 383.453C118.803 384.771 118.779 385.556 118.603 386.552C118.542 386.897 118.514 387.191 118.488 387.463C118.419 388.196 118.364 388.771 117.722 389.739C117.278 390.408 116.663 390.624 115.87 390.624C115.478 390.624 115.126 390.395 115.077 390.004C115.032 389.638 115.104 388.963 115.185 388.213C115.26 387.514 115.342 386.75 115.342 386.11C115.342 385.848 115.353 385.65 115.362 385.477C115.391 384.955 115.408 384.65 115.077 383.453C114.919 382.881 114.46 382.569 113.844 382.569C113.211 382.569 112.857 382.814 112.345 383.188C111.696 383.662 111.28 384.336 110.841 385.047C110.624 385.398 110.401 385.759 110.142 386.11C108.97 387.694 107.982 389.903 106.99 392.122C106.043 394.242 105.091 396.371 103.972 397.971C103.705 398.353 103.499 398.399 103.135 398.481C102.907 398.532 102.616 398.598 102.209 398.768C101.647 399.003 101.152 398.229 101.151 397.618C101.151 397.138 101.339 396.809 101.552 396.435C101.653 396.256 101.761 396.067 101.856 395.847C102.249 394.943 102.548 394.376 102.943 393.628C103.044 393.438 103.151 393.236 103.267 393.014C103.667 392.246 104.003 391.663 104.341 391.077C104.666 390.513 104.994 389.946 105.382 389.207C105.731 388.543 105.988 388.002 106.239 387.471C106.531 386.856 106.816 386.254 107.232 385.49L107.25 385.459C107.735 384.568 108.012 384.057 108.555 383.188C108.678 382.991 108.79 382.81 108.895 382.638C109.34 381.911 109.674 381.365 110.317 380.621C111.278 379.513 112.48 378.37 113.139 378.143C113.797 377.916 114.205 377.877 114.901 377.877ZM43.5069 375.664C44.213 375.664 44.8289 375.751 44.8292 376.46C44.8292 376.906 44.9275 377.38 44.8292 377.953C44.6931 378.747 44.5998 379.427 44.4766 381.325C44.4246 382.125 44.2877 382.983 44.2432 383.631C44.0614 386.282 44.2432 387.833 44.2432 390.748C44.2432 391.051 44.2495 391.848 44.2432 392.132C44.2217 393.106 44.2391 394.603 44.2422 395.732C44.2428 395.926 44.2771 396.118 44.2969 396.311C44.3286 396.619 44.2999 396.953 44.2999 397.086C44.2998 397.375 44.2432 397.813 44.2432 398.237C44.2432 399.299 42.1847 398.502 37.6895 398.502C36.0149 398.502 33.5472 398.502 33.5469 397.352C33.5469 396.861 33.8508 396.732 34.3399 396.732C34.507 396.732 34.6022 396.763 34.6827 396.804L34.8584 396.901C34.966 396.953 35.1129 396.997 35.3975 396.997C36.1538 396.997 36.5497 396.76 36.9668 396.509C37.4248 396.234 37.9091 395.943 38.9239 395.935C39.538 395.93 39.7581 396.008 40.2452 396.113C40.5605 396.18 41.0415 396.289 41.2149 396.289C42.0082 396.289 41.8405 396.458 42.3614 395.935C42.4298 395.865 42.5138 395.512 42.5684 395.251C42.6085 395.06 42.6137 394.864 42.5938 394.669C42.5139 393.888 42.3135 391.65 42.3614 389.296C42.3908 387.85 42.3614 386.552 42.3614 385.313C42.3614 382.834 42.1263 380.71 42.3614 377.523C42.4312 376.576 42.7137 375.664 43.5069 375.664ZM2.41021 378.45C2.70393 378.184 3.16215 378.344 3.34575 378.695C3.7859 379.537 3.84282 381.074 3.84282 381.861C3.84289 383.1 4.46079 385.755 5.25396 387.437C5.83465 388.668 6.36525 389.473 7.72173 389.473C8.48132 389.473 9.75603 388.986 10.9834 388.516C11.6075 388.277 12.2194 388.043 12.7452 387.88C12.9876 387.805 13.2627 387.714 13.5586 387.617C15.0057 387.14 16.9661 386.494 18.21 386.641C18.5932 386.686 18.9934 386.837 19.3487 386.972C19.7726 387.133 20.1332 387.269 20.3252 387.172C20.743 386.96 20.841 386.417 20.9366 385.885C20.9845 385.619 21.0321 385.355 21.1192 385.136C21.2955 384.693 21.746 383.903 22.9698 383.011C23.9162 382.322 28.2508 382.37 29.8467 382.388C30.0339 382.39 30.1833 382.392 30.2852 382.392C31.0154 382.392 31.3438 383.1 31.3438 383.631C31.3435 384.193 30.3784 384.177 29.7286 384.165C29.6435 384.164 29.5636 384.162 29.4922 384.162C28.8186 384.162 28.27 384.089 27.7481 384.02C27.2745 383.957 26.8225 383.897 26.3194 383.897C25.533 383.897 24.8457 384.268 24.3799 384.694C23.4106 385.579 22.7159 386.558 22.0889 388.146C21.5544 389.499 21.5405 390.436 21.5215 391.777C21.5191 391.946 21.5164 392.122 21.5127 392.306C21.4901 393.449 21.637 394.333 21.7588 395.066C21.841 395.56 21.9122 395.986 21.9122 396.378C21.9121 397.233 21.7055 398.68 20.8545 398.68C20.0098 398.68 19.7377 398.152 19.3428 397.385C19.2655 397.235 19.1838 397.076 19.0918 396.91C18.5438 395.919 18.5745 394.927 18.5997 394.128C18.615 393.642 18.6285 393.227 18.5079 392.926C18.2308 392.235 17.806 391.686 17.0645 391.686C16.3005 391.686 15.2696 392.03 14.1661 392.397C13.6146 392.58 13.045 392.77 12.4815 392.926C11.8942 393.089 11.419 393.256 10.9864 393.41C10.079 393.731 9.35578 393.988 8.16216 393.988C7.37576 393.988 6.83679 393.862 6.22271 393.369C4.90066 392.306 3.89602 390.899 2.96197 388.765C2.18697 386.995 1.63972 385.136 1.6397 381.861C1.6397 380.272 1.85494 378.952 2.41021 378.45ZM96.5674 390.182C97.1832 390.182 97.2725 390.98 97.2725 391.598C97.2725 393.988 97.2726 394.431 97.6251 396.201C97.8184 397.171 97.5525 398.536 96.5674 398.502C95.6995 398.472 95.3341 397.516 95.334 396.644C95.334 395.316 95.3338 394.43 95.0694 391.686C94.9898 390.859 95.3339 390.182 96.5674 390.182ZM51.3516 386.729C51.6586 386.733 51.8217 386.911 52.0157 387.122C52.0567 387.167 52.0991 387.214 52.1446 387.26C52.5563 387.681 52.6004 388.126 52.6504 388.633C52.6737 388.869 52.6983 389.118 52.7618 389.385C52.955 390.196 52.9077 390.924 52.8624 391.619C52.798 392.605 52.7381 393.524 53.379 394.519C53.45 394.629 53.5111 394.735 53.5694 394.835C53.7722 395.185 53.9379 395.471 54.3477 395.67C54.6059 395.796 54.8058 395.808 55.0489 395.825C55.1319 395.83 55.2201 395.836 55.3174 395.847C55.4534 395.862 55.5862 395.878 55.7159 395.894C56.8365 396.029 57.7372 396.138 58.667 395.405C59.0804 395.079 59.2597 394.784 59.5069 394.377C59.5478 394.31 59.5907 394.24 59.6368 394.165C59.954 393.655 60.0838 393.221 60.2208 392.763C60.3204 392.43 60.4241 392.084 60.6065 391.686C60.7192 391.44 60.8001 391.213 60.877 390.998C61.0547 390.503 61.2083 390.078 61.6641 389.651C62.1262 389.218 62.6183 388.942 63.2501 388.942C64.3077 388.942 64.7168 389.131 65.542 389.739C66.7991 390.664 67.5784 391.59 68.4854 392.668C68.5323 392.724 68.5794 392.781 68.627 392.837C68.7229 392.951 68.8096 393.058 68.8917 393.159C69.24 393.587 69.5056 393.913 70.0372 394.253C70.9469 394.835 71.7156 394.844 72.6709 394.854C72.9237 394.857 73.1897 394.86 73.4747 394.873C74.1156 394.904 74.6507 394.844 75.169 394.785C75.5697 394.74 75.9611 394.696 76.3838 394.696C77.3097 394.696 78.0574 395.404 78.0577 396.201C78.0577 397.011 77.3455 397.435 76.5596 397.618C74.6969 398.049 73.7659 398.071 72.0626 398.112C71.6705 398.121 71.237 398.132 70.7422 398.149C69.8317 398.179 69.5086 398.062 68.8038 397.794C68.1847 397.559 67.7444 397.311 67.2168 396.91C66.6467 396.476 66.3032 395.993 65.9405 395.485C65.7167 395.171 65.4853 394.848 65.1895 394.519C65.0184 394.329 64.8479 394.124 64.6788 393.921C64.1052 393.235 63.5507 392.572 63.0743 392.572C62.4028 392.572 62.3413 393.269 62.2784 393.992C62.2574 394.232 62.2364 394.475 62.1924 394.696C61.999 395.667 61.5023 396.429 60.6944 396.997C59.9562 397.516 59.4757 397.643 58.709 397.843C58.5604 397.882 58.4008 397.923 58.2266 397.971C56.7895 398.367 55.9347 398.414 54.5245 398.414C54.0036 398.414 53.6965 398.402 53.2022 398.237C52.0704 397.858 51.0037 396.5 50.8223 395.316C50.7528 394.862 50.6555 394.558 50.5635 394.271C50.4225 393.83 50.294 393.425 50.294 392.572V389.385C50.294 389.322 50.2913 389.25 50.2881 389.17C50.2738 388.806 50.2527 388.284 50.4698 387.702C50.6494 387.221 50.8401 386.723 51.3516 386.729ZM63.6915 395.05C64.1323 395.051 65.1736 395.874 65.1895 396.732C65.2052 397.59 64.5727 398.414 63.6915 398.414C62.81 398.414 61.8206 397.734 61.8399 396.732C61.8554 395.935 62.722 395.05 63.6915 395.05ZM35.8389 383.366C36.4556 383.366 36.7198 384.909 36.7198 386.021C36.7198 387.614 36.5437 389.296 35.1338 389.296C34.4733 389.296 34.028 389.209 33.5792 389.121C33.1217 389.032 32.6594 388.942 31.96 388.942C31.8131 388.942 31.6748 388.942 31.544 388.942C30.3414 388.939 29.7399 388.937 28.2588 389.207C27.2893 389.384 26.9359 389.473 26.4952 390.004C26.1162 390.461 26.1312 391.566 26.1407 392.289C26.142 392.392 26.1426 392.487 26.1426 392.572C26.1426 393.575 26.3442 394.831 26.5186 395.919C26.575 396.271 26.6288 396.607 26.6719 396.91C26.7857 397.711 26.0681 398.325 25.2618 398.326C24.4554 398.326 24.0275 397.719 24.0274 396.91C24.0274 394.859 24.1565 393.131 24.2657 391.662C24.378 390.151 24.4693 388.913 24.3799 387.88C24.2807 386.734 26.3732 385.313 28.17 385.313C28.3386 385.313 28.585 385.319 28.8887 385.327C30.1726 385.361 32.4869 385.422 34.3399 385.136C34.6455 385.089 34.7529 384.75 34.8692 384.381C35.0213 383.899 35.1898 383.366 35.8389 383.366ZM47.5616 384.381C48.4416 384.269 48.9428 385.132 48.8838 386.021C48.5313 391.332 48.5313 391.686 48.8838 395.935C48.9465 396.69 48.3152 397.394 47.5616 397.352C46.7985 397.309 46.565 396.511 46.4151 395.758C46.1789 394.572 46.2891 393.688 46.5088 391.917C46.5351 391.706 46.5629 391.482 46.5918 391.244C46.7568 389.885 46.6379 388.923 46.5313 388.059C46.4714 387.574 46.4151 387.118 46.4151 386.641C46.4151 385.575 46.5039 384.517 47.5616 384.381ZM126.007 380.267C126.847 380.267 127.361 380.519 128.035 380.851C128.174 380.919 128.319 380.991 128.475 381.064C130.37 381.952 131.464 382.958 132.766 384.155C133.28 384.628 133.827 385.131 134.469 385.667C134.568 385.751 134.668 385.834 134.769 385.918C136.16 387.082 137.594 388.281 138.17 388.942C138.638 389.479 138.64 389.89 138.611 390.535C138.608 390.621 138.606 390.711 138.604 390.803C138.59 391.425 138.573 392.129 137.994 392.129C137.349 392.129 136.082 390.992 134.682 389.737C133.977 389.105 133.239 388.443 132.529 387.88C131.792 387.295 131.276 386.744 130.765 386.198C130.115 385.504 129.471 384.816 128.387 384.074C128.321 384.028 128.257 383.984 128.195 383.941C127.649 383.561 127.242 383.278 126.535 383.277C125.935 383.276 125.578 383.482 125.102 383.758C125.025 383.802 124.946 383.85 124.861 383.897C123.744 384.525 123.294 385.2 122.585 386.263L122.569 386.286C122.217 386.816 122.038 387.253 121.846 387.723C121.725 388.018 121.601 388.326 121.424 388.677C121.247 389.028 121.103 389.329 120.97 389.612C120.688 390.206 120.447 390.717 120.014 391.421C119.014 393.045 118.25 394.076 116.752 395.05C115.747 395.703 115.041 396.024 113.844 396.024C112.874 396.024 110.758 395.227 110.317 394.253C109.926 393.389 109.866 392.819 109.877 391.864C109.884 391.212 109.967 390.826 110.09 390.247C110.106 390.17 110.124 390.089 110.142 390.004C110.494 388.323 111.64 386.729 112.345 386.11C112.397 386.063 112.448 386.017 112.497 385.972C112.784 385.711 113.026 385.49 113.402 385.49C113.795 385.49 114.107 385.716 114.107 386.11C114.107 387.175 113.938 387.443 113.461 388.193C113.343 388.377 113.207 388.591 113.05 388.854C112.405 389.933 112.169 390.712 112.169 391.686C112.169 392.786 113.027 393.9 114.196 393.9C115.078 393.899 115.901 393.072 116.752 392.217C117.48 391.486 117.819 390.944 118.234 390.278C118.372 390.057 118.519 389.822 118.691 389.562C119.376 388.528 119.705 387.683 120.051 386.797C120.304 386.149 120.566 385.478 120.982 384.694C121.134 384.409 121.269 384.12 121.404 383.834C121.898 382.788 122.379 381.772 123.539 381.064C124.404 380.536 124.995 380.267 126.007 380.267ZM101.327 391.332C102.041 391.388 102.385 392.118 102.385 392.837C102.385 393.811 101.944 395.67 100.534 395.581C99.8429 395.538 99.8292 394.507 99.8292 393.811C99.8292 392.483 100.181 391.244 101.327 391.332ZM131.295 389.739C132.529 389.739 134.151 390.801 133.852 392.217C133.709 392.893 133.482 393.634 132.794 393.634C131.913 393.634 129.973 391.421 130.237 390.535C130.386 390.039 130.779 389.739 131.295 389.739ZM129.356 372.3C131.382 372.208 133.426 372.63 135.879 373.452C136.478 373.652 136.968 373.844 137.417 374.02C138.355 374.387 139.123 374.688 140.374 374.868C140.933 374.948 141.167 375.451 141.167 376.018C141.167 376.992 141.167 377.789 140.638 378.585C140.33 379.049 139.94 379.439 139.404 379.293C137.843 378.87 137.171 378.446 136.236 377.857C135.219 377.216 133.891 376.379 130.767 375.133C130.465 375.013 130.062 375.249 130.062 375.576C130.062 376.018 130.737 376.729 131.384 377.257C132.794 378.408 134.204 379.116 135.967 379.736C136.35 379.87 136.696 379.97 137.019 380.063C137.933 380.326 138.658 380.535 139.492 381.329C141.092 382.851 141.177 383.525 141.342 384.825C141.368 385.029 141.396 385.249 141.432 385.49C141.696 387.26 141.696 388.411 141.696 389.207C141.696 390.532 141.519 391.952 141.255 392.483C141.003 392.99 140.55 393.368 140.022 393.369C139.558 393.369 139.413 393.026 139.316 392.572C139.207 392.059 139.158 391.049 139.106 389.996C139.034 388.506 138.958 386.929 138.699 386.552C138.013 385.549 135.835 384.288 134.051 383.254C133.315 382.828 132.647 382.441 132.177 382.126C130.061 380.71 129.004 379.735 127.946 377.434C127.491 376.443 127.417 375.575 127.417 374.69C127.417 373.274 127.418 372.389 129.356 372.3ZM53.1143 377.877C53.7548 377.877 54.1697 378.173 54.6319 378.502C54.9328 378.717 55.254 378.946 55.67 379.117C57.0148 379.668 57.8316 380.001 59.2842 380.001C60.5787 380.001 61.6068 379.685 62.584 379.384C63.4697 379.111 64.3137 378.851 65.2774 378.851C66.3007 378.851 66.952 379.682 66.9522 380.709C66.9522 380.857 66.9552 381.04 66.9581 381.252C66.9723 382.312 66.9967 384.119 66.7764 386.11C66.6362 387.377 65.4012 388.234 64.1319 388.234C63.2638 388.234 62.7378 387.804 62.2168 387.379C61.6801 386.941 61.1483 386.507 60.254 386.552C59.6992 386.58 59.4338 386.95 59.1192 387.388C59.0867 387.433 59.0535 387.479 59.0196 387.526C58.6281 388.062 58.3087 388.483 57.9971 388.893C57.5371 389.498 57.0943 390.081 56.4639 390.978C56.2249 391.318 56.0229 391.509 55.4942 391.509C54.8475 391.509 54.2953 391.055 53.9073 390.535C53.1611 389.536 53.0695 389.114 52.8126 387.935C52.7964 387.861 52.7795 387.783 52.7618 387.702C52.5168 386.587 52.5012 385.921 52.585 384.782C52.6121 384.413 52.5842 383.985 52.5557 383.561C52.4803 382.436 52.4065 381.335 53.379 381.418C54.2517 381.493 54.6233 382.201 54.9649 383.011C55.1859 383.535 55.1716 383.922 55.1524 384.427C55.1482 384.538 55.1438 384.656 55.1417 384.782C55.1372 385.04 55.0883 385.248 55.0411 385.449C54.9801 385.708 54.9214 385.956 54.9649 386.286L54.9659 386.29C55.0544 386.963 55.122 387.482 55.67 387.88C56.2745 388.32 56.375 387.604 56.5001 386.712C56.5969 386.022 56.7085 385.226 57.0801 384.782C57.1244 384.729 57.1683 384.677 57.211 384.625C57.8859 383.814 58.3901 383.207 59.46 383.011C60.2263 382.871 60.7234 383.042 61.4102 383.279C61.4917 383.307 61.5765 383.336 61.6641 383.366C62.0475 383.495 62.3445 383.812 62.6202 384.107C63.0166 384.53 63.3688 384.906 63.8672 384.605C64.3429 384.318 64.6774 383.913 64.5723 383.366C64.4933 382.954 64.1752 382.818 63.8155 382.663C63.6882 382.609 63.5558 382.552 63.4268 382.48C62.5344 381.982 61.75 382.099 60.9043 382.226C60.3235 382.313 59.7136 382.404 59.0196 382.303C57.4802 382.079 56.6201 381.814 55.1641 381.364L55.0528 381.329C54.7618 381.24 54.4951 381.189 54.2432 381.142C53.7118 381.042 53.2467 380.956 52.7618 380.533C52.7105 380.488 52.6596 380.445 52.6104 380.403C52.2306 380.079 51.9237 379.818 51.8799 379.293C51.8145 378.508 52.3294 377.877 53.1143 377.877ZM117.986 356.809C118.654 356.818 118.977 357.829 118.867 358.491C118.779 359.022 118.779 359.111 118.867 359.819C119.036 361.178 118.986 361.892 118.905 363.026C118.862 363.637 118.81 364.372 118.779 365.396C118.746 366.512 118.486 367.24 117.722 368.051C117.076 368.736 116.506 368.93 115.606 369.202C114.687 369.479 113.695 369.491 112.794 369.502C111.968 369.512 111.218 369.521 110.67 369.733L110.616 369.754C109.999 369.992 109.838 370.055 109.437 370.619C109.103 371.088 108.992 371.809 108.865 372.633C108.825 372.897 108.783 373.172 108.731 373.452C108.424 375.12 108.418 376.235 108.41 377.522C108.405 378.419 108.399 379.4 108.29 380.709C108.196 381.846 108.04 382.552 107.674 383.631C107.336 384.628 107.136 385.195 106.616 386.11C106.199 386.842 105.923 387.234 105.382 387.88C105.277 388.006 105.177 388.127 105.081 388.244C104.392 389.081 103.894 389.686 102.825 390.182C102.052 390.54 101.151 390.624 100.534 390.624C99.7976 390.624 99.212 390.302 99.212 389.562C99.212 388.411 100.181 387.879 101.327 387.437C101.687 387.298 102.007 387.22 102.31 387.146C102.81 387.023 103.267 386.91 103.795 386.552C104.959 385.763 105.808 385.038 105.91 383.631C106.175 380.002 106.44 376.372 106.969 367.609C107.022 366.725 107.876 366.407 108.731 366.193C109.168 366.083 109.842 366.041 110.438 366.004C110.803 365.982 111.14 365.961 111.375 365.927C112.128 365.819 113.067 365.904 113.883 365.978C114.582 366.041 115.192 366.097 115.518 366.015C116.267 365.827 116.373 364.89 116.472 364.017C116.501 363.755 116.531 363.499 116.576 363.271C116.929 361.5 117.017 359.376 117.017 357.783C117.017 357.171 117.378 356.801 117.986 356.809ZM6.752 373.452C7.3647 373.452 7.30908 374.457 7.23931 375.707C7.17862 376.795 7.10718 378.069 7.45708 379.028C7.6756 379.626 7.95743 380.052 8.2354 380.472C8.53707 380.928 8.83485 381.378 9.044 382.037C9.34113 382.974 9.54218 383.8 9.48443 384.782C9.47171 384.998 9.47228 385.222 9.47271 385.443C9.47445 386.336 9.47553 387.172 8.60259 387.172C7.33255 387.172 6.49338 385.299 5.72075 383.574C5.63561 383.383 5.55185 383.195 5.46782 383.011C4.5878 381.086 4.46001 379.824 4.46001 377.788C4.46004 375.885 5.25363 373.452 6.752 373.452ZM9.48443 372.123C10.0484 372.099 10.6299 373.452 10.6299 373.452C10.6368 373.468 10.8946 374.089 10.8946 375.399C10.8946 375.828 10.8566 376.23 10.8223 376.591C10.7764 377.075 10.7377 377.484 10.8067 377.788C11.0354 378.795 11.9439 379.778 12.5313 380.413C12.7577 380.658 12.9361 380.852 13.0098 380.975C13.4873 381.774 13.1861 384.25 13.0098 384.516C12.9131 384.662 12.8583 384.836 12.8067 385.001C12.7115 385.306 12.6267 385.578 12.3047 385.578C11.6264 385.578 11.2596 385.088 10.8458 384.535C10.7758 384.441 10.7043 384.345 10.6299 384.25C9.66058 383.011 9.33807 381.958 8.86724 380.356C8.32712 378.518 8.25007 376.461 8.25005 375.399C8.25005 375.347 8.25011 375.294 8.25005 375.241C8.24916 374.456 8.24834 373.422 8.42681 373.008C8.68938 372.399 8.82393 372.152 9.48443 372.123ZM114.549 356.898C115.166 356.898 115.606 357.234 115.606 357.871C115.606 358.059 115.612 358.285 115.619 358.531C115.644 359.442 115.677 360.632 115.43 361.235C115.312 361.522 115.207 361.804 115.105 362.079C114.672 363.243 114.286 364.285 113.139 365.13C112.45 365.638 111.184 365.579 109.924 365.52C108.927 365.473 107.933 365.427 107.232 365.661C106.625 365.865 106.305 366.129 105.91 366.635C105.395 367.295 105.395 367.918 105.396 368.665C105.396 368.89 105.396 369.127 105.382 369.379C105.369 369.609 105.357 369.827 105.345 370.036C105.193 372.734 105.117 374.083 105.117 382.214C105.117 383.217 104.382 383.736 103.442 384.074C102.209 384.516 100.799 384.516 100.094 384.339C99.565 384.206 99.1884 383.158 99.212 382.214C99.2363 381.241 99.5136 380.481 100.357 380.001C100.488 379.927 100.722 379.943 100.996 379.962C101.376 379.988 101.835 380.02 102.209 379.825C102.881 379.473 103.394 379.079 103.442 378.32C103.545 376.723 103.588 373.959 103.641 370.567C103.679 368.127 103.721 365.362 103.795 362.474C103.818 361.567 104.941 361.235 105.382 361.235C105.978 361.235 106.265 361.463 106.563 361.698C106.88 361.949 107.209 362.208 107.938 362.208C109.348 362.208 112.345 361.855 113.402 360.881C113.688 360.618 113.634 359.822 113.58 359.034C113.544 358.497 113.508 357.964 113.579 357.606C113.67 357.15 114.086 356.898 114.549 356.898ZM9.74907 368.671C11.3355 368.671 13.0982 369.379 14.6846 371.238C15.0399 371.654 15.0386 372.227 15.0372 372.883C15.0371 372.924 15.0372 372.966 15.0372 373.008C15.0372 373.676 14.9372 374.26 14.8438 374.806C14.7616 375.287 14.6846 375.74 14.6846 376.196C14.6847 377.241 14.905 377.993 15.6954 378.674C16.2953 379.191 16.8102 379.272 17.5928 379.382C18.2828 379.48 18.9286 379.101 19.6368 378.686C20.2854 378.305 20.9872 377.894 21.8243 377.788C24.6446 377.434 28.9629 377.257 29.4922 377.257C32.4349 377.257 33.1064 377.781 33.1065 379.028C33.1065 379.913 32.7536 380.897 32.1368 380.975C30.0913 381.232 28.2309 381.282 26.626 381.325C24.9116 381.371 23.4885 381.41 22.4415 381.684C21.7507 381.865 21.1338 382.08 20.5606 382.282C19.4898 382.657 18.5687 382.981 17.5928 382.923C17.5284 382.919 17.4588 382.915 17.3848 382.911C16.4472 382.861 14.8159 382.773 14.2442 382.037C13.694 381.329 13.4505 380.001 13.3624 378.496C13.3025 377.474 13.4691 376.898 13.6309 376.339C13.7626 375.885 13.8917 375.442 13.8917 374.779C13.8916 373.54 13.8227 372.72 13.1866 371.858C12.3706 370.752 11.3786 370.465 10.0127 370.353C8.69806 370.245 7.66031 370.631 6.48736 371.238C5.80229 371.592 5.16531 372.123 4.83208 372.477C4.788 372.524 4.7312 372.582 4.66704 372.647C4.36557 372.952 3.90222 373.419 3.84282 373.716C3.8086 373.888 3.8282 374.087 3.84868 374.302C3.85372 374.355 3.85888 374.409 3.86333 374.463C3.91226 375.063 3.30118 375.469 3.00103 374.948C2.81028 374.616 2.69732 374.168 2.69732 373.805C2.69732 373.185 2.83214 372.889 3.34282 372.3C4.72481 370.707 7.01675 368.671 9.74907 368.671ZM27.3936 372.3C27.9266 372.3 28.55 372.344 29.2872 372.397C30.355 372.473 31.6626 372.566 33.2823 372.566C33.8394 372.566 34.2723 372.716 34.7784 372.892C35.1529 373.022 35.5675 373.166 36.1026 373.274C36.9839 373.451 36.9844 375.17 36.9844 376.46C36.9844 377.082 36.9437 377.475 36.8946 377.953C36.8178 378.702 36.7198 379.662 36.7198 382.037C36.7198 382.391 36.2229 382.657 35.9268 382.658C35.6307 382.658 34.9111 382.509 34.8692 382.214C34.8355 381.976 34.984 381.738 35.1797 381.424C35.493 380.922 35.9268 380.226 35.9268 379.028C35.9268 377.769 35.8816 376.867 35.045 375.93C34.2846 375.079 33.3917 375.064 32.3731 375.046C31.9353 375.039 31.4739 375.03 30.9903 374.955C28.54 374.577 25.5066 374.645 24.6446 374.69C24.5576 374.694 24.474 374.699 24.3936 374.703C23.6773 374.739 23.1931 374.762 22.4415 374.955C21.604 375.17 21.153 375.438 20.4376 375.863C20.4009 375.884 20.3634 375.907 20.3252 375.93C20.0354 376.102 19.8258 376.272 19.6202 376.439C19.3886 376.627 19.1611 376.811 18.8272 376.992C18.8059 377.003 18.7849 377.015 18.7637 377.027C18.3261 377.264 17.9144 377.486 17.417 377.434C16.8556 377.375 16.4474 377.205 16.4473 376.638C16.4473 375.753 17.6559 374.932 18.8272 374.513C20.7161 373.837 21.5575 373.544 23.0079 373.037C23.2665 372.947 23.5448 372.85 23.8516 372.743C25.1213 372.299 25.9401 372.3 27.2471 372.3C27.2953 372.3 27.3441 372.3 27.3936 372.3ZM47.5616 376.992C48.0023 376.992 48.7264 378.079 48.7071 379.028C48.6883 379.948 48.0904 381.009 47.5616 380.975C47.0327 380.941 46.6088 379.911 46.5918 379.028C46.5744 378.115 46.8085 376.992 47.5616 376.992ZM114.901 371.061C116.137 371.061 116.992 371.122 117.986 371.858C118.739 372.415 119.33 373.15 119.898 373.856C120.595 374.72 121.255 375.54 122.129 375.93C122.375 376.04 122.506 375.968 122.683 375.871C122.851 375.779 123.061 375.664 123.451 375.664C124.332 375.665 124.509 376.372 124.509 376.992C124.509 377.765 124.185 378.496 123.627 379.028C123.01 379.615 122.714 379.885 121.864 379.913C121.23 379.934 120.538 379.83 120.014 379.47C118.913 378.714 118.535 378.034 118.131 377.305C117.92 376.925 117.701 376.531 117.369 376.107C117.335 376.063 117.301 376.02 117.269 375.978C116.742 375.3 116.337 374.779 115.342 374.779C114.372 374.779 113.227 375.664 112.522 376.284C112 376.742 111.199 377.346 110.67 377.346C109.782 377.346 109.26 376.815 109.26 375.576C109.26 374.796 109.361 374.329 109.7 373.628C110.317 372.355 111.463 371.592 112.433 371.327C113.402 371.061 113.844 371.061 114.901 371.061ZM103.295 355.916C103.477 355.92 103.672 355.924 103.884 355.924C106.616 355.924 110.317 356.101 111.375 356.543C112.169 356.876 112.605 357.273 112.609 358.137C112.615 359.214 111.742 360.173 110.67 360.173C110.243 360.173 109.893 360.066 109.538 359.956C109.161 359.84 108.777 359.722 108.29 359.73C107.869 359.737 107.572 359.802 107.242 359.874C107.054 359.916 106.854 359.959 106.616 359.995C106.169 360.063 105.775 360.064 105.402 360.065C104.744 360.066 104.15 360.066 103.442 360.439C103.349 360.488 103.257 360.534 103.169 360.578C102.625 360.853 102.191 361.072 101.944 361.678C101.493 362.786 101.498 365.067 101.505 368.311C101.51 370.77 101.517 373.784 101.327 377.257C101.289 377.956 101.054 378.674 100.357 378.674C99.3882 378.674 99.0352 377.856 99.0352 376.992C99.0352 369.202 99.2124 358.049 99.7413 357.429C100.422 356.631 101.063 356.173 101.327 356.101C102.092 355.892 102.616 355.902 103.295 355.916ZM63.0645 374.692C63.3229 374.691 63.5447 374.69 63.6915 374.69C64.5921 374.69 65.1371 375.293 65.1895 376.196C65.2488 377.221 64.3768 377.672 63.4268 378.054C62.5454 378.408 61.5758 378.496 60.6944 378.496C58.6671 378.496 54.5241 377.346 52.585 376.549C51.9766 376.299 51.5276 375.93 51.5274 375.399C51.5274 374.852 52.0409 374.69 52.585 374.69C53.1653 374.69 53.5803 374.781 53.9893 374.87C54.3877 374.958 54.7813 375.044 55.3174 375.044C56.0206 375.044 56.7743 374.969 57.5879 374.888C58.6099 374.786 59.7274 374.674 60.959 374.69C61.4684 374.696 62.3919 374.694 63.0645 374.692ZM89.4288 374.69C90.1083 374.69 90.3131 374.789 90.7852 375.018C90.8027 375.026 90.8207 375.035 90.8389 375.044C91.6719 375.447 92.5125 376.018 92.5127 376.726C92.5127 377.51 91.6985 377.71 90.9229 377.901C90.8353 377.922 90.7476 377.943 90.6622 377.965C89.957 378.148 88.723 378.142 88.2823 377.7C88.0908 377.507 88.0987 376.924 88.1045 376.484C88.1055 376.413 88.1065 376.345 88.1065 376.284C88.1066 375.474 88.6223 374.69 89.4288 374.69ZM86.96 360.439C87.3144 360.439 87.6056 360.527 87.8418 360.792C88.145 361.133 88.1306 361.504 88.1143 361.915C88.1105 362.011 88.1065 362.108 88.1065 362.208C88.1065 363.62 88.0603 364.617 88.0079 365.753C87.9819 366.315 87.9541 366.911 87.9297 367.609C87.8976 368.529 87.8869 369.311 87.877 370.049C87.8576 371.502 87.8404 372.782 87.6651 374.602C87.5729 375.558 87.0087 376.191 86.4317 376.726C85.8546 377.261 85.1978 377.653 84.669 377.7C82.6419 377.877 81.3195 377.877 79.4688 377.877C79.2587 377.877 79.0358 377.889 78.8165 377.9C78.1701 377.933 77.55 377.964 77.3526 377.7C77.0857 377.342 77.0867 377.032 77.0879 376.776C77.088 376.759 77.0889 376.742 77.0889 376.726C77.0891 375.968 77.6556 375.31 78.4102 375.31C78.7062 375.31 78.9779 375.351 79.2598 375.393C79.5654 375.439 79.8841 375.487 80.2618 375.487C80.4392 375.487 80.6075 375.49 80.7686 375.493C81.65 375.507 82.3214 375.519 83.17 375.044C83.8721 374.652 84.2944 374.342 84.669 373.628C84.9963 373.005 85.0215 372.563 85.0215 371.858C85.0215 369.878 84.9296 367.851 84.8516 366.117C84.7762 364.44 84.7136 363.035 84.7569 362.208C84.7813 361.746 84.9809 361.495 85.2852 361.147C85.783 360.577 86.167 360.439 86.96 360.439ZM120.454 369.202C121.627 369.202 122.058 369.396 122.703 369.687C123.125 369.877 123.638 370.108 124.509 370.353C125.302 370.576 126.624 371.858 126.624 373.008C126.624 374.159 125.915 374.336 125.037 374.336C124.251 374.336 123.62 373.96 123.016 373.6C122.604 373.355 122.205 373.116 121.776 373.008C120.774 372.756 120.102 372.389 119.397 371.769C119.001 371.421 118.792 371.057 118.779 370.53C118.76 369.693 119.621 369.202 120.454 369.202ZM86.1856 356.177C87.9921 356.115 89.2264 356.072 90.9268 356.898C91.0172 356.942 91.1094 356.986 91.2022 357.03C91.8683 357.345 92.5569 357.671 92.6895 358.137C92.8113 358.565 92.8255 359.179 92.8389 359.769C92.8449 360.032 92.8509 360.291 92.8663 360.527C92.9531 361.859 92.8591 363.053 92.7774 364.097C92.7386 364.593 92.7025 365.056 92.6895 365.484C92.661 366.426 92.662 367.118 92.6631 367.728C92.6661 369.294 92.6678 370.315 92.1602 373.628C92.1015 374.01 91.6639 374.059 91.2793 374.071C90.7354 374.087 90.1338 373.82 90.1338 373.274C90.1338 371.764 90.0716 370.318 90.0059 368.786C89.9522 367.534 89.8959 366.224 89.8692 364.776C89.859 364.224 89.8879 363.696 89.9151 363.203C89.9714 362.183 90.0192 361.313 89.6924 360.703C89.632 360.591 89.5733 360.477 89.5157 360.365C89.1112 359.576 88.7362 358.845 87.8418 358.845C86.5197 358.845 84.7209 359.599 83.6993 361.147C83.3487 361.678 83.2699 364.106 83.2588 366.015C83.255 366.669 83.3007 367.179 83.3467 367.689C83.3933 368.204 83.4399 368.718 83.4346 369.379C83.4339 369.467 83.4332 369.551 83.4327 369.634C83.4258 370.633 83.4216 371.319 83.2588 372.3C83.0892 373.322 82.6414 374.247 80.6143 374.247C78.6932 374.247 78.2988 373.429 77.7725 372.338C77.6711 372.128 77.5645 371.908 77.4415 371.681C76.9233 370.727 76.917 367.992 76.9122 365.629V365.484C76.9101 364.51 77.0133 363.669 77.1104 362.879C77.2137 362.04 77.3101 361.26 77.2647 360.439C77.2353 359.908 76.2954 358.686 74.709 358.579C73.4841 358.497 72.1531 358.495 70.2393 358.492C70.0876 358.491 69.9318 358.491 69.7725 358.491C69.0802 358.489 68.4721 358.479 67.9014 358.468C66.4293 358.441 65.2056 358.419 63.4268 358.579C62.6158 358.653 61.9685 358.796 61.3418 358.934C60.5226 359.115 59.7381 359.287 58.667 359.287C57.077 359.287 56.4421 359.168 55.9112 359.068C55.5298 358.996 55.2019 358.934 54.6124 358.934C54.22 358.934 53.7316 359.199 53.7315 359.553C53.7315 359.832 54.0707 359.892 54.3477 359.908C55.9342 359.996 57.8742 360.173 59.5489 360.35C59.5716 360.352 59.5956 360.355 59.6202 360.358C60.5574 360.456 62.7808 360.69 63.4268 361.5C63.7794 361.943 63.8643 362.596 63.8672 363.36C63.8677 363.49 63.8699 363.625 63.8721 363.763C63.8833 364.47 63.8957 365.23 63.6915 365.573C63.6655 365.616 63.6409 365.658 63.6172 365.7C63.4001 366.076 63.2386 366.357 62.3692 366.635C60.7828 367.143 59.4671 367.235 58.2266 367.232C57.5406 367.23 56.9121 367.156 56.3536 367.09C55.9022 367.037 55.4962 366.989 55.1417 366.989C54.7975 366.989 54.1722 367.174 54.1719 367.52C54.1719 368.582 55.9093 368.848 57.0801 368.848C57.5845 368.848 57.9868 368.796 58.4366 368.739C59.0085 368.665 59.6585 368.582 60.6944 368.582C61.5584 368.582 61.8745 368.654 62.7139 368.846L62.7217 368.848C62.9715 368.905 63.1332 368.981 63.2881 369.054C63.5479 369.177 63.7893 369.29 64.3965 369.29C65.3659 369.29 65.7474 368.848 65.6299 368.317C65.4537 367.52 65.378 366.217 65.3653 364.865C65.3636 364.69 65.3612 364.53 65.3584 364.378C65.3463 363.718 65.3374 363.225 65.4542 362.474C65.4765 362.331 65.4968 362.175 65.5176 362.017C65.5989 361.4 65.6841 360.752 65.8946 360.703C66.7101 360.514 68.0511 360.47 69.5264 360.421C70.1239 360.401 70.7439 360.381 71.3594 360.35C71.6224 360.337 71.8504 360.293 72.0655 360.251C72.4695 360.173 72.83 360.103 73.2989 360.261C74.2688 360.588 74.679 361.255 75.0616 362.208C75.2493 362.676 75.2698 363.022 75.295 363.45C75.303 363.586 75.3106 363.731 75.3252 363.891C75.4033 364.745 75.3079 365.398 75.21 366.068C75.1261 366.641 75.0412 367.227 75.0616 367.962C75.0982 369.282 75.1152 369.91 75.2374 370.706C75.2681 370.907 75.3188 371.145 75.3721 371.396C75.4758 371.884 75.5899 372.422 75.5899 372.831C75.5899 373.32 75.1957 373.628 74.709 373.628C73.6975 373.628 73.5286 372.498 73.3653 371.404C73.3436 371.258 73.3223 371.113 73.2989 370.972C72.9859 369.086 73.0281 367.691 73.0792 366.026C73.1 365.347 73.1221 364.623 73.1221 363.802C73.122 362.61 71.5927 362.537 70.3897 362.479C70.3602 362.477 70.3309 362.475 70.3018 362.474C68.5447 362.389 66.335 362.652 66.335 364.688C66.3351 365.314 66.4919 365.959 66.6573 366.641C66.8432 367.408 67.0401 368.223 67.0401 369.114C67.0401 369.872 66.9779 370.398 66.335 370.795C65.1892 371.503 63.1904 371.503 61.3116 371.503C59.4743 371.503 58.2883 371.359 55.917 371.068C55.672 371.038 55.414 371.005 55.1417 370.972C53.1866 370.734 51.9688 369.29 51.9688 367.52C51.9689 364.864 53.8409 363.802 55.9346 363.802C56.7201 363.802 57.9101 363.896 58.876 363.972C59.5359 364.024 60.0914 364.068 60.3418 364.068C60.4225 364.068 60.5002 364.071 60.5733 364.074C60.9 364.087 61.1348 364.097 61.1348 363.802C61.1347 362.971 59.7374 362.791 58.837 362.674C58.778 362.667 58.7212 362.659 58.667 362.652C57.1816 362.453 56.2056 362.433 55.3516 362.415C54.5211 362.398 53.8057 362.383 52.8497 362.208C51.6158 361.983 50.8224 360.438 50.8223 359.111C50.8223 357.429 51.9683 356.632 52.8497 356.367C53.6952 356.112 54.6313 356.14 55.628 356.169C55.9589 356.179 56.2965 356.19 56.6397 356.19C59.6156 356.19 62.7464 356.437 65.2989 356.64C67.0555 356.779 68.5387 356.898 69.5088 356.898C70.7529 356.898 71.8785 356.875 73.002 356.853C74.1218 356.831 75.2399 356.809 76.4717 356.809C77.2018 356.809 77.873 356.874 78.4991 357.251C79.3804 357.782 79.5796 358.64 79.4688 359.642C79.2582 361.546 79.2712 363.45 79.2852 365.489C79.2888 366.009 79.292 366.538 79.292 367.077C79.292 367.436 79.2855 367.823 79.2784 368.219C79.2415 370.263 79.1995 372.565 80.085 372.566C80.7734 372.566 81.3194 372.195 81.3194 371.503C81.3194 370.315 81.3006 368.67 81.2803 366.905C81.2568 364.857 81.2315 362.646 81.2315 360.792C81.2315 360.584 81.2197 360.394 81.209 360.213C81.1825 359.763 81.1594 359.364 81.3194 358.845C81.611 357.899 82.1972 357.468 82.7393 357.069C82.8567 356.982 82.9723 356.897 83.0821 356.809C83.5228 356.455 84.8799 356.22 85.8145 356.19C85.9408 356.186 86.0647 356.181 86.1856 356.177ZM70.0372 363.802C70.8945 363.877 71.3594 364.708 71.3594 365.573C71.3594 367.572 71.4614 368.497 71.5557 369.351C71.6367 370.085 71.712 370.767 71.712 372.035C71.712 372.947 71.206 373.803 70.3018 373.894C67.6577 374.159 63.9558 374.16 61.6641 374.16C61.4742 374.16 61.2909 374.159 61.1133 374.16C59.3578 374.162 58.1455 374.164 56.2872 373.894C55.1525 373.729 54.6259 373.583 54.1114 373.441C53.6979 373.327 53.2918 373.215 52.585 373.097C52.1283 373.021 51.7073 372.765 51.7042 372.3C51.7004 371.728 52.4685 371.653 53.0264 371.769C54.7718 372.132 55.5928 372.08 56.2325 372.04C56.5292 372.022 56.787 372.006 57.0801 372.035C57.8063 372.106 58.3861 372.213 58.9297 372.313C59.8303 372.478 60.6326 372.626 61.8399 372.566C63.5299 372.482 64.6438 372.115 65.9825 371.674C66.4931 371.506 67.0367 371.328 67.6573 371.15C67.7312 371.129 67.8006 371.112 67.8653 371.097C68.3405 370.986 68.5917 370.926 68.9795 369.29C69.0773 368.878 68.9113 368.044 68.7559 367.263C68.6446 366.704 68.5391 366.171 68.5391 365.838C68.5391 364.85 69.0564 363.717 70.0372 363.802ZM124.244 362.74C124.685 362.267 125.831 361.948 126.889 362.032C130.437 362.313 132.007 362.893 133.315 363.375C134.475 363.804 135.429 364.157 137.377 364.157C138.177 364.157 138.417 363.7 138.633 363.29C138.809 362.956 138.969 362.652 139.404 362.652C140.532 362.652 140.814 363.909 140.815 365.041C140.815 366.281 140.346 368.14 138.875 368.14C137.818 368.14 136.81 367.844 135.879 367.52C135.013 367.219 134.361 366.968 133.766 366.74C132.786 366.363 131.961 366.047 130.59 365.661C129.342 365.311 128.034 364.954 127.329 364.953C127.153 364.953 126.36 365.066 126.359 365.484C126.359 366.635 129.268 367.521 130.855 367.698C131.087 367.724 131.315 367.748 131.54 367.773C134.131 368.059 136.223 368.29 137.994 368.937C138.964 369.291 140.727 370.087 140.991 370.972C141.09 371.301 141.162 371.501 141.215 371.647C141.314 371.92 141.344 372.002 141.344 372.389C141.344 373.008 140.759 373.214 140.197 373.274C139.214 373.378 138.494 372.904 137.734 372.405C137.2 372.053 136.646 371.688 135.967 371.503C134.843 371.197 133.814 371.102 132.882 371.017C132.45 370.977 132.038 370.94 131.648 370.884C131.431 370.853 131.223 370.825 131.023 370.797C129.349 370.568 128.179 370.407 126.447 369.379C126.317 369.302 126.197 369.232 126.086 369.168C125.272 368.698 124.932 368.5 124.156 367.254C123.678 366.485 123.627 365.861 123.627 364.953C123.627 364.046 123.627 363.402 124.244 362.74ZM47.5616 357.783C48.8834 357.871 48.8838 360.154 48.8838 361.631C48.8838 362.252 48.8683 362.847 48.8536 363.411C48.8263 364.457 48.8018 365.396 48.8838 366.193C49.1471 368.748 49.0601 369.459 48.8838 370.619C48.7076 371.777 48.4427 372.566 47.5616 372.566C46.2859 372.566 46.3338 371.515 46.3907 370.275C46.4029 370.009 46.4151 369.734 46.4151 369.459C46.4151 368.693 46.4776 368.107 46.542 367.504C46.605 366.915 46.67 366.31 46.6797 365.504C46.6911 364.562 46.6215 363.971 46.5508 363.371C46.4835 362.8 46.4151 362.221 46.4151 361.324C46.4151 361.244 46.4137 361.15 46.4122 361.044C46.3967 359.969 46.3648 357.702 47.5616 357.783ZM42.5127 355.723C42.6735 355.697 42.8388 355.682 42.9991 355.711C43.271 355.761 43.3419 355.851 43.4249 355.982C43.6504 356.337 44.0731 356.624 44.1251 357.041C44.1313 357.092 44.1314 357.158 44.1241 357.251C44.1087 357.447 44.2607 358.347 44.2999 358.579C44.4625 359.545 44.5111 359.56 44.5186 360.157C44.5203 360.289 44.5158 360.423 44.5196 360.555C44.522 360.64 44.5244 360.725 44.5196 360.749C44.4163 361.268 44.6525 361.324 44.1241 361.324C43.7582 361.324 43.5499 361.312 43.419 360.969C43.3489 360.785 43.3358 360.556 43.3233 360.327C43.3116 360.115 43.2999 359.904 43.2422 359.73C43.0658 359.199 42.5722 358.782 41.7442 358.491C41.0295 358.239 40.544 358.326 39.8047 358.491C39.0115 358.668 38.1299 359.2 38.1299 360.439C38.1303 361.192 39.06 363.055 39.9151 364.77C40.2668 365.475 40.6055 366.156 40.8624 366.723C40.9376 366.889 40.9898 367.064 41.0401 367.232C41.1692 367.662 41.2856 368.048 41.7442 368.139C42.3991 368.269 42.6862 367.602 42.959 366.968C42.9946 366.885 43.0306 366.803 43.0665 366.723C43.2521 366.31 43.1229 365.899 42.9991 365.504C42.8585 365.056 42.725 364.628 43.0665 364.244C43.3232 363.956 43.2044 363.75 43.7715 363.802C44.0886 363.832 44.2261 364.334 44.3829 364.612C44.4623 364.752 44.5195 364.887 44.5196 365.041C44.5196 365.649 44.5411 365.426 44.5196 366.193C44.5167 366.271 44.3019 367.176 44.2999 367.252C44.2798 368.133 44.2961 368.807 44.1661 369.522C44.1404 369.663 44.0909 369.798 44.0391 369.932C43.7221 370.751 43.855 371.277 42.3614 371.858C42.2767 371.891 42.1919 371.925 42.1075 371.958C41.5702 372.173 41.0311 372.389 40.4219 372.389H40.4092C39.9517 372.389 39.8417 372.389 39.5401 372.035C39.3837 371.85 39.3883 371.34 39.3936 370.755C39.3986 370.204 39.4047 369.586 39.2764 369.114C39.0535 368.293 38.7871 367.625 38.5176 366.949C38.1571 366.044 37.79 365.124 37.5127 363.802C37.0419 361.557 36.5437 358.225 36.6319 357.251C36.72 356.278 36.9653 356.081 37.5127 355.924C37.8276 355.834 38.4184 355.916 39.0264 356C39.6096 356.082 40.2093 356.165 40.5977 356.101C40.8486 356.059 41.1409 355.995 41.4346 355.931C41.7581 355.86 42.0846 355.789 42.3614 355.746C42.4131 355.738 42.4636 355.731 42.5127 355.723ZM12.3926 355.835C14.3917 355.835 15.447 355.849 17.417 356.19C18.6323 356.4 21.0372 357.93 23.6329 359.582C25.9319 361.046 28.3809 362.604 30.2852 363.425C31.5303 363.962 32.4892 364.244 33.5469 364.244C33.9877 364.244 34.5165 364.068 34.5167 363.625C34.5167 363.094 32.6762 362.009 31.4317 361.324C30.9189 361.041 30.181 360.905 29.3448 360.749C28.4561 360.584 27.4556 360.398 26.4952 359.995C24.9153 359.333 22.617 358.048 22.3526 357.251C22.08 356.429 22.8775 355.924 23.587 355.924C23.9113 355.924 24.4454 356.15 24.9659 356.369C25.2941 356.508 25.6177 356.645 25.879 356.721L26.043 356.768C28.2944 357.423 29.5273 357.782 30.9903 357.783C31.1238 357.783 31.2687 357.781 31.4219 357.779C32.3002 357.765 33.4666 357.747 34.4981 358.114C34.688 358.181 34.8635 358.288 34.9942 358.442C35.6431 359.205 35.8061 360.467 35.9561 361.631C36.0543 362.393 36.1469 363.114 36.3672 363.625C37.3972 366.017 37.5998 366.667 37.9981 367.944C38.1451 368.415 38.3195 368.971 38.5713 369.733C38.9239 370.799 38.0238 371.978 36.9844 371.681C36.2406 371.468 36.1026 370.864 36.1026 370.087C36.1026 369.462 36.2008 369.08 36.2862 368.747C36.383 368.37 36.4636 368.055 36.3672 367.52C36.3518 367.434 36.3369 367.344 36.3213 367.252C36.1913 366.483 36.0372 365.573 35.4864 365.573C34.9004 365.573 34.6509 366.15 34.5167 366.723C34.3523 367.424 34.3987 368.088 34.4415 368.7C34.4904 369.4 34.5344 370.034 34.252 370.581C33.987 371.095 33.5056 371.225 32.9297 371.238C32.2679 371.252 31.6075 371.018 31.6075 370.353C31.6075 370.047 31.6428 369.75 31.6768 369.459C31.7368 368.946 31.7939 368.452 31.6553 367.961C31.5874 367.721 31.4258 367.521 31.2354 367.359C30.8292 367.013 30.6224 366.897 30.3379 366.739C30.1826 366.652 30.0036 366.553 29.7569 366.396C23.8514 363.425 19.6202 360.703 19.6202 360.703C19.5717 360.674 15.9859 358.49 12.9219 358.314C12.3705 358.282 11.9303 358.341 11.4942 358.399C11.1477 358.445 10.8037 358.491 10.4083 358.491C9.85492 358.491 9.64516 358.068 9.57232 357.517C9.51636 357.093 9.6168 356.821 9.83697 356.455C10.0573 356.09 10.9826 355.835 12.3926 355.835ZM9.39654 363.36C11.1964 363.291 13.979 364.052 14.7471 364.274C14.883 364.313 15.0116 364.368 15.129 364.447C15.5496 364.73 16.5723 365.532 16.712 366.723C16.8882 368.228 17.3289 368.493 18.8272 368.494C19.5199 368.494 20.2131 368.419 20.9581 368.337C21.8244 368.243 22.7617 368.14 23.8516 368.14C23.9469 368.14 24.0438 368.139 24.1417 368.139C25.3935 368.137 26.8068 368.135 27.2002 368.494C27.2644 368.552 27.3297 368.609 27.3936 368.664C27.7512 368.974 28.0721 369.251 27.9942 369.733C27.9197 370.192 27.6515 370.514 27.2002 370.619C26.5024 370.78 25.9258 370.684 25.3086 370.581C24.9127 370.515 24.4998 370.447 24.0274 370.442C22.6534 370.426 21.8923 370.603 21.0528 370.799C20.3192 370.97 19.5252 371.155 18.21 371.238C17.6946 371.238 17.3042 371.184 16.8692 370.968C16.7628 370.915 16.6649 370.846 16.5752 370.768C16.061 370.322 15.8786 370.06 15.6954 369.798C15.5553 369.598 15.4143 369.398 15.1251 369.114C14.5833 368.581 14.0912 368.104 13.4502 367.698C12.3088 366.974 11.181 366.672 9.83697 366.546C7.99996 366.374 6.8162 366.712 5.25396 367.698C4.61207 368.103 4.26837 368.377 3.75493 368.937C3.54159 369.17 3.43824 369.514 3.34282 369.832C3.1984 370.314 3.07193 370.736 2.60943 370.619C2.07898 370.484 2.00119 369.524 1.99224 369.118C1.9896 368.997 2.00554 368.877 2.03423 368.76C2.15504 368.266 2.52422 366.867 2.96197 366.281C3.60946 365.414 4.03855 365.181 4.83208 364.751C5.01057 364.655 5.20775 364.548 5.42974 364.422C6.97031 363.547 7.62789 363.428 9.39654 363.36ZM121.159 364.333C122.041 364.333 122.658 364.953 123.187 365.661C123.474 366.047 123.539 366.369 123.539 366.812C123.539 366.869 123.541 366.922 123.544 366.971C123.553 367.139 123.56 367.271 123.451 367.432C123.217 367.777 122.894 367.926 122.481 367.874C122.42 367.867 122.362 367.86 122.308 367.853C121.747 367.784 121.582 367.763 121.159 367.52C120.339 367.048 119.661 366.28 119.837 365.484C119.985 364.814 120.476 364.333 121.159 364.333ZM144.164 356.809C145.383 356.416 145.75 358.709 145.75 359.995C145.75 361.322 145.751 361.942 145.729 362.561C145.707 363.181 145.663 363.801 145.574 365.13C145.517 365.987 145.133 366.812 144.164 366.812C143.677 366.812 143.229 366.413 143.282 365.927C143.509 363.88 143.444 362.891 143.369 361.743C143.327 361.103 143.282 360.414 143.282 359.464C143.282 359.339 143.28 359.212 143.278 359.084C143.263 358.101 143.247 357.105 144.164 356.809ZM4.01958 357.871C5.03321 357.871 5.71291 358.258 6.43267 358.666C6.9658 358.969 7.52104 359.284 8.25005 359.464C9.45352 359.761 10.3879 359.809 11.3018 359.856C12.0194 359.892 12.725 359.929 13.5391 360.084C14.734 360.313 15.6549 360.719 16.712 361.324C17.6176 361.841 18.1034 362.386 18.5079 362.84C19.0481 363.447 19.4435 363.891 20.502 363.891C20.9447 363.891 21.2372 363.651 21.5127 363.425C21.8338 363.162 22.1321 362.918 22.6172 363.094C23.381 363.372 23.8271 363.96 23.8516 364.776C23.871 365.425 23.6453 365.867 23.1465 366.281C22.7267 366.628 22.3683 366.735 21.8243 366.723C21.3992 366.714 21.1425 366.577 20.8067 366.396C20.7384 366.359 20.6668 366.32 20.5899 366.281C19.7857 365.867 18.8272 364.776 18.8272 364.776C18.8087 364.759 17.222 363.327 16.0069 362.74C14.9664 362.237 14.2444 362.082 13.2989 361.879C13.0209 361.82 12.7232 361.756 12.3926 361.678C11.6647 361.506 11.0195 361.301 10.4083 361.107C8.90062 360.628 7.60058 360.216 5.78228 360.527C5.66965 360.546 5.56589 360.562 5.46782 360.577C5.07887 360.635 4.77922 360.681 4.37212 360.881C4.06111 361.034 3.93635 361.302 3.81743 361.557C3.66044 361.894 3.51356 362.208 2.96197 362.208C2.2554 362.208 2.25616 361.378 2.25689 360.602C2.25691 360.577 2.25689 360.551 2.25689 360.527C2.25696 358.048 3.57889 357.871 4.01958 357.871ZM96.3917 357.075C97.1077 357.075 97.3982 357.596 97.4493 358.314C97.6256 360.792 97.6251 361.412 97.6251 363.625C97.6251 364.774 97.6251 366.193 96.5674 366.193C95.7387 366.193 95.334 365.608 95.334 364.776C95.334 364.21 95.398 363.75 95.4629 363.283C95.5301 362.798 95.5977 362.305 95.5977 361.678C95.5977 361.248 95.4862 360.925 95.3751 360.604C95.2573 360.264 95.1403 359.925 95.1573 359.464C95.1995 358.321 95.4222 357.075 96.3917 357.075ZM40.5977 359.553C41.4791 359.376 42.5372 360.881 42.5372 362.917C42.5372 363.713 42.5452 363.946 42.5088 364.17C42.4846 364.32 42.441 364.467 42.3614 364.776C42.3353 364.877 42.329 364.981 42.3233 365.08C42.3111 365.293 42.3001 365.482 42.0967 365.573C41.7562 365.724 41.4692 365.376 41.3028 365.041C41.2579 364.951 41.2073 364.85 41.1514 364.74C40.6583 363.766 39.8047 362.082 39.8047 360.969C39.8048 360.335 39.9785 359.678 40.5977 359.553ZM138.131 357.16C139.066 357.15 139.413 357.147 140.022 357.606C140.814 358.203 140.902 359.199 140.902 359.995C140.902 360.923 140.744 362.334 139.845 362.12C139.242 361.977 138.737 361.852 138.294 361.742C136.273 361.24 135.543 361.058 132.794 360.969C132.468 360.959 132.136 360.949 131.8 360.938C129.322 360.859 126.586 360.771 123.715 360.616C123.254 360.591 122.956 360.663 122.64 360.741C122.269 360.831 121.873 360.929 121.159 360.881C120.54 360.84 120.315 360.086 120.277 359.464C120.241 358.847 120.399 358.333 120.982 358.137C121.511 357.96 121.838 357.959 122.393 357.959C123.657 357.959 125.097 358.035 126.445 358.105C127.634 358.167 128.753 358.225 129.62 358.225C131.137 358.225 132.194 357.981 133.292 357.726C134.48 357.45 135.718 357.163 137.642 357.163C137.822 357.163 137.984 357.161 138.131 357.16ZM12.7452 353.446C13.4503 353.18 13.7107 353.798 13.8028 354.33C13.9373 355.108 12.5864 355.304 12.0401 355.304C11.9222 355.304 11.5979 355.296 11.1592 355.285C9.5582 355.244 6.4302 355.165 6.22271 355.304C5.9577 355.481 4.59228 355.045 4.66704 354.33C4.71459 353.876 4.81279 353.357 5.42974 353.446C6.04659 353.534 12.0378 353.711 12.7452 353.446ZM41.3028 353.091C42.0961 353.091 42.9527 353.111 43.0665 353.711C43.0783 353.774 43.0902 353.833 43.1016 353.889C43.2002 354.374 43.2546 354.643 42.7549 354.862C42.0833 355.156 41.3155 355.059 40.5381 354.961C40.1457 354.912 39.7507 354.862 39.3643 354.862C38.798 354.862 38.3508 354.897 37.9473 354.929C37.2473 354.985 36.6773 355.03 35.8389 354.862C35.3118 354.756 35.0937 354.691 35.045 354.154C34.9921 353.569 35.2687 353.395 35.8389 353.268C36.6319 353.091 37.1754 353.083 37.9981 353.268C38.5534 353.393 38.7909 353.408 39.3555 353.445L39.3643 353.446C39.7231 353.469 40.0496 353.37 40.378 353.271C40.6763 353.181 40.9762 353.091 41.3028 353.091ZM2.90435 324.391C3.11766 324.393 3.3282 324.451 3.51861 324.547C4.654 325.121 4.8346 325.739 4.72466 326.977C4.3938 330.05 4.21501 332.845 3.93169 343.885C3.92869 344.038 3.91809 344.271 3.9063 344.549C3.85684 345.717 3.77387 347.687 4.01958 347.957C4.40638 348.383 5.41821 348.4 5.42974 348.4C5.42974 348.4 12.1934 348.841 16.5352 348.842C18.2408 348.805 19.5849 348.742 20.8165 348.684C22.8 348.591 24.493 348.512 26.9366 348.577C31.3255 348.693 33.903 348.885 37.8272 349.57C38.0853 349.615 38.3354 349.707 38.5489 349.859C38.9529 350.146 39.1929 350.42 39.3282 350.976C39.3551 351.087 39.386 351.197 39.4073 351.309C39.4513 351.54 39.4684 351.959 39.0997 352.206C38.8284 352.387 36.7729 352.26 34.129 352.096C31.5982 351.939 28.5278 351.748 25.9668 351.763C24.6283 351.771 23.7608 351.826 22.8467 351.884C21.7383 351.954 20.5602 352.029 18.3868 352.029C16.2022 352.029 14.5173 351.82 12.7422 351.599C11.2945 351.419 9.78624 351.231 7.89751 351.144C6.39767 351.205 5.56904 351.352 4.28716 351.692C4.10937 351.739 3.92506 351.767 3.74224 351.747C3.4914 351.72 3.29289 351.656 3.09868 351.551C2.69562 351.334 2.29924 350.998 2.15337 350.564C2.07037 350.317 1.98337 349.964 1.90435 349.461C1.76166 348.553 1.84673 347.315 1.95708 345.71C2.05111 344.343 2.16367 342.709 2.169 340.786C2.18022 336.737 2.1143 331.98 1.9229 325.563C1.91083 325.158 1.9783 324.693 2.33599 324.503C2.49063 324.421 2.67078 324.389 2.90435 324.391ZM33.919 335.38C34.0447 334.426 34.7465 333.463 35.3096 333.705C35.9858 334.022 35.884 335.166 35.7618 336.543C35.6563 337.732 35.5355 339.094 35.8858 340.248C35.9594 340.491 36.1053 340.704 36.2833 340.884C37.7032 342.322 38.833 343.266 39.8321 344.1C41.021 345.093 42.0247 345.931 43.1124 347.265C43.1987 347.371 43.2649 347.492 43.3086 347.621C43.5116 348.221 43.6565 348.652 43.6827 349.285C43.7229 350.26 43.3986 351.163 42.8897 351.144C42.3797 351.124 33.2201 343.315 33.0176 341.318C32.9202 340.356 33.2242 339.389 33.5157 338.461C33.797 337.566 34.067 336.706 33.9542 335.92C33.9284 335.741 33.8953 335.56 33.919 335.38ZM22.8428 333.271C23.1127 333.048 23.4267 332.781 23.7598 332.889C24.1952 333.031 24.4015 333.586 24.3799 334.059C24.3149 335.483 22.1184 337.048 22.0889 337.069C22.0889 337.069 20.2089 338.732 18.5264 339.731C18.4335 339.786 18.3356 339.832 18.2344 339.869C16.5514 340.497 15.4738 340.804 13.4502 341.229C11.2905 341.657 10.0052 341.719 7.87505 341.755C7.65709 341.759 7.43552 341.789 7.24419 341.894C6.9094 342.077 6.62992 342.37 6.66411 342.823C6.7154 343.502 7.21523 343.601 8.07427 343.531C8.4316 343.507 8.75718 343.489 9.06548 343.471C10.5797 343.385 11.6772 343.323 14.0674 342.823C14.2768 342.765 14.4733 342.714 14.6602 342.664C15.8018 342.363 16.5994 342.152 17.9463 341.318C19.0873 340.476 19.7257 340.038 20.8545 339.547L24.9971 337.245C25.0064 337.242 25.8208 336.906 26.1426 336.361C26.2516 336.176 26.2692 335.971 26.2872 335.762C26.3113 335.482 26.3368 335.195 26.584 334.945C27.0154 334.508 27.3772 334.325 27.9942 334.325C28.6112 334.325 29.5534 334.433 30.3741 335.21C30.3916 335.228 30.9903 335.848 30.9903 337.069C30.9903 337.675 30.7941 338.624 30.5967 339.578C30.3905 340.576 30.1831 341.58 30.1973 342.202C30.2737 342.742 30.3543 343.034 30.9024 343.443C31.9912 344.177 32.6662 344.541 34.0752 345.035C35.3979 345.636 36.061 346.005 36.5098 346.623C36.5957 346.742 36.6572 346.876 36.7002 347.016C36.7981 347.334 36.8268 347.55 36.8077 347.869C36.7454 348.276 36.6271 348.459 36.3477 348.534C36.1329 348.591 35.9061 348.544 35.6934 348.479C34.1736 348.014 33.1926 347.639 31.5196 346.983C31.4986 346.974 29.1383 346.005 28.8751 345.035C28.6634 344.256 28.6783 343.306 28.6924 342.368C28.6959 342.134 28.6993 341.901 28.6993 341.672C28.6993 341.407 28.7287 341.115 28.7588 340.819C28.8355 340.064 28.9149 339.279 28.5176 338.815C28.2521 338.505 27.7837 338.548 27.3975 338.681C26.2925 339.06 25.6041 339.399 24.5567 339.99L24.4952 340.028C20.9551 342.2 18.921 343.448 14.9288 345.445C14.7679 345.525 14.5947 345.585 14.418 345.619C12.0062 346.079 10.5707 346.217 8.07427 346.275C5.78924 346.12 4.66857 345.857 4.46001 343.443C4.46001 342.646 4.4602 341.318 5.42974 340.078C5.45949 340.04 5.48799 340.004 5.51568 339.968C5.86658 339.519 6.06059 339.272 6.29302 339.071C6.57762 338.824 6.92064 338.645 7.68462 338.248C7.78244 338.198 7.88769 338.143 8.00005 338.084C8.16602 337.998 8.34354 337.935 8.5274 337.9C10.2564 337.573 11.6021 337.579 12.9395 337.584C14.0185 337.589 15.093 337.593 16.3594 337.423C17.7533 337.236 19.4031 335.815 19.9073 335.354C20.011 335.259 20.121 335.172 20.2393 335.096C20.7256 334.784 22.0901 333.894 22.8428 333.271ZM24.1153 341.494C25.0013 341.144 25.967 341.14 26.584 341.494C26.9028 341.677 26.9288 342.109 26.9581 342.587C26.9801 342.948 27.0038 343.336 27.1563 343.663C27.2289 343.819 27.3578 343.938 27.4903 344.047C27.7969 344.299 28.0223 344.516 28.2002 344.756C28.5444 345.222 28.4738 345.878 28.0987 346.32C27.7127 346.774 27.2388 347.082 26.4073 347.426C25.8304 347.602 25.4521 347.259 24.6338 344.988C24.5817 344.843 24.4796 344.75 24.3399 344.813C24.0813 344.93 23.616 345.215 23.0528 345.561C21.6772 346.405 19.7153 347.609 18.7393 347.603C17.1763 347.593 16.6219 346.845 16.5352 346.54C16.45 346.235 19.458 343.919 24.1153 341.494ZM40.334 326.889C42.6041 326.809 43.1304 327.901 43.4825 330.592C43.499 330.719 43.5026 330.849 43.4942 330.976C43.2538 334.628 43.2422 337.165 43.2422 337.6C43.2422 338.043 42.7753 338.39 42.2725 338.485C41.7127 338.591 40.9644 338.437 40.9502 337.866C40.9111 336.268 40.9354 333.084 40.9463 331.607C40.9491 331.24 40.9502 330.978 40.9502 330.872C40.9502 330.791 40.9546 330.715 40.9581 330.646C40.9768 330.264 40.9873 330.048 40.334 329.81C39.0604 329.347 38.9273 331.861 38.8223 333.852C38.7997 334.282 38.7784 334.687 38.7471 335.033C38.7895 336.138 39.096 337.08 39.4034 337.761C39.7383 338.503 40.339 339.37 40.9795 339.871C41.1824 340.03 41.4054 340.2 41.6338 340.373C42.2135 340.814 42.8288 341.283 43.2422 341.672C43.2573 341.686 43.2737 341.701 43.2901 341.716C43.6706 342.07 44.4056 342.754 44.6524 345.035C44.7255 345.711 44.2345 345.974 43.6514 346.285C43.5565 346.336 43.451 346.356 43.3594 346.299C42.4055 345.709 37.931 341.253 37.6016 340.344C37.2491 339.37 36.849 337.239 36.8077 335.21C36.7602 332.874 37.0556 331.55 37.6016 329.279C38.2187 326.712 40.334 326.889 40.334 326.889ZM5.95904 328.836C6.48396 328.846 6.66402 329.459 6.66411 329.987C6.66411 330.286 6.64096 330.565 6.61919 330.83C6.55715 331.586 6.50451 332.231 7.01665 332.909C7.60308 333.684 8.07419 333.882 9.044 333.882C10.3875 333.882 10.7391 333.811 12.3868 333.477C12.5762 333.439 12.7827 333.397 13.0098 333.351C13.3503 333.283 13.6468 333.221 13.9112 333.165C15.3582 332.862 15.8521 332.759 17.417 332.909C18.0005 332.964 18.4165 333.471 18.3868 334.059C18.3859 334.077 18.3846 334.094 18.3838 334.111C18.3633 334.534 18.3598 334.607 17.6817 335.033C17.2509 335.303 16.9149 335.268 16.5001 335.225C16.2359 335.198 15.9397 335.168 15.5665 335.21C14.4979 335.332 14.15 335.438 13.6348 335.597C13.3509 335.684 13.0161 335.788 12.4815 335.918C11.5687 336.14 9.82014 336.44 8.07427 336.095C7.28281 335.939 6.19676 335.602 5.42974 334.059C5.02662 333.248 4.91163 331.785 5.16509 329.456C5.20774 329.065 5.56664 328.829 5.95904 328.836ZM3.66704 309.185C3.91865 309.181 4.90046 309.268 6.34185 309.396C10.0747 309.728 16.8904 310.335 22.0889 310.335C22.633 310.335 23.9607 310.244 25.5752 310.132C29.4568 309.864 34.9984 309.482 35.3096 309.982C35.4798 310.255 35.5581 310.502 35.5899 310.702C35.6435 311.04 35.442 311.343 35.1807 311.564C34.7986 311.887 34.2292 312.34 33.8995 312.46C33.3687 312.654 5.51549 311.419 5.16509 311.221C4.75204 310.988 4.73591 311.478 4.99517 311.837C5.09184 311.971 5.24142 312.051 5.39068 312.121C5.92233 312.373 7.27155 313.043 8.07427 313.7C8.98072 314.441 9.42293 314.956 10.1016 315.912C10.8139 316.916 10.9588 317.265 11.504 318.572C11.5604 318.707 11.6214 318.852 11.6876 319.01C12.0132 319.787 12.0434 321.034 12.0743 322.334C12.1102 323.85 12.1475 325.44 12.6573 326.447C13.3951 327.903 14.0307 328.079 14.7334 328.274C14.9983 328.347 15.2733 328.422 15.5665 328.571C15.6803 328.628 15.784 328.682 15.8799 328.731C16.7898 329.198 16.9946 329.302 18.3868 329.279C19.4925 329.26 20.6875 328.741 21.8614 328.231C23.089 327.697 24.2937 327.174 25.3497 327.243C26.5228 327.319 27.6098 328.062 28.5909 328.732C29.3371 329.241 30.0224 329.709 30.6377 329.81C31.673 329.98 32.4739 330.591 33.0176 331.492C33.0725 331.582 33.1297 331.674 33.1846 331.762C33.4649 332.212 33.7225 332.627 33.7227 332.996C33.7227 333.439 33.5467 334.148 32.5772 334.148C32.1155 334.148 30.0362 333.366 27.8321 332.536C25.406 331.624 22.8284 330.654 22.0889 330.607C21.4069 330.564 20.8148 330.904 20.1924 331.261C19.528 331.643 18.8282 332.045 17.9463 332.023C16.9947 331.999 16.4526 331.841 15.5665 331.492C14.364 331.018 13.1464 330.413 11.4239 328.571C10.6699 327.764 10.6288 327.119 10.5713 326.211C10.5361 325.654 10.4941 324.998 10.2774 324.145C10.0815 323.374 9.99108 322.611 9.9024 321.864C9.73314 320.436 9.57055 319.06 8.69146 317.771C7.85205 316.54 7.06056 315.944 5.90337 315.074C5.80711 315.001 5.70807 314.927 5.6065 314.85C5.14998 314.505 4.69797 314.308 4.26665 314.12C3.65963 313.856 3.09292 313.609 2.60943 312.991C1.86198 312.034 1.65564 311.555 1.72759 310.335C1.79445 309.202 2.63205 309.194 3.47466 309.187C3.53886 309.186 3.60312 309.186 3.66704 309.185ZM9.21978 328.836C9.94791 328.819 10.7561 329.692 10.7178 330.341C10.6795 330.99 9.04484 332.465 8.69146 332.466C8.0568 332.466 7.72177 332.112 7.72173 331.138C7.72173 330.304 8.30686 328.859 9.21978 328.836ZM13.7149 321.577C14.1394 321.577 15.4163 322.947 15.9034 323.487C16.0318 323.629 16.1765 323.756 16.3467 323.844C16.6215 323.986 17.0687 324.18 17.417 324.145C18.3285 324.053 19.0879 323.605 19.8458 323.158C20.5537 322.74 21.2607 322.323 22.0889 322.198C22.4065 322.15 22.6775 322.099 22.9327 322.051C23.4508 321.954 23.905 321.869 24.5567 321.843C24.6717 321.839 24.8068 321.837 24.9385 321.836C25.3222 321.836 25.6945 321.958 26.0118 322.174L28.127 323.613C28.2142 323.672 28.3063 323.725 28.4024 323.769C29.007 324.042 29.4493 324.166 30.0928 324.213C30.3932 324.235 30.6906 324.303 30.9561 324.446C31.8521 324.926 32.494 325.349 33.1719 325.796C33.5657 326.056 33.9723 326.324 34.4473 326.616C34.5519 326.68 34.6499 326.765 34.7706 326.787C34.8926 326.81 35.0458 326.793 35.2139 326.775C35.5214 326.741 35.8798 326.702 36.1915 326.889C36.6581 327.169 36.774 328.464 36.8008 328.932C36.8073 329.045 36.8199 329.158 36.8262 329.271C36.8447 329.604 36.7914 330.337 36.0147 330.607C35.5207 330.778 34.9075 330.367 34.1475 329.858C34.1238 329.842 34.0992 329.826 34.0752 329.81C31.4157 328.463 29.5533 327.197 28.1573 326.249C26.579 325.178 25.5965 324.511 24.7325 324.587C24.009 324.651 22.5708 325.118 21.1211 325.588C19.5335 326.103 17.9313 326.623 17.2403 326.623C15.9182 326.623 14.1553 325.472 13.4502 324.587C13.0351 324.066 12.7679 323.658 12.834 322.994C12.8987 322.345 13.0657 321.578 13.7149 321.577ZM39.2764 309.982C39.8935 309.872 41.1752 309.872 41.8321 309.982C42.7135 310.129 43.0978 310.329 43.8594 311.221C44.388 311.841 44.3877 313.062 44.3877 314.319C44.3877 314.953 44.2826 315.736 44.1661 316.603C44.0225 317.671 43.8621 318.867 43.8594 320.073C43.8564 321.446 43.9884 322.678 44.1104 323.813C44.2696 325.293 44.4115 326.61 44.212 327.863C44.1823 328.049 44.0897 328.084 43.9903 328.06C43.7532 328.003 43.5653 327.815 43.3711 327.667C43.2193 327.552 43.0375 327.383 42.8897 327.155C42.7665 326.964 42.6723 326.838 42.5987 326.741C42.3605 326.425 42.3398 326.398 42.2725 325.384C42.2322 324.777 42.3044 322.977 42.379 321.105C42.4675 318.881 42.5596 316.554 42.4737 316C42.4602 315.913 42.4463 315.82 42.4317 315.722C42.2746 314.67 42.0364 313.072 41.3917 312.991C41.3758 312.989 41.3394 312.979 41.2862 312.965C41.0298 312.897 40.3685 312.723 39.5645 312.755C38.7826 312.787 37.8675 312.637 37.711 311.87C37.6784 311.711 37.6684 311.55 37.6895 311.398C37.7888 310.683 38.6594 310.092 39.2764 309.982ZM7.02154 318.443C7.0171 318.17 7.25011 317.942 7.48931 318.074C8.07965 318.399 8.45108 319.291 8.5147 319.984C8.5695 320.582 8.20923 320.913 7.82818 321.263C7.43351 321.625 7.01682 322.008 7.01665 322.728C7.01665 323.637 7.50139 323.739 7.98052 323.839C8.24735 323.895 8.51284 323.95 8.69146 324.145C8.83208 324.298 8.93506 324.388 9.01763 324.46C9.15865 324.583 9.23977 324.654 9.3438 324.896C9.52336 325.314 9.53025 325.827 9.24029 326.178C9.00025 326.468 8.73466 326.481 8.33892 326.447C6.36285 326.274 6.28442 326.145 5.6563 325.112C5.64006 325.085 5.62351 325.058 5.6065 325.03C5.15907 324.295 5.16144 323.716 5.16509 322.888C5.16532 322.836 5.16496 322.782 5.16509 322.728C5.16683 322.029 5.41177 320.947 5.95904 320.515C7.04111 319.661 7.03853 319.488 7.02154 318.443ZM36.9844 314.673C39.3178 314.718 40.5977 319.453 40.5977 319.453C40.6046 319.481 41.1254 321.6 40.9502 324.942C40.9332 325.26 40.3689 325.632 40.0694 325.738C39.6742 325.876 39.485 325.749 39.2764 325.384C38.7873 324.529 38.8293 323.715 38.8711 322.909C38.9063 322.23 38.941 321.557 38.6592 320.869C38.1205 319.556 37.249 318.302 36.1915 318.302C35.3704 318.302 35.1752 319.072 35.1338 319.896C35.117 320.233 35.2741 320.628 35.4444 320.951C35.6678 321.374 36.0996 321.624 36.5499 321.785C36.9172 321.918 37.3421 322.113 37.6016 322.374C38.1569 322.933 38.3067 323.259 38.3067 324.233C38.3067 324.994 37.9136 325.654 37.1602 325.738C35.5739 325.914 34.6302 324.35 33.8116 322.817C33.1321 321.544 33.067 320.631 33.1065 319.188C33.11 319.06 33.1113 318.936 33.1133 318.819C33.1265 318.035 33.137 317.458 33.5469 316.709C34.298 315.338 35.4262 314.644 36.9844 314.673ZM29.669 313.256C29.8806 313.185 30.1529 313.281 30.3682 313.39C30.6159 313.516 30.7958 313.736 30.9297 313.98L32.3956 316.645C32.5155 316.863 32.5945 317.1 32.6182 317.348C32.6773 317.964 32.7604 319.212 32.5772 320.073C32.317 321.294 32.1419 321.9 31.4161 322.815C30.9633 323.385 30.1282 323.657 29.6202 323.135C29.3003 322.807 29.104 322.367 29.0518 321.843C28.9514 320.835 29.4508 319.999 29.9161 319.221C30.2678 318.633 30.5998 318.077 30.6377 317.505C30.6826 316.829 30.366 316.408 30.0196 315.949C29.7975 315.654 29.5632 315.343 29.4043 314.939C29.3548 314.813 29.2887 314.706 29.2266 314.605C29.1037 314.405 28.9953 314.228 29.0518 313.965C29.1293 313.606 29.322 313.373 29.669 313.256ZM2.96197 316.886C4.19578 316.886 4.45997 319.175 4.46001 320.515C4.46001 321.577 4.42754 323.198 3.66704 322.728C2.52129 322.02 1.61505 320.009 1.72759 319.01L1.72954 318.993C1.84155 317.999 1.96738 316.886 2.96197 316.886ZM22.6094 313.198C23.4798 313.115 25.3364 313 27.377 313.256C27.7402 313.302 27.9357 313.696 28.0235 313.943C28.0697 314.073 28.0817 314.209 28.0831 314.347C28.0894 314.986 28.1272 316.974 28.3448 318.263C28.4272 318.752 28.4639 319.34 28.0342 319.586C27.9057 319.66 27.7722 319.707 27.6456 319.75C27.3097 319.866 27.0246 319.964 27.0245 320.515C27.0245 321.143 27.3171 321.25 27.5108 321.322C27.6445 321.371 27.7311 321.403 27.6417 321.577C27.4466 321.957 27.0058 321.901 26.584 321.843C25.7515 321.729 25.3903 320.916 25.3497 320.073C25.3219 319.497 25.7498 319.253 26.1797 319.008C26.6061 318.765 27.0347 318.52 27.0245 317.949C27.0048 316.872 26.936 316.444 25.085 315.912C23.5979 315.486 22.566 314.83 22.2178 314.589C22.1304 314.529 22.0512 314.458 21.9864 314.373C21.8626 314.212 21.678 313.924 21.7364 313.7C21.7403 313.684 21.7449 313.669 21.751 313.654C21.8808 313.335 22.2667 313.23 22.6094 313.198ZM17.5049 313.256C19.2416 313.256 20.2402 314.827 20.9922 316.011C21.5761 316.93 22.0116 317.616 22.5293 317.152C22.5596 317.125 22.5887 317.099 22.6163 317.074C22.9884 316.737 23.138 316.601 23.6749 316.709C24.3707 316.849 24.6959 317.25 24.5567 317.949C24.3802 318.834 23.0872 319.552 21.7364 319.453C20.7331 319.38 20.3387 318.729 19.9014 318.008C19.5875 317.49 19.2511 316.936 18.6514 316.532C17.7613 315.932 16.712 315.695 16.712 316.709C16.712 318.125 16.7114 319.01 16.5352 319.984C16.4207 320.616 16.1872 321.155 15.5665 321.312C14.6104 321.553 14.5967 319.558 14.5967 318.568C14.5967 318.005 14.615 317.483 14.6348 316.912C14.6587 316.227 14.6846 315.473 14.6846 314.495C14.6851 313.533 16.2882 313.256 17.5049 313.256ZM12.4815 313.434C13.1864 313.434 13.5391 314.939 13.5391 315.912C13.5391 316.537 13.5386 317.308 13.4102 318.084C13.3117 318.679 12.7739 319.029 12.4424 318.525C11.9577 317.788 11.5642 316.396 11.6876 315.381C11.7068 315.223 11.7176 315.053 11.7286 314.882C11.7741 314.17 11.8217 313.434 12.4815 313.434ZM38.337 305.333C39.0703 305.177 39.7563 305.032 40.5977 305.202C40.7037 305.223 40.8077 305.243 40.9083 305.262C41.9354 305.459 42.657 305.598 42.6251 306.706C42.5989 307.613 42.2843 308.072 41.3917 308.211C40.7966 308.304 40.4522 308.202 40.0293 308.077C39.4684 307.912 38.7684 307.705 37.1602 307.857C36.5257 307.917 36.0039 308.085 35.4893 308.25C34.6692 308.515 33.8671 308.774 32.6553 308.578C32.604 308.57 32.5531 308.555 32.5049 308.535C31.7043 308.21 31.5073 308.129 31.3438 307.238C31.1402 306.126 32.0868 305.918 33.1641 305.683C33.3482 305.643 33.5362 305.602 33.7227 305.555C34.4747 305.367 34.9955 305.43 35.5567 305.497C35.9728 305.547 36.4117 305.6 36.9844 305.555C37.477 305.517 37.9148 305.423 38.337 305.333ZM3.93169 305.378C4.57933 304.527 6.66411 305.378 6.66411 305.378C6.68834 305.386 8.42701 305.961 9.57232 305.91C10.2324 305.88 10.7749 305.713 11.3096 305.548C11.92 305.36 12.5207 305.176 13.2745 305.202C13.3473 305.204 13.4168 305.206 13.4825 305.208C14.5756 305.242 14.7175 305.246 14.9493 306.441C15.1775 307.618 13.7149 307.857 13.7149 307.857H9.169C8.40693 307.857 7.71831 307.999 7.06743 308.133C6.0152 308.35 5.0602 308.547 4.04888 308.091C3.76163 307.961 3.5877 307.673 3.40142 307.418C3.29879 307.278 3.20732 307.153 3.22661 306.883C3.27159 306.254 3.55053 305.88 3.93169 305.378ZM31.5137 213.292H2.00005C0.889941 213.292 -0.00782979 212.388 5.14965e-05 211.278L0.385794 158.044C0.394132 156.946 1.28714 156.059 2.38579 156.059H31.5137V213.292Z" fill="#9F2131"/>
</svg>
