<svg width="370" height="431" viewBox="0 0 370 431" fill="none" xmlns="http://www.w3.org/2000/svg">
<path d="M172.135 310.084H215.135V322.084H190V331.557C196.361 332.911 201.68 337.079 204.595 342.696L209.195 340.04C209.068 339.576 209 339.088 209 338.584C209 335.546 211.462 333.084 214.5 333.084C217.538 333.084 220 335.546 220 338.584C220 341.622 217.538 344.084 214.5 344.084C213.066 344.084 211.76 343.534 210.781 342.635L205.806 345.507C206.578 347.723 207 350.104 207 352.584C207 354.85 206.648 357.033 205.998 359.084H206C212.627 359.084 218 364.457 218 371.084C218 377.711 212.627 383.084 206 383.084C199.786 383.084 194.674 378.361 194.061 372.31C191.872 373.261 189.495 373.858 187 374.03V419.292C189.308 419.945 191 422.067 191 424.584C191 427.622 188.538 430.084 185.5 430.084C182.462 430.084 180 427.622 180 424.584C180 422.067 181.692 419.945 184 419.292V374.03C179.344 373.709 175.097 371.907 171.725 369.09L158.156 382.658C158.69 383.506 159 384.508 159 385.584C159 388.622 156.538 391.084 153.5 391.084C150.462 391.084 148 388.622 148 385.584C148 382.546 150.462 380.084 153.5 380.084C154.364 380.084 155.182 380.284 155.909 380.639L169.549 366.999C166.1 363.186 164 358.13 164 352.584C164 349.995 164.457 347.513 165.296 345.215L160.444 342.414C159.445 343.443 158.048 344.084 156.5 344.084C153.462 344.084 151 341.622 151 338.584C151 335.546 153.462 333.084 156.5 333.084C159.538 333.084 162 335.546 162 338.584C162 338.972 161.959 339.351 161.883 339.716L166.554 342.413C169.498 336.939 174.746 332.889 181 331.557V322.084H155.135V282.084H172.135V310.084ZM44.1348 308.081V322.084H31.5293L15 282.084H33.3926L44.1348 308.081ZM78.2627 282.981L89.1348 309.293V322.084H76.0283L69.0664 305.236L62.1045 322.084H49.1348V308.961L59.8701 282.982L59.499 282.084H78.6338L78.2627 282.981ZM106.604 322.084H94.1348V307.748L104.74 282.084H123.133L106.604 322.084ZM146.134 322.084H129.134V282.084H146.134V322.084ZM238.135 310.084H281.135V322.084H221.135V282.084H238.135V310.084ZM356.135 294.084H304.135V297.084H353.135V307.084H304.135V310.084H356.135V322.084H287.135V282.084H356.135V294.084ZM183.5 121.584L181 131.084C178.267 146.451 176.42 153.863 173.271 166.496L173 167.584C178.319 182.729 189.866 189.398 218.5 199.584L237 256.584L252.5 211.584C252.5 211.584 265.5 217.584 275 218.084C275.535 218.047 276.054 218.012 276.558 217.978C289.72 217.077 292.574 216.881 294.5 211.584C294.5 208.084 294 205.084 294 205.084C294.5 203.084 299.259 199.749 300 199.584C300 199.084 298 192.584 298 192.584C302.835 197.375 306.992 205.07 307 205.084C307 205.084 311.631 213.157 315 216.084C314.991 216.062 308.034 198.447 304.5 187.084C307.5 184.584 310.256 182.033 310 177.084C309.921 175.548 309.614 173.528 309.27 171.261C308.505 166.224 307.555 159.967 308.5 155.084C312.983 167.718 316.399 176.731 322.5 187.084C322.5 187.084 324.5 189.584 326 188.584C327 187.917 326.5 186.084 326.5 186.084L319 169.084C315.151 160.422 314.202 155.791 315.5 148.084C315.968 149.019 316.413 150.172 316.887 151.398C317.933 154.107 319.119 157.179 321 159.084C321.145 159.677 321.307 160.39 321.477 161.131C322.059 163.683 322.719 166.572 323 166.084C322.711 167.421 326.622 173.205 329 176.084C329.342 177.452 329.601 178.562 329.82 179.506C330.564 182.702 330.868 184.01 332.5 187.084C333.392 188.763 334.356 189.88 335.335 191.013C336.226 192.044 337.129 193.088 338 194.584C338.505 195.452 338.824 196.191 339.137 196.915C339.504 197.765 339.861 198.593 340.5 199.584C341.365 200.926 342.389 201.753 343.39 202.561C344.554 203.5 345.687 204.414 346.5 206.084C347.473 208.083 347.998 211.573 348 211.584C355.471 221.183 360.586 225.005 370 230.084C362.04 239.908 359.36 245.878 358.5 255.584C355.994 255.782 354.192 255.683 352.406 255.585C350.642 255.488 348.894 255.391 346.5 255.584C341.99 257.044 339.156 258.267 334 260.584C328.709 265.349 325.995 268.213 321.5 273.584C321.484 273.575 310.495 267.582 304 264.584C302.211 263.988 300.901 263.4 299.681 262.852C296.808 261.561 294.436 260.495 287.5 260.084C277.618 259.498 262.5 257.584 262.5 257.584C262.5 257.584 250.153 259.804 242.5 261.584C240.594 262.011 239.182 262.965 236.692 264.647C235.677 265.334 234.481 266.141 233 267.084C228.079 267.911 224.175 269.663 216.5 273.584C207.745 280.168 203.247 284.396 196.5 293.584C195.765 291.583 195.247 289.885 194.753 288.264C193.915 285.515 193.144 282.989 191.5 279.584C189.224 275.702 185.975 272.726 177.5 267.584C177.495 267.583 172.997 267.084 168.5 267.084C166.65 265.234 166.083 264.24 164.426 261.331C164.291 261.095 164.15 260.847 164 260.584C163.197 260.176 162.553 260.046 161.842 259.902C161.431 259.82 160.999 259.732 160.5 259.584C160.188 259.428 159.884 259.275 159.586 259.124C156.061 257.344 153.18 255.889 143.5 253.584C146.26 252.329 148.001 252.15 149.498 251.996C150.984 251.843 152.231 251.715 154 250.584C157.391 248.415 160.5 243.084 160.5 243.084L154 242.584L143.5 234.584L155.5 238.584H161L170 227.584L154 210.084L139.5 192.084V184.584L149.5 144.084L160.5 101.084H189.5L183.5 121.584ZM87.5 119.584C88.0735 120.588 89.9625 123.976 92.5898 128.689C99.1243 140.408 110.224 160.316 117 172.084C116.5 176.58 111.009 179.579 111 179.584C111 179.584 110 180.584 110 181.584C110 182.31 110.276 182.651 110.609 183.063C110.735 183.218 110.869 183.384 111 183.584C111.636 184.22 112.272 184.677 112.87 185.105C113.682 185.688 114.424 186.22 115 187.084C114.094 188.291 113.145 188.562 112.231 188.822C111.632 188.993 111.047 189.16 110.5 189.584C110.438 189.632 110.377 189.679 110.318 189.725C109.027 190.724 108.478 191.15 108 192.584C108.499 194.081 109.496 194.582 109.5 194.584C109.5 194.584 112.263 195.353 114 195.084C114.275 195.041 114.482 195.015 114.653 194.993C115.358 194.904 115.49 194.888 117.5 194.084C115.9 195.364 115.288 195.657 114.423 196.071C113.936 196.304 113.369 196.576 112.5 197.084C110.444 198.285 107.507 200.579 107.5 200.584C107.5 200.584 107 201.584 107 202.584C108.5 203.584 109.5 203.584 109.5 203.584C109.509 203.579 115.004 200.581 120 197.084C116.503 202.58 110.509 206.079 110.5 206.084C110.5 206.084 110 208.584 110.5 209.584C109.569 210.515 107.783 211.52 105.896 212.581C104.745 213.229 103.555 213.898 102.5 214.584C98.4379 216.389 97.7843 217.212 96.0898 219.346C95.9072 219.576 95.7124 219.821 95.5 220.084C95.2775 220.36 95.0399 220.624 94.8096 220.88C94.1247 221.641 93.5 222.336 93.5 223.084C94.5 223.584 95.5 223.084 95.5 223.084C106.761 218.326 113.007 215.49 124 210.084C124 210.084 113.5 219.584 108 223.084C107.251 224.083 106.799 224.882 106.335 225.703C105.853 226.556 105.357 227.433 104.5 228.584C103.34 230.141 102.341 231.244 101.213 232.489C100.409 233.376 99.54 234.336 98.5 235.584C98.4116 235.727 98.3246 235.867 98.2393 236.004C96.7221 238.448 95.694 240.104 95 243.084C94.7566 244.129 94.7552 244.753 94.7539 245.486C94.7525 246.226 94.7512 247.077 94.5 248.584C92 249.084 89.5 249.084 89.5 249.084C89.5 249.084 86.5 252.084 86 254.584C86.1875 255.334 86.375 255.873 86.5625 256.359L86.9375 257.309C87.125 257.795 87.3125 258.334 87.5 259.084C87.125 259.834 86.75 260.303 86.375 260.701L85.625 261.467C85.25 261.865 84.875 262.334 84.5 263.084C84.6403 263.926 84.9896 264.109 85.4717 264.362C85.7695 264.519 86.1182 264.702 86.5 265.084C86.7744 265.907 86.6557 266.632 86.542 267.325C86.5278 267.412 86.5133 267.498 86.5 267.584C82.5 269.584 81 270.084 76.5 271.584C75.3136 271.527 73.5 270.584 73.5 270.584C73.4893 270.576 68.9952 267.08 65 264.084C63.3592 263.084 62.0558 262.585 60.7529 262.086C59.4478 261.586 58.143 261.086 56.5 260.084C55.1969 259.289 54.3156 258.489 53.4375 257.691C52.4735 256.816 51.5126 255.944 50 255.084C46.2926 252.976 41 251.584 39.5 251.584C38 251.584 36 252.084 34 252.584C34 251.353 33.8581 250.713 33.6475 249.763C33.6014 249.555 33.5519 249.331 33.5 249.084C33.456 248.875 33.4145 248.642 33.373 248.411C33.2586 247.774 33.1467 247.152 33 247.084C32.5951 246.758 32 247.41 32 247.41L21.5 256.084C21.0014 256.583 20.5028 258.076 20.5 258.084C19.5 265.084 15.5 268.584 10.5 268.584C7 268.251 0 265.784 0 258.584C2.38753e-05 251.384 6.5 249.084 8.5 249.084C10.4562 249.084 11.83 249.403 13.0664 249.689C14.358 249.989 15.4999 250.253 17 250.084C18.0753 249.963 18.3825 249.816 18.9238 249.556C19.1879 249.429 19.5077 249.275 20 249.084C22.6262 248.067 26 245.084 26 245.084L30.5 240.584C29.5 236.084 29 234.584 26 228.084C26.4169 227.806 26.8145 227.54 27.1953 227.285C32.2947 223.875 34.3822 222.48 39.5 221.084C40.3389 220.386 40.9076 219.743 41.4746 219.103C42.0556 218.446 42.6349 217.792 43.5 217.084C44.8849 215.95 46.0502 215.323 47.3008 214.65C48.1328 214.203 49.0029 213.735 50 213.084C53.4024 210.863 58.5 207.084 58.5 207.084C58.509 207.074 63.5009 201.582 64.5 199.584C65.1532 198.278 65.593 196.757 66.377 194.049C66.7931 192.611 67.3065 190.838 68 188.584C70.5 183.584 72.5 177.084 74 171.084C76.5 164.584 79 158.084 80.5 153.584C80.7353 151.937 80.8712 150.826 80.9961 149.807C81.1365 148.66 81.2629 147.63 81.5 146.084C82.2326 143.154 82.9226 140.738 83.5693 138.474C85.1296 133.01 86.4396 128.421 87.5 119.584ZM273.5 101.084C272.371 109.008 271.567 113.328 269.5 120.584C262.055 130.785 257.89 135.983 250.5 142.584C255.696 139.698 258.914 137.528 268 127.584C264.681 141.351 262.819 147.811 259.5 159.084C255.843 172.026 254.408 177.681 252.5 186.084C251.108 193.517 250.349 195.791 249 199.584C244.151 217.225 241.582 224.063 237.514 234.886C237.186 235.757 236.849 236.654 236.5 237.584L222.5 193.584C223.456 190.401 224.357 187.47 225.212 184.69C229.435 170.953 232.518 160.924 235.5 142.584C238.166 137.327 239.602 133.927 242 126.584C244.724 116.427 245.817 110.882 247.5 101.084H273.5ZM121.5 5.08401C120.333 7.91734 117.8 19.584 117 43.584C117.296 62.8246 120.5 81.084 124 87.084C127.5 93.084 128.776 95.8202 130 99.084C130 99.084 141.5 120.584 147 130.584C146.382 133.674 144.809 137.718 143.462 141.184C142.629 143.326 141.882 145.247 141.5 146.584C140.501 150.079 140.5 154.572 140.5 154.584C140.5 154.584 141 158.084 138 166.584C134.005 179.068 133.501 184.071 133.5 184.084C133.5 184.084 131.5 186.084 125 175.084C123.745 171.947 113.045 153.264 103.269 136.195C97.4617 126.057 91.9811 116.487 89 111.084C89.2937 106.678 90.6227 102.617 91.8721 98.7998C92.7494 96.1195 93.5875 93.5591 94 91.084C94.5734 87.6439 94.8185 85.3544 95.1113 82.6133C95.3292 80.5737 95.5734 78.2836 96 75.084C96.4646 73.0649 96.9897 71.779 97.5381 70.4356C98.3463 68.4557 99.2057 66.3497 100 61.584C101 55.584 102 52.084 104 45.084C104 45.084 104.117 54.084 104.5 58.584C106.5 82.084 113 101.084 116 102.584C115.37 99.7471 114.699 97.9642 113.979 96.0508C112.414 91.894 110.617 87.1201 108.5 69.584C108.5 62.5511 107.887 58.7882 107.444 56.0742C107.195 54.5434 107 53.3462 107 52.084C107 50.4783 107.211 49.7143 107.535 48.5371C107.918 47.1484 108.459 45.1842 109 40.584C109.501 36.3265 109.645 31.437 109.78 26.8653C109.915 22.3097 110.041 18.0694 110.5 15.084C111.3 9.88402 118.167 5.91734 121.5 5.08401ZM213 101.084C215.604 108.984 217.012 112.289 219.5 117.584C215.843 126.047 214.547 129.958 213 136.084C210.281 128.907 205.5 117.584 204 114.584V107.584C203.075 104.808 202.458 104.006 201.813 103.168C201.413 102.648 201.002 102.113 200.5 101.084H213ZM128 103.084C128.999 111.08 140.487 131.062 140.5 131.084C141.5 132.584 143.5 132.084 143 128.584C139.8 124.984 136 120.584 128 103.084ZM270.5 1.58401C274.5 -3.91593 293.878 16.0842 296 27.084C298.313 35.2791 299.761 39.0956 302.5 45.084C304.134 52.2154 304.526 55.509 305 61.084C304.618 67.8095 304.107 70.9356 303 76.084C300.565 81.9459 299.242 84.9614 297 89.584C295.287 93.7409 294.645 94.9433 293.5 97.084C285.605 109.183 281.276 115.077 274 121.584C274.221 119.601 274.343 118.426 274.5 115.084C283.186 104.664 285.558 100.345 289.5 90.584C291.005 88.3593 291.757 86.4133 292.5 83.084C291.164 79.1744 289.498 77.5259 284 76.084C279.486 76.2857 278.775 79.7938 277.515 86.0108L277.5 86.084H251C251.853 78.902 252.931 72.9199 256 59.584C257.667 53.9803 259.016 49.8431 262 41.084C262.458 35.0421 262.771 32.5089 263.5 30.584C265.643 25.8522 266.715 22.0451 268.5 14.084C269.5 15.2507 271.9 17.584 273.5 17.584C275.1 17.584 275.5 15.2507 275.5 14.084C275.467 13.9596 275.433 13.8328 275.398 13.7031C274.743 11.2283 273.826 7.76044 270.5 1.58401ZM183 0.0840087C191.5 -1.41599 204 17.584 208 24.084C208.499 27.5799 209.498 29.0805 209.5 29.084C217.499 37.5825 219.499 54.0783 219.5 54.084C219.5 54.084 221.079 56.712 221.5 59.584C221.812 61.7092 222 64.584 221 66.584C220.522 66.7435 220.119 66.8522 219.785 66.9424C219.072 67.1349 218.67 67.2436 218.5 67.584C218.245 68.0944 218.12 69.9074 217.992 71.7598C217.87 73.5366 217.745 75.3496 217.5 76.084C216.674 76.9098 215.242 78.1908 213.955 79.3418C212.904 80.2815 211.949 81.1346 211.5 81.584C211 83.0834 210.5 86.0816 210.5 86.084H199C197.544 83.6571 197.03 81.2298 196.601 79.2031C196.146 77.0546 195.786 75.3559 194.5 74.584C194.124 75.8996 194.031 76.8623 193.928 77.9229C193.757 79.6838 193.56 81.7155 192 86.084H164.5C164.501 86.079 168 73.0836 170.5 71.084C171 64.084 172 58.084 172 58.084C172.001 58.0797 175 48.0834 176.5 45.084C176 41.084 178 27.084 178.5 25.584C178.671 25.0706 178.959 24.44 179.265 23.7725C179.851 22.4898 180.5 21.0705 180.5 20.084C180.5 18.584 180.5 13.584 182 11.084C184.893 12.0483 185.306 14.0458 185.631 15.6153C185.811 16.4871 185.964 17.2269 186.5 17.584C187.5 16.084 187.5 14.584 187.5 13.584C187.5 12.584 187.5 8.584 183 0.0840087Z" fill="#2290B5"/>
</svg>
